<svg xmlns="http://www.w3.org/2000/svg" viewBox="0 0 1400 950" role="img" aria-labelledby="title desc" preserveAspectRatio="xMidYMid meet">

<defs>
  <marker id="arrowhead" markerWidth="10" markerHeight="10" refX="9" refY="5" orient="auto" markerUnits="strokeWidth">
    <path d="M0 0 L10 5 L0 10 z" fill="#334155"/>
  </marker>
</defs>

<title id="title">PJ1 — EC site foundation</title>
<desc id="desc">Three-tier AWS architecture: ALB→EC2(Nginx)→RDS Multi-AZ, with S3 via VPC Endpoint, CloudWatch/SNS ops alerting, SSM Session/Parameter Store, provisioned by CloudFormation.</desc>
<g id="external">
  <rect x="20" y="70" width="220" height="680" rx="10" ry="10"
        fill="#F8FAFC" stroke="#475569" stroke-width="1.4" stroke-dasharray="4 3"/>
  <g transform="translate(32, 88)">
    <text x="0" y="0" font-family="Inter, system-ui, sans-serif"
          font-size="11" font-weight="700" fill="#475569"
          letter-spacing="0.5">INTERNET / ACTORS</text>
  </g>
</g>
<g id="cloud">
  <rect x="270" y="70" width="1110" height="840" rx="10" ry="10"
        fill="none" stroke="#232F3E" stroke-width="1.4"/>
  <g transform="translate(282, 88)">
    <text x="0" y="0" font-family="Inter, system-ui, sans-serif"
          font-size="11" font-weight="700" fill="#232F3E"
          letter-spacing="0.5">AWS Cloud — ap-northeast-1</text>
  </g>
</g>
<g id="region">
  <rect x="290" y="110" width="1070" height="780" rx="10" ry="10"
        fill="none" stroke="#00A4A6" stroke-width="1.4" stroke-dasharray="6 4"/>
  <g transform="translate(302, 128)">
    <text x="0" y="0" font-family="Inter, system-ui, sans-serif"
          font-size="11" font-weight="700" fill="#00A4A6"
          letter-spacing="0.5">Region</text>
  </g>
</g>
<g id="vpc">
  <rect x="310" y="150" width="1030" height="560" rx="10" ry="10"
        fill="none" stroke="#8C4FFF" stroke-width="1.4"/>
  <g transform="translate(322, 168)">
    <text x="0" y="0" font-family="Inter, system-ui, sans-serif"
          font-size="11" font-weight="700" fill="#8C4FFF"
          letter-spacing="0.5">VPC  10.0.0.0/16</text>
  </g>
</g>
<g id="pub-a">
  <rect x="340" y="290" width="490" height="110" rx="10" ry="10"
        fill="#F2F6E8" stroke="#7AA116" stroke-width="1.4"/>
  <g transform="translate(352, 308)">
    <text x="0" y="0" font-family="Inter, system-ui, sans-serif"
          font-size="11" font-weight="700" fill="#7AA116"
          letter-spacing="0.5">Public subnet — AZ 1a  10.0.0.0/24</text>
  </g>
</g>
<g id="pub-c">
  <rect x="845" y="290" width="475" height="110" rx="10" ry="10"
        fill="#F2F6E8" stroke="#7AA116" stroke-width="1.4"/>
  <g transform="translate(857, 308)">
    <text x="0" y="0" font-family="Inter, system-ui, sans-serif"
          font-size="11" font-weight="700" fill="#7AA116"
          letter-spacing="0.5">Public subnet — AZ 1c  10.0.1.0/24</text>
  </g>
</g>
<g id="priv-app-a">
  <rect x="340" y="430" width="490" height="120" rx="10" ry="10"
        fill="#E6F2F8" stroke="#00A4A6" stroke-width="1.4"/>
  <g transform="translate(352, 448)">
    <text x="0" y="0" font-family="Inter, system-ui, sans-serif"
          font-size="11" font-weight="700" fill="#00A4A6"
          letter-spacing="0.5">Private subnet — App 1a  10.0.10.0/24</text>
  </g>
</g>
<g id="priv-app-c">
  <rect x="845" y="430" width="475" height="120" rx="10" ry="10"
        fill="#E6F2F8" stroke="#00A4A6" stroke-width="1.4"/>
  <g transform="translate(857, 448)">
    <text x="0" y="0" font-family="Inter, system-ui, sans-serif"
          font-size="11" font-weight="700" fill="#00A4A6"
          letter-spacing="0.5">Private subnet — App 1c  10.0.11.0/24</text>
  </g>
</g>
<g id="priv-db-a">
  <rect x="340" y="570" width="490" height="120" rx="10" ry="10"
        fill="#E6F2F8" stroke="#00A4A6" stroke-width="1.4"/>
  <g transform="translate(352, 588)">
    <text x="0" y="0" font-family="Inter, system-ui, sans-serif"
          font-size="11" font-weight="700" fill="#00A4A6"
          letter-spacing="0.5">Private subnet — DB 1a  10.0.20.0/24</text>
  </g>
</g>
<g id="priv-db-c">
  <rect x="845" y="570" width="475" height="120" rx="10" ry="10"
        fill="#E6F2F8" stroke="#00A4A6" stroke-width="1.4"/>
  <g transform="translate(857, 588)">
    <text x="0" y="0" font-family="Inter, system-ui, sans-serif"
          font-size="11" font-weight="700" fill="#00A4A6"
          letter-spacing="0.5">Private subnet — DB 1c  10.0.21.0/24</text>
  </g>
</g>
<g id="platform">
  <rect x="290" y="740" width="1070" height="150" rx="10" ry="10"
        fill="none" stroke="#00A4A6" stroke-width="1.4" stroke-dasharray="5 3"/>
  <g transform="translate(302, 758)">
    <text x="0" y="0" font-family="Inter, system-ui, sans-serif"
          font-size="11" font-weight="700" fill="#00A4A6"
          letter-spacing="0.5">Shared platform &amp; governance</text>
  </g>
</g>
<g id="svc-user" transform="translate(60, 130)">
      <rect x="0" y="0" width="108" height="82" rx="10" ry="10"
            fill="#ffffff" stroke="#CBD5E1" stroke-width="1"/>
      <defs><clipPath id="clip-user"><rect x="36" y="6" width="36" height="36"/></clipPath></defs><g clip-path="url(#clip-user)"><svg x="36" y="6" width="36" height="36" viewBox="0 0 48.0 48.0" preserveAspectRatio="xMidYMid meet" overflow="hidden"><title>Icon-Resource/General-Resource/Res_Users_48_Light</title>
<g id="Icon-Resource/General-Resource/Res_Users_48" stroke="none" stroke-width="1" fill="none" fill-rule="evenodd">
    <path d="M28.639,9.286 C28.639,6.371 31.052,4 34.019,4 C36.985,4 39.397,6.371 39.397,9.286 C39.397,12.201 36.985,14.572 34.019,14.572 C31.052,14.572 28.639,12.201 28.639,9.286 L28.639,9.286 Z M40.163,16.334 C39.516,15.932 38.833,15.6 38.128,15.333 C40.098,14.023 41.397,11.802 41.397,9.286 C41.397,5.269 38.087,2 34.019,2 C29.95,2 26.639,5.269 26.639,9.286 C26.639,11.796 27.932,14.014 29.895,15.325 C28.614,15.808 27.41,16.515 26.349,17.425 L27.652,18.943 C29.434,17.414 31.689,16.572 34,16.572 C35.802,16.572 37.569,17.077 39.109,18.033 C41.849,19.735 43.647,22.725 43.953,26 L34,26 L34,28 L45,28 C45.553,28 46,27.553 46,27 C46,22.657 43.764,18.57 40.163,16.334 L40.163,16.334 Z M8.639,9.286 C8.639,6.371 11.052,4 14.019,4 C16.985,4 19.397,6.371 19.397,9.286 C19.397,12.201 16.985,14.572 14.019,14.572 C11.052,14.572 8.639,12.201 8.639,9.286 L8.639,9.286 Z M14,26 L4.046,26 C4.53,20.717 8.81,16.572 14,16.572 C15.802,16.572 17.569,17.077 19.109,18.033 C19.541,18.302 19.958,18.608 20.349,18.943 L21.652,17.426 C21.184,17.024 20.684,16.657 20.163,16.334 C19.516,15.932 18.833,15.6 18.128,15.333 C20.098,14.023 21.397,11.802 21.397,9.286 C21.397,5.269 18.087,2 14.019,2 C9.95,2 6.639,5.269 6.639,9.286 C6.639,11.801 7.937,14.023 9.907,15.332 C5.302,17.071 2,21.638 2,27 C2,27.553 2.448,28 3,28 L14,28 L14,26 Z M14.046,44 C14.53,38.717 18.81,34.572 24,34.572 C25.802,34.572 27.569,35.077 29.109,36.033 C31.849,37.735 33.647,40.725 33.953,44 L14.046,44 Z M18.639,27.286 C18.639,24.371 21.052,22 24.019,22 C26.985,22 29.397,24.371 29.397,27.286 C29.397,30.201 26.985,32.572 24.019,32.572 C21.052,32.572 18.639,30.201 18.639,27.286 L18.639,27.286 Z M30.163,34.334 C29.516,33.932 28.833,33.6 28.128,33.333 C30.098,32.023 31.397,29.802 31.397,27.286 C31.397,23.269 28.087,20 24.019,20 C19.95,20 16.639,23.269 16.639,27.286 C16.639,29.801 17.937,32.023 19.907,33.332 C15.302,35.071 12,39.638 12,45 C12,45.553 12.448,46 13,46 L35,46 C35.553,46 36,45.553 36,45 C36,40.657 33.764,36.57 30.163,34.334 L30.163,34.334 Z" id="Fill-1" fill="#242F3E"></path>
</g></svg></g>
      <rect x="8" y="78" width="92" height="3"
            rx="1.5" ry="1.5" fill="#232F3E"/>
      <text x="54" y="74" text-anchor="middle"
            font-family="Inter, system-ui, sans-serif" font-size="11" font-weight="700"
            fill="#1E293B">Internet User</text>
      <text x="54" y="100" text-anchor="middle" font-family="Inter, system-ui, sans-serif" font-size="10" fill="#64748B" font-weight="500">EC customer</text>
    </g>
<g id="svc-r53" transform="translate(60, 280)">
      <rect x="0" y="0" width="108" height="82" rx="10" ry="10"
            fill="#ffffff" stroke="#CBD5E1" stroke-width="1"/>
      <defs><clipPath id="clip-r53"><rect x="36" y="6" width="36" height="36"/></clipPath></defs><g clip-path="url(#clip-r53)"><svg x="36" y="6" width="36" height="36" viewBox="0 0 80.0 80.0" preserveAspectRatio="xMidYMid meet" overflow="hidden"><title>Icon-Architecture/64/Arch_Amazon-Route-53_64</title>
<g id="Icon-Architecture/64/Arch_Amazon-Route-53_64" stroke="none" stroke-width="1" fill="none" fill-rule="evenodd">
    <g id="Icon-Architecture-BG/64/Networking-Content-Delivery" fill="#8C4FFF">
        <rect id="Rectangle" x="0" y="0" width="80" height="80"></rect>
    </g>
    <path d="M48.692,40.6795109 C49.431,41.3627732 49.801,42.2781246 49.801,43.4275659 C49.801,44.678046 49.351,45.6764293 48.452,46.4227159 C47.552,47.1700028 46.343,47.543146 44.826,47.543146 C43.627,47.543146 42.44,47.2870477 41.266,46.7768518 L41.266,45.2452638 C42.657,45.7054405 43.843,45.9345284 44.826,45.9345284 C45.796,45.9345284 46.542,45.7174451 47.065,45.2842788 C47.588,44.8501121 47.849,44.2308744 47.849,43.4275659 C47.849,41.8829729 46.874,41.1106764 44.921,41.1106764 C44.309,41.1106764 43.703,41.1426887 43.103,41.2057129 L43.103,39.9432282 L47.123,35.5585448 L41.458,35.5585448 L41.458,33.9889422 L49.247,33.9889422 L49.247,35.5015229 L45.304,39.6751253 C45.369,39.6621203 45.431,39.656118 45.496,39.656118 L45.687,39.656118 C46.951,39.656118 47.952,39.9972489 48.692,40.6795109 M37.574,40.3453826 C38.351,41.0726618 38.74,42.0740463 38.74,43.349536 C38.74,44.6010165 38.288,45.6124048 37.381,46.3847013 C36.475,47.1569978 35.283,47.543146 33.803,47.543146 C32.503,47.543146 31.284,47.2870477 30.148,46.7768518 L30.148,45.2452638 C31.564,45.7054405 32.776,45.9345284 33.784,45.9345284 C34.754,45.9345284 35.497,45.7154443 36.013,45.2742749 C36.53,44.834106 36.789,44.1998624 36.789,43.3695437 C36.789,42.4631957 36.546,41.8059434 36.061,41.3977867 C35.576,40.9896299 34.785,40.7845512 33.688,40.7845512 C32.897,40.7845512 31.909,40.8495762 30.722,40.976625 L30.722,39.7131399 L31.086,33.9889422 L38.071,33.9889422 L38.071,35.5585448 L32.693,35.5585448 L32.444,39.4450369 C33.146,39.3179882 33.777,39.2539636 34.338,39.2539636 C35.716,39.2539636 36.795,39.617103 37.574,40.3453826 M51.957,54.37777 C47.103,55.250105 42.852,57.2268639 40,58.8374822 C37.147,57.2268639 32.896,55.250105 28.043,54.37777 C26.677,54.1326759 19.869,52.7111302 19.869,48.7756192 C19.869,46.951919 20.522,45.7424547 21.776,43.5826255 C23.274,40.9996338 25.138,37.7843994 25.138,33.1556222 C25.138,29.8473521 24.271,26.6751342 22.559,23.7149977 C22.76,23.4669025 22.965,23.2158061 23.171,22.9627089 C25.707,24.2301955 28.347,24.8724421 31.031,24.8724421 C34.311,24.8724421 37.325,24.0111114 40,22.3114589 C42.674,24.0111114 45.688,24.8724421 48.968,24.8724421 C51.652,24.8724421 54.293,24.2301955 56.829,22.9627089 C57.034,23.2158061 57.239,23.4669025 57.44,23.7149977 C55.728,26.6751342 54.861,29.8473521 54.861,33.1556222 C54.861,37.7843994 56.725,40.9996338 58.226,43.586627 C59.477,45.7424547 60.13,46.951919 60.13,48.7756192 C60.13,52.7111302 53.322,54.1326759 51.957,54.37777 M56.861,33.1556222 C56.861,29.9974097 57.752,26.9702475 59.507,24.1581679 C59.735,23.7950284 59.706,23.3278491 59.434,22.9957216 C58.926,22.3734827 58.393,21.7182311 57.867,21.0669811 C57.562,20.6898363 57.032,20.5857963 56.606,20.8198862 C54.143,22.1814089 51.574,22.8716739 48.968,22.8716739 C45.824,22.8716739 43.077,22.0263494 40.569,20.2886823 C40.227,20.0515912 39.772,20.0515912 39.43,20.2886823 C36.922,22.0263494 34.175,22.8716739 31.031,22.8716739 C28.425,22.8716739 25.856,22.1814089 23.393,20.8198862 C22.968,20.5857963 22.437,20.6898363 22.132,21.0669811 C21.606,21.7182311 21.073,22.3734827 20.565,22.9957216 C20.294,23.3278491 20.264,23.7950284 20.492,24.1581679 C22.248,26.9702475 23.138,29.9974097 23.138,33.1556222 C23.138,37.2461927 21.423,40.2023277 20.045,42.581241 C18.695,44.9041328 17.869,46.4467251 17.869,48.7756192 C17.869,54.1646882 25.385,55.9343677 27.689,56.3475263 C32.549,57.2208616 36.793,59.2806524 39.497,60.8542565 C39.652,60.9452915 39.826,60.9903088 40,60.9903088 C40.173,60.9903088 40.347,60.9452915 40.503,60.8542565 C43.207,59.2806524 47.45,57.2208616 52.31,56.3475263 C54.614,55.9343677 62.13,54.1646882 62.13,48.7756192 C62.13,46.4467251 61.304,44.9041328 59.954,42.5782399 C58.576,40.2023277 56.861,37.2461927 56.861,33.1556222 M52.994,60.1569888 C46.863,61.2594121 41.723,64.556678 40,65.7641416 C38.276,64.556678 33.136,61.2594121 27.005,60.1569888 C14.937,57.9891566 14,50.8974338 14,48.7756192 C14,45.2852792 15.371,42.9233724 16.697,40.6374948 C17.961,38.4596586 19.268,36.2067937 19.268,33.1556222 C19.268,28.3357718 16.485,24.9314648 15.112,23.5459328 C16.556,21.7892584 20.204,17.3415508 22.003,15.0236609 C24.729,17.5966487 27.898,19.0001876 31.031,19.0001876 C34.509,19.0001876 37.385,17.5846441 40,14.5644846 C42.614,17.5846441 45.49,19.0001876 48.968,19.0001876 C52.101,19.0001876 55.27,17.5966487 57.997,15.0236609 C59.796,17.3415508 63.443,21.7892584 64.887,23.5459328 C63.514,24.9314648 60.731,28.3357718 60.731,33.1556222 C60.731,36.2067937 62.039,38.4596586 63.302,40.6374948 C64.629,42.9233724 66,45.2852792 66,48.7756192 C66,50.8974338 65.062,57.9891566 52.994,60.1569888 M65.032,39.6341095 C63.797,37.5052922 62.731,35.6675867 62.731,33.1556222 C62.731,27.867592 66.847,24.4472789 66.887,24.4152666 C67.094,24.2472021 67.226,24.0031083 67.254,23.7370062 C67.28,23.470904 67.2,23.2058022 67.03,22.9997231 C66.963,22.9196924 60.408,14.9726413 58.906,12.9138509 C58.73,12.6727583 58.457,12.5227007 58.159,12.5046938 C57.86,12.4826853 57.572,12.601731 57.368,12.8198148 C54.848,15.5148495 51.866,16.9994194 48.968,16.9994194 C45.764,16.9994194 43.244,15.5718713 40.794,12.3706423 C40.415,11.8764526 39.585,11.8764526 39.206,12.3706423 C36.755,15.5718713 34.235,16.9994194 31.031,16.9994194 C28.133,16.9994194 25.151,15.5148495 22.631,12.8198148 C22.427,12.601731 22.137,12.4776834 21.84,12.5046938 C21.543,12.5227007 21.269,12.6727583 21.093,12.9138509 C19.591,14.9726413 13.036,22.9196924 12.969,22.9997231 C12.8,23.2058022 12.72,23.470904 12.747,23.7360058 C12.773,24.0011076 12.904,24.2452013 13.11,24.4132658 C13.152,24.4472789 17.268,27.867592 17.268,33.1556222 C17.268,35.6675867 16.202,37.5052922 14.967,39.6341095 C13.576,42.0310298 12,44.7470725 12,48.7756192 C12,55.487196 17.477,60.4781121 26.652,62.1267451 C33.559,63.3682217 39.334,67.7489036 39.391,67.7939209 C39.57,67.9309735 39.785,68 40,68 C40.214,68 40.429,67.9309735 40.609,67.7929205 C40.667,67.7489036 46.422,63.3712229 53.347,62.1267451 C62.522,60.4781121 68,55.487196 68,48.7756192 C68,44.7470725 66.423,42.0310298 65.032,39.6341095" id="Amazon-Route-53-Icon_64_Squid" fill="#FFFFFF"></path>
</g></svg></g>
      <rect x="8" y="78" width="92" height="3"
            rx="1.5" ry="1.5" fill="#8C4FFF"/>
      <text x="54" y="74" text-anchor="middle"
            font-family="Inter, system-ui, sans-serif" font-size="11" font-weight="700"
            fill="#1E293B">Route 53</text>
      <text x="54" y="100" text-anchor="middle" font-family="Inter, system-ui, sans-serif" font-size="10" fill="#64748B" font-weight="500">Hosted Zone</text>
    </g>
<g id="svc-dev" transform="translate(60, 440)">
      <rect x="0" y="0" width="108" height="82" rx="10" ry="10"
            fill="#ffffff" stroke="#CBD5E1" stroke-width="1"/>
      <defs><clipPath id="clip-dev"><rect x="36" y="6" width="36" height="36"/></clipPath></defs><g clip-path="url(#clip-dev)"><svg x="36" y="6" width="36" height="36" viewBox="0 0 48.0 48.0" preserveAspectRatio="xMidYMid meet" overflow="hidden"><title>Icon-Resource/General-Resource/Res_User_48_Light</title>
<g id="Icon-Resource/General-Resource/Res_User_48" stroke="none" stroke-width="1" fill="none" fill-rule="evenodd">
    <path d="M6.025,44 C6.524,34.085 14.395,26.178 24,26.178 C27.248,26.178 30.43,27.092 33.205,28.822 C38.354,32.033 41.653,37.783 41.974,44 L6.025,44 Z M14.192,13.878 C14.192,8.432 18.592,4 24.001,4 C29.408,4 33.807,8.432 33.807,13.878 C33.807,19.325 29.408,23.757 24.001,23.757 C18.592,23.757 14.192,19.325 14.192,13.878 L14.192,13.878 Z M34.263,27.125 C32.53,26.044 30.65,25.26 28.698,24.771 C32.877,22.939 35.807,18.749 35.807,13.878 C35.807,7.329 30.51,2 24.001,2 C17.489,2 12.192,7.329 12.192,13.878 C12.192,18.755 15.13,22.95 19.317,24.778 C10.545,26.981 4,35.2 4,45 C4,45.552 4.447,46 5,46 L43,46 C43.552,46 44,45.552 44,45 C44,37.719 40.269,30.87 34.263,27.125 L34.263,27.125 Z" id="Fill-1" fill="#242F3E"></path>
</g></svg></g>
      <rect x="8" y="78" width="92" height="3"
            rx="1.5" ry="1.5" fill="#232F3E"/>
      <text x="54" y="74" text-anchor="middle"
            font-family="Inter, system-ui, sans-serif" font-size="11" font-weight="700"
            fill="#1E293B">Developer</text>
      <text x="54" y="100" text-anchor="middle" font-family="Inter, system-ui, sans-serif" font-size="10" fill="#64748B" font-weight="500">CFN deploy</text>
    </g>
<g id="svc-ops" transform="translate(60, 590)">
      <rect x="0" y="0" width="108" height="82" rx="10" ry="10"
            fill="#ffffff" stroke="#CBD5E1" stroke-width="1"/>
      <defs><clipPath id="clip-ops"><rect x="36" y="6" width="36" height="36"/></clipPath></defs><g clip-path="url(#clip-ops)"><svg x="36" y="6" width="36" height="36" viewBox="0 0 48.0 48.0" preserveAspectRatio="xMidYMid meet" overflow="hidden"><title>Icon-Resource/General-Resource/Res_User_48_Light</title>
<g id="Icon-Resource/General-Resource/Res_User_48" stroke="none" stroke-width="1" fill="none" fill-rule="evenodd">
    <path d="M6.025,44 C6.524,34.085 14.395,26.178 24,26.178 C27.248,26.178 30.43,27.092 33.205,28.822 C38.354,32.033 41.653,37.783 41.974,44 L6.025,44 Z M14.192,13.878 C14.192,8.432 18.592,4 24.001,4 C29.408,4 33.807,8.432 33.807,13.878 C33.807,19.325 29.408,23.757 24.001,23.757 C18.592,23.757 14.192,19.325 14.192,13.878 L14.192,13.878 Z M34.263,27.125 C32.53,26.044 30.65,25.26 28.698,24.771 C32.877,22.939 35.807,18.749 35.807,13.878 C35.807,7.329 30.51,2 24.001,2 C17.489,2 12.192,7.329 12.192,13.878 C12.192,18.755 15.13,22.95 19.317,24.778 C10.545,26.981 4,35.2 4,45 C4,45.552 4.447,46 5,46 L43,46 C43.552,46 44,45.552 44,45 C44,37.719 40.269,30.87 34.263,27.125 L34.263,27.125 Z" id="Fill-1" fill="#242F3E"></path>
</g></svg></g>
      <rect x="8" y="78" width="92" height="3"
            rx="1.5" ry="1.5" fill="#232F3E"/>
      <text x="54" y="74" text-anchor="middle"
            font-family="Inter, system-ui, sans-serif" font-size="11" font-weight="700"
            fill="#1E293B">Ops</text>
      <text x="54" y="100" text-anchor="middle" font-family="Inter, system-ui, sans-serif" font-size="10" fill="#64748B" font-weight="500">alert triage</text>
    </g>
<g id="svc-igw" transform="translate(360, 180)">
      <rect x="0" y="0" width="108" height="82" rx="10" ry="10"
            fill="#ffffff" stroke="#CBD5E1" stroke-width="1"/>
      <defs><clipPath id="clip-igw"><rect x="36" y="6" width="36" height="36"/></clipPath></defs><g clip-path="url(#clip-igw)"><svg x="36" y="6" width="36" height="36" viewBox="0 0 48.0 48.0" preserveAspectRatio="xMidYMid meet" overflow="hidden"><title>Icon-Resource/Networking-and-Content-Delivery/Res_Amazon-VPC_Internet-Gateway_48</title>
<g id="Icon-Resource/Networking-and-Content-Delivery/Res_Amazon-VPC_Internet-Gateway_48" stroke="none" stroke-width="1" fill="none" fill-rule="evenodd">
    <path d="M33.4312,35.1778 L31.9332,35.1778 L31.9332,17.5018 C31.9332,17.1088 31.7022,16.7518 31.3442,16.5908 L31.2522,16.5488 C29.2432,15.6418 27.1642,14.7028 24.1762,14.7028 C21.0532,14.7028 18.7612,15.7118 16.4952,16.8368 C16.1552,17.0058 15.9402,17.3528 15.9402,17.7328 L15.9402,35.1778 L14.4772,35.1778 L14.4772,16.3118 C16.9112,14.3328 20.4202,13.2048 24.1862,13.2048 C27.6872,13.2048 31.0252,14.2018 33.4312,15.9528 L33.4312,35.1778 Z M24.1862,11.2048 C19.7612,11.2048 15.6172,12.6238 12.8152,15.0998 C12.6002,15.2888 12.4772,15.5618 12.4772,15.8488 L12.4772,36.1778 C12.4772,36.7308 12.9242,37.1778 13.4772,37.1778 L16.9402,37.1778 C17.4932,37.1778 17.9402,36.7308 17.9402,36.1778 L17.9402,18.3558 C19.8592,17.4288 21.7192,16.7028 24.1762,16.7028 C26.5112,16.7028 28.2092,17.3778 29.9332,18.1488 L29.9332,36.1778 C29.9332,36.7308 30.3802,37.1778 30.9332,37.1778 L34.4312,37.1778 C34.9842,37.1778 35.4312,36.7308 35.4312,36.1778 L35.4312,15.4578 C35.4312,15.1538 35.2922,14.8658 35.0532,14.6748 C32.2792,12.4698 28.3182,11.2048 24.1862,11.2048 L24.1862,11.2048 Z M23.9542,43.9088 C12.9522,43.9088 3.9992,34.9568 3.9992,23.9538 C3.9992,12.9508 12.9522,3.9998 23.9542,3.9998 C34.9572,3.9998 43.9092,12.9508 43.9092,23.9538 C43.9092,34.9568 34.9572,43.9088 23.9542,43.9088 L23.9542,43.9088 Z M23.9542,1.9998 C11.8482,1.9998 1.9992,11.8488 1.9992,23.9538 C1.9992,36.0608 11.8482,45.9088 23.9542,45.9088 C36.0602,45.9088 45.9092,36.0608 45.9092,23.9538 C45.9092,11.8488 36.0602,1.9998 23.9542,1.9998 L23.9542,1.9998 Z" id="AWS-Amazon-VPC_Internet-gateway_Resource-Icon_light-bg" fill="#8C4FFF"></path>
</g></svg></g>
      <rect x="8" y="78" width="92" height="3"
            rx="1.5" ry="1.5" fill="#8C4FFF"/>
      <text x="54" y="74" text-anchor="middle"
            font-family="Inter, system-ui, sans-serif" font-size="11" font-weight="700"
            fill="#1E293B">Internet GW</text>

    </g>
<g id="svc-alb" transform="translate(820, 180)">
      <rect x="0" y="0" width="108" height="82" rx="10" ry="10"
            fill="#ffffff" stroke="#CBD5E1" stroke-width="1"/>
      <defs><clipPath id="clip-alb"><rect x="36" y="6" width="36" height="36"/></clipPath></defs><g clip-path="url(#clip-alb)"><svg x="36" y="6" width="36" height="36" viewBox="0 0 80.0 80.0" preserveAspectRatio="xMidYMid meet" overflow="hidden"><title>Icon-Architecture/64/Arch_Elastic-Load-Balancing_64</title>
<g id="Icon-Architecture/64/Arch_Elastic-Load-Balancing_64" stroke="none" stroke-width="1" fill="none" fill-rule="evenodd">
    <g id="Icon-Architecture-BG/64/Networking-Content-Delivery" fill="#8C4FFF">
        <rect id="Rectangle" x="0" y="0" width="80" height="80"></rect>
    </g>
    <path d="M30,53 C22.832,53 17,47.168 17,40 C17,32.832 22.832,27 30,27 C37.168,27 43,32.832 43,40 C43,47.168 37.168,53 30,53 M60,59 C60,61.206 58.206,63 56,63 C53.794,63 52,61.206 52,59 C52,56.794 53.794,55 56,55 C58.206,55 60,56.794 60,59 M56,17 C58.206,17 60,18.794 60,21 C60,23.206 58.206,25 56,25 C53.794,25 52,23.206 52,21 C52,18.794 53.794,17 56,17 M59,36 C61.206,36 63,37.794 63,40 C63,42.206 61.206,44 59,44 C56.794,44 55,42.206 55,40 C55,37.794 56.794,36 59,36 M44.949,41 L53.09,41 C53.568,43.833 56.033,46 59,46 C62.309,46 65,43.309 65,40 C65,36.691 62.309,34 59,34 C56.033,34 53.568,36.167 53.09,39 L44.949,39 C44.823,37.099 44.344,35.297 43.572,33.654 L52.446,25.823 C53.442,26.559 54.669,27 56,27 C59.309,27 62,24.309 62,21 C62,17.691 59.309,15 56,15 C52.691,15 50,17.691 50,21 C50,22.256 50.389,23.421 51.051,24.386 L42.581,31.859 C39.904,27.738 35.271,25 30,25 C21.729,25 15,31.729 15,40 C15,48.271 21.729,55 30,55 C35.271,55 39.904,52.262 42.581,48.141 L51.051,55.614 C50.389,56.579 50,57.744 50,59 C50,62.309 52.691,65 56,65 C59.309,65 62,62.309 62,59 C62,55.691 59.309,53 56,53 C54.669,53 53.442,53.441 52.446,54.177 L43.572,46.346 C44.344,44.703 44.823,42.901 44.949,41" id="Elastic-Load-Balancing_Icon_64_Squid" fill="#FFFFFF"></path>
</g></svg></g>
      <rect x="8" y="78" width="92" height="3"
            rx="1.5" ry="1.5" fill="#8C4FFF"/>
      <text x="54" y="74" text-anchor="middle"
            font-family="Inter, system-ui, sans-serif" font-size="11" font-weight="700"
            fill="#1E293B">ALB</text>
      <text x="54" y="100" text-anchor="middle" font-family="Inter, system-ui, sans-serif" font-size="10" fill="#64748B" font-weight="500">ACM, :443, multi-AZ</text>
    </g>
<g id="svc-nat-a" transform="translate(480, 305)">
      <rect x="0" y="0" width="108" height="82" rx="10" ry="10"
            fill="#ffffff" stroke="#CBD5E1" stroke-width="1"/>
      <defs><clipPath id="clip-nat-a"><rect x="36" y="6" width="36" height="36"/></clipPath></defs><g clip-path="url(#clip-nat-a)"><svg x="36" y="6" width="36" height="36" viewBox="0 0 48.0 48.0" preserveAspectRatio="xMidYMid meet" overflow="hidden"><title>Icon-Resource/Networking-and-Content-Delivery/Res_Amazon-VPC_NAT-Gateway_48</title>
<g id="Icon-Resource/Networking-and-Content-Delivery/Res_Amazon-VPC_NAT-Gateway_48" stroke="none" stroke-width="1" fill="none" fill-rule="evenodd">
    <path d="M13.6255,35.9209 L13.6255,33.0829 L15.3995,34.5019 L13.6255,35.9209 Z M13.2505,30.2209 C12.9495,29.9799 12.5365,29.9329 12.1915,30.1009 C11.8465,30.2679 11.6255,30.6169 11.6255,31.0019 L11.6255,38.0019 C11.6255,38.3869 11.8465,38.7359 12.1915,38.9029 C12.3305,38.9699 12.4785,39.0019 12.6255,39.0019 C12.8485,39.0019 13.0695,38.9279 13.2505,38.7829 L17.6255,35.2829 C17.8625,35.0929 18.0005,34.8059 18.0005,34.5019 C18.0005,34.1979 17.8625,33.9109 17.6255,33.7209 L13.2505,30.2209 Z M37.2515,26.8369 L37.2515,22.9149 L39.2125,24.8759 L37.2515,26.8369 Z M41.3335,24.1689 L36.9585,19.7939 C36.6725,19.5079 36.2445,19.4219 35.8685,19.5769 C35.4945,19.7319 35.2515,20.0969 35.2515,20.5009 L35.2515,23.8759 L27.6255,23.8759 L27.6255,14.3759 C27.6255,13.8229 27.1785,13.3759 26.6255,13.3759 L18.9315,13.3759 L18.9315,15.3759 L25.6255,15.3759 L25.6255,23.8759 L18.7505,23.8759 L18.7505,25.8759 L25.6255,25.8759 L25.6255,34.3769 L18.9315,34.3769 L18.9315,36.3769 L26.6255,36.3769 C27.1785,36.3769 27.6255,35.9299 27.6255,35.3769 L27.6255,25.8759 L35.2515,25.8759 L35.2515,29.2519 C35.2515,29.6559 35.4955,30.0219 35.8685,30.1759 C35.9925,30.2279 36.1225,30.2519 36.2515,30.2519 C36.5115,30.2519 36.7675,30.1499 36.9585,29.9589 L41.3335,25.5829 C41.7245,25.1919 41.7245,24.5599 41.3335,24.1689 L41.3335,24.1689 Z M13.6255,26.2959 L13.6255,23.4569 L15.3995,24.8759 L13.6255,26.2959 Z M13.2505,20.5949 C12.9495,20.3539 12.5365,20.3079 12.1915,20.4749 C11.8465,20.6419 11.6255,20.9909 11.6255,21.3759 L11.6255,28.3769 C11.6255,28.7619 11.8465,29.1109 12.1915,29.2779 C12.3305,29.3449 12.4785,29.3769 12.6255,29.3769 C12.8485,29.3769 13.0695,29.3029 13.2505,29.1579 L17.6255,25.6569 C17.8625,25.4669 18.0005,25.1799 18.0005,24.8759 C18.0005,24.5719 17.8625,24.2849 17.6255,24.0949 L13.2505,20.5949 Z M13.6255,15.7949 L13.6255,12.9569 L15.3995,14.3759 L13.6255,15.7949 Z M13.2505,10.0949 C12.9495,9.8539 12.5365,9.8069 12.1915,9.9749 C11.8465,10.1419 11.6255,10.4909 11.6255,10.8759 L11.6255,17.8759 C11.6255,18.2609 11.8465,18.6099 12.1915,18.7769 C12.3305,18.8439 12.4785,18.8759 12.6255,18.8759 C12.8485,18.8759 13.0695,18.8019 13.2505,18.6569 L17.6255,15.1569 C17.8625,14.9669 18.0005,14.6799 18.0005,14.3759 C18.0005,14.0719 17.8625,13.7849 17.6255,13.5949 L13.2505,10.0949 Z M24.0005,44.0029 C12.9725,44.0029 3.9995,35.0299 3.9995,24.0009 C3.9995,12.9729 12.9725,3.9999 24.0005,3.9999 C35.0295,3.9999 44.0025,12.9729 44.0025,24.0009 C44.0025,35.0299 35.0295,44.0029 24.0005,44.0029 L24.0005,44.0029 Z M24.0005,1.9999 C11.8685,1.9999 1.9995,11.8689 1.9995,24.0009 C1.9995,36.1329 11.8685,46.0029 24.0005,46.0029 C36.1325,46.0029 46.0025,36.1329 46.0025,24.0009 C46.0025,11.8689 36.1325,1.9999 24.0005,1.9999 L24.0005,1.9999 Z" id="AWS-Amazon-VPC_NAT-gateway_Resource-Icon_light-bg" fill="#8C4FFF"></path>
</g></svg></g>
      <rect x="8" y="78" width="92" height="3"
            rx="1.5" ry="1.5" fill="#8C4FFF"/>
      <text x="54" y="74" text-anchor="middle"
            font-family="Inter, system-ui, sans-serif" font-size="11" font-weight="700"
            fill="#1E293B">NAT GW</text>
      <text x="54" y="100" text-anchor="middle" font-family="Inter, system-ui, sans-serif" font-size="10" fill="#64748B" font-weight="500">AZ 1a</text>
    </g>
<g id="svc-nat-c" transform="translate(980, 305)">
      <rect x="0" y="0" width="108" height="82" rx="10" ry="10"
            fill="#ffffff" stroke="#CBD5E1" stroke-width="1"/>
      <defs><clipPath id="clip-nat-c"><rect x="36" y="6" width="36" height="36"/></clipPath></defs><g clip-path="url(#clip-nat-c)"><svg x="36" y="6" width="36" height="36" viewBox="0 0 48.0 48.0" preserveAspectRatio="xMidYMid meet" overflow="hidden"><title>Icon-Resource/Networking-and-Content-Delivery/Res_Amazon-VPC_NAT-Gateway_48</title>
<g id="Icon-Resource/Networking-and-Content-Delivery/Res_Amazon-VPC_NAT-Gateway_48" stroke="none" stroke-width="1" fill="none" fill-rule="evenodd">
    <path d="M13.6255,35.9209 L13.6255,33.0829 L15.3995,34.5019 L13.6255,35.9209 Z M13.2505,30.2209 C12.9495,29.9799 12.5365,29.9329 12.1915,30.1009 C11.8465,30.2679 11.6255,30.6169 11.6255,31.0019 L11.6255,38.0019 C11.6255,38.3869 11.8465,38.7359 12.1915,38.9029 C12.3305,38.9699 12.4785,39.0019 12.6255,39.0019 C12.8485,39.0019 13.0695,38.9279 13.2505,38.7829 L17.6255,35.2829 C17.8625,35.0929 18.0005,34.8059 18.0005,34.5019 C18.0005,34.1979 17.8625,33.9109 17.6255,33.7209 L13.2505,30.2209 Z M37.2515,26.8369 L37.2515,22.9149 L39.2125,24.8759 L37.2515,26.8369 Z M41.3335,24.1689 L36.9585,19.7939 C36.6725,19.5079 36.2445,19.4219 35.8685,19.5769 C35.4945,19.7319 35.2515,20.0969 35.2515,20.5009 L35.2515,23.8759 L27.6255,23.8759 L27.6255,14.3759 C27.6255,13.8229 27.1785,13.3759 26.6255,13.3759 L18.9315,13.3759 L18.9315,15.3759 L25.6255,15.3759 L25.6255,23.8759 L18.7505,23.8759 L18.7505,25.8759 L25.6255,25.8759 L25.6255,34.3769 L18.9315,34.3769 L18.9315,36.3769 L26.6255,36.3769 C27.1785,36.3769 27.6255,35.9299 27.6255,35.3769 L27.6255,25.8759 L35.2515,25.8759 L35.2515,29.2519 C35.2515,29.6559 35.4955,30.0219 35.8685,30.1759 C35.9925,30.2279 36.1225,30.2519 36.2515,30.2519 C36.5115,30.2519 36.7675,30.1499 36.9585,29.9589 L41.3335,25.5829 C41.7245,25.1919 41.7245,24.5599 41.3335,24.1689 L41.3335,24.1689 Z M13.6255,26.2959 L13.6255,23.4569 L15.3995,24.8759 L13.6255,26.2959 Z M13.2505,20.5949 C12.9495,20.3539 12.5365,20.3079 12.1915,20.4749 C11.8465,20.6419 11.6255,20.9909 11.6255,21.3759 L11.6255,28.3769 C11.6255,28.7619 11.8465,29.1109 12.1915,29.2779 C12.3305,29.3449 12.4785,29.3769 12.6255,29.3769 C12.8485,29.3769 13.0695,29.3029 13.2505,29.1579 L17.6255,25.6569 C17.8625,25.4669 18.0005,25.1799 18.0005,24.8759 C18.0005,24.5719 17.8625,24.2849 17.6255,24.0949 L13.2505,20.5949 Z M13.6255,15.7949 L13.6255,12.9569 L15.3995,14.3759 L13.6255,15.7949 Z M13.2505,10.0949 C12.9495,9.8539 12.5365,9.8069 12.1915,9.9749 C11.8465,10.1419 11.6255,10.4909 11.6255,10.8759 L11.6255,17.8759 C11.6255,18.2609 11.8465,18.6099 12.1915,18.7769 C12.3305,18.8439 12.4785,18.8759 12.6255,18.8759 C12.8485,18.8759 13.0695,18.8019 13.2505,18.6569 L17.6255,15.1569 C17.8625,14.9669 18.0005,14.6799 18.0005,14.3759 C18.0005,14.0719 17.8625,13.7849 17.6255,13.5949 L13.2505,10.0949 Z M24.0005,44.0029 C12.9725,44.0029 3.9995,35.0299 3.9995,24.0009 C3.9995,12.9729 12.9725,3.9999 24.0005,3.9999 C35.0295,3.9999 44.0025,12.9729 44.0025,24.0009 C44.0025,35.0299 35.0295,44.0029 24.0005,44.0029 L24.0005,44.0029 Z M24.0005,1.9999 C11.8685,1.9999 1.9995,11.8689 1.9995,24.0009 C1.9995,36.1329 11.8685,46.0029 24.0005,46.0029 C36.1325,46.0029 46.0025,36.1329 46.0025,24.0009 C46.0025,11.8689 36.1325,1.9999 24.0005,1.9999 L24.0005,1.9999 Z" id="AWS-Amazon-VPC_NAT-gateway_Resource-Icon_light-bg" fill="#8C4FFF"></path>
</g></svg></g>
      <rect x="8" y="78" width="92" height="3"
            rx="1.5" ry="1.5" fill="#8C4FFF"/>
      <text x="54" y="74" text-anchor="middle"
            font-family="Inter, system-ui, sans-serif" font-size="11" font-weight="700"
            fill="#1E293B">NAT GW</text>
      <text x="54" y="100" text-anchor="middle" font-family="Inter, system-ui, sans-serif" font-size="10" fill="#64748B" font-weight="500">AZ 1c</text>
    </g>
<g id="svc-ec2-a" transform="translate(480, 445)">
      <rect x="0" y="0" width="108" height="82" rx="10" ry="10"
            fill="#ffffff" stroke="#CBD5E1" stroke-width="1"/>
      <defs><clipPath id="clip-ec2-a"><rect x="36" y="6" width="36" height="36"/></clipPath></defs><g clip-path="url(#clip-ec2-a)"><svg x="36" y="6" width="36" height="36" viewBox="0 0 80.0 80.0" preserveAspectRatio="xMidYMid meet" overflow="hidden"><title>Icon-Architecture/64/Arch_Amazon-EC2_64</title>
<g id="Icon-Architecture/64/Arch_Amazon-EC2_64" stroke="none" stroke-width="1" fill="none" fill-rule="evenodd">
    <g id="Icon-Architecture-BG/64/Compute" fill="#ED7100">
        <rect id="Rectangle" x="0" y="0" width="80" height="80"></rect>
    </g>
    <path d="M27,53 L52,53 L52,28 L27,28 L27,53 Z M54,28 L58,28 L58,30 L54,30 L54,34 L58,34 L58,36 L54,36 L54,39 L58,39 L58,41 L54,41 L54,45 L58,45 L58,47 L54,47 L54,51 L58,51 L58,53 L54,53 L54,53.136 C54,54.164 53.164,55 52.136,55 L52,55 L52,59 L50,59 L50,55 L46,55 L46,59 L44,59 L44,55 L41,55 L41,59 L39,59 L39,55 L35,55 L35,59 L33,59 L33,55 L29,55 L29,59 L27,59 L27,55 L26.864,55 C25.836,55 25,54.164 25,53.136 L25,53 L22,53 L22,51 L25,51 L25,47 L22,47 L22,45 L25,45 L25,41 L22,41 L22,39 L25,39 L25,36 L22,36 L22,34 L25,34 L25,30 L22,30 L22,28 L25,28 L25,27.864 C25,26.836 25.836,26 26.864,26 L27,26 L27,22 L29,22 L29,26 L33,26 L33,22 L35,22 L35,26 L39,26 L39,22 L41,22 L41,26 L44,26 L44,22 L46,22 L46,26 L50,26 L50,22 L52,22 L52,26 L52.136,26 C53.164,26 54,26.836 54,27.864 L54,28 Z M41,65.876 C41,65.944 40.944,66 40.876,66 L14.124,66 C14.056,66 14,65.944 14,65.876 L14,39.124 C14,39.056 14.056,39 14.124,39 L20,39 L20,37 L14.124,37 C12.953,37 12,37.953 12,39.124 L12,65.876 C12,67.047 12.953,68 14.124,68 L40.876,68 C42.047,68 43,67.047 43,65.876 L43,61 L41,61 L41,65.876 Z M68,14.124 L68,40.876 C68,42.047 67.047,43 65.876,43 L60,43 L60,41 L65.876,41 C65.944,41 66,40.944 66,40.876 L66,14.124 C66,14.056 65.944,14 65.876,14 L39.124,14 C39.056,14 39,14.056 39,14.124 L39,20 L37,20 L37,14.124 C37,12.953 37.953,12 39.124,12 L65.876,12 C67.047,12 68,12.953 68,14.124 L68,14.124 Z" id="Amazon-EC2_Icon_64_Squid" fill="#FFFFFF"></path>
</g></svg></g>
      <rect x="8" y="78" width="92" height="3"
            rx="1.5" ry="1.5" fill="#ED7100"/>
      <text x="54" y="74" text-anchor="middle"
            font-family="Inter, system-ui, sans-serif" font-size="11" font-weight="700"
            fill="#1E293B">EC2 + Nginx</text>
      <text x="54" y="100" text-anchor="middle" font-family="Inter, system-ui, sans-serif" font-size="10" fill="#64748B" font-weight="500">AL 2023 · SG</text>
    </g>
<g id="svc-ec2-c" transform="translate(980, 445)">
      <rect x="0" y="0" width="108" height="82" rx="10" ry="10"
            fill="#ffffff" stroke="#CBD5E1" stroke-width="1"/>
      <defs><clipPath id="clip-ec2-c"><rect x="36" y="6" width="36" height="36"/></clipPath></defs><g clip-path="url(#clip-ec2-c)"><svg x="36" y="6" width="36" height="36" viewBox="0 0 80.0 80.0" preserveAspectRatio="xMidYMid meet" overflow="hidden"><title>Icon-Architecture/64/Arch_Amazon-EC2_64</title>
<g id="Icon-Architecture/64/Arch_Amazon-EC2_64" stroke="none" stroke-width="1" fill="none" fill-rule="evenodd">
    <g id="Icon-Architecture-BG/64/Compute" fill="#ED7100">
        <rect id="Rectangle" x="0" y="0" width="80" height="80"></rect>
    </g>
    <path d="M27,53 L52,53 L52,28 L27,28 L27,53 Z M54,28 L58,28 L58,30 L54,30 L54,34 L58,34 L58,36 L54,36 L54,39 L58,39 L58,41 L54,41 L54,45 L58,45 L58,47 L54,47 L54,51 L58,51 L58,53 L54,53 L54,53.136 C54,54.164 53.164,55 52.136,55 L52,55 L52,59 L50,59 L50,55 L46,55 L46,59 L44,59 L44,55 L41,55 L41,59 L39,59 L39,55 L35,55 L35,59 L33,59 L33,55 L29,55 L29,59 L27,59 L27,55 L26.864,55 C25.836,55 25,54.164 25,53.136 L25,53 L22,53 L22,51 L25,51 L25,47 L22,47 L22,45 L25,45 L25,41 L22,41 L22,39 L25,39 L25,36 L22,36 L22,34 L25,34 L25,30 L22,30 L22,28 L25,28 L25,27.864 C25,26.836 25.836,26 26.864,26 L27,26 L27,22 L29,22 L29,26 L33,26 L33,22 L35,22 L35,26 L39,26 L39,22 L41,22 L41,26 L44,26 L44,22 L46,22 L46,26 L50,26 L50,22 L52,22 L52,26 L52.136,26 C53.164,26 54,26.836 54,27.864 L54,28 Z M41,65.876 C41,65.944 40.944,66 40.876,66 L14.124,66 C14.056,66 14,65.944 14,65.876 L14,39.124 C14,39.056 14.056,39 14.124,39 L20,39 L20,37 L14.124,37 C12.953,37 12,37.953 12,39.124 L12,65.876 C12,67.047 12.953,68 14.124,68 L40.876,68 C42.047,68 43,67.047 43,65.876 L43,61 L41,61 L41,65.876 Z M68,14.124 L68,40.876 C68,42.047 67.047,43 65.876,43 L60,43 L60,41 L65.876,41 C65.944,41 66,40.944 66,40.876 L66,14.124 C66,14.056 65.944,14 65.876,14 L39.124,14 C39.056,14 39,14.056 39,14.124 L39,20 L37,20 L37,14.124 C37,12.953 37.953,12 39.124,12 L65.876,12 C67.047,12 68,12.953 68,14.124 L68,14.124 Z" id="Amazon-EC2_Icon_64_Squid" fill="#FFFFFF"></path>
</g></svg></g>
      <rect x="8" y="78" width="92" height="3"
            rx="1.5" ry="1.5" fill="#ED7100"/>
      <text x="54" y="74" text-anchor="middle"
            font-family="Inter, system-ui, sans-serif" font-size="11" font-weight="700"
            fill="#1E293B">EC2 + Nginx</text>
      <text x="54" y="100" text-anchor="middle" font-family="Inter, system-ui, sans-serif" font-size="10" fill="#64748B" font-weight="500">AL 2023 · SG</text>
    </g>
<g id="svc-vpce-s3" transform="translate(1220, 445)">
      <rect x="0" y="0" width="108" height="82" rx="10" ry="10"
            fill="#ffffff" stroke="#CBD5E1" stroke-width="1"/>
      <defs><clipPath id="clip-vpce-s3"><rect x="36" y="6" width="36" height="36"/></clipPath></defs><g clip-path="url(#clip-vpce-s3)"><svg x="36" y="6" width="36" height="36" viewBox="0 0 48.0 48.0" preserveAspectRatio="xMidYMid meet" overflow="hidden"><title>Icon-Resource/Networking-and-Content-Delivery/Res_Amazon-VPC_Endpoints_48</title>
<g id="Icon-Resource/Networking-and-Content-Delivery/Res_Amazon-VPC_Endpoints_48" stroke="none" stroke-width="1" fill="none" fill-rule="evenodd">
    <path d="M20.6197,27.6015 L22.0337,29.0155 L26.3967,24.6515 C26.7877,24.2605 26.7877,23.6275 26.3967,23.2375 L22.0337,18.8735 L20.6197,20.2885 L23.2757,22.9445 L6.4907,22.9445 L6.4907,24.9445 L23.2767,24.9445 L20.6197,27.6015 Z M43.8897,23.9445 C43.8897,12.9475 34.9417,3.9995 23.9447,3.9995 C12.9467,3.9995 3.9997,12.9475 3.9997,23.9445 C3.9997,34.9425 12.9467,43.8895 23.9447,43.8895 C34.9417,43.8895 43.8897,34.9425 43.8897,23.9445 L43.8897,23.9445 Z M45.8897,23.9445 C45.8897,36.0445 36.0457,45.8895 23.9447,45.8895 C11.8447,45.8895 1.9997,36.0445 1.9997,23.9445 C1.9997,11.8435 11.8447,1.9995 23.9447,1.9995 C36.0457,1.9995 45.8897,11.8435 45.8897,23.9445 L45.8897,23.9445 Z M15.9627,26.5625 L15.9627,27.0165 C15.9627,27.0765 15.9677,27.1355 15.9777,27.1945 C16.0417,27.5435 17.5967,35.7575 23.9447,35.7575 C30.2927,35.7575 31.8477,27.5435 31.9107,27.1945 C31.9217,27.1355 31.9267,27.0765 31.9267,27.0165 L31.9267,16.4655 C31.9267,16.0575 31.6787,15.6905 31.2997,15.5385 L24.3177,12.7275 C24.0797,12.6315 23.8097,12.6315 23.5717,12.7275 L16.5897,15.5385 C16.2107,15.6905 15.9627,16.0575 15.9627,16.4655 L15.9627,21.3265 L17.9627,21.3265 L17.9627,17.1415 L23.9447,14.7335 L29.9267,17.1415 L29.9267,26.9175 C29.7647,27.6895 28.3467,33.7575 23.9447,33.7575 C19.5427,33.7575 18.1247,27.6895 17.9627,26.9175 L17.9627,26.5625 L15.9627,26.5625 Z M35.4167,13.3245 L35.4167,26.6755 C35.4167,31.2075 33.0187,39.7805 23.9447,39.7805 C19.2227,39.7805 15.7337,37.3375 13.8537,32.7165 C12.8547,30.2675 12.5767,27.8485 12.5007,26.6245 L14.4967,26.4995 C14.5527,27.3865 14.7807,29.6945 15.7067,31.9615 C17.2767,35.8235 20.0487,37.7805 23.9447,37.7805 C33.2797,37.7805 33.4157,27.1275 33.4167,26.6745 L33.4167,13.9995 L23.9447,10.1865 L14.4727,13.9995 L14.4727,21.3265 L12.4727,21.3265 L12.4727,13.3245 C12.4727,12.9155 12.7207,12.5485 13.0987,12.3965 L23.5717,8.1805 C23.8097,8.0845 24.0797,8.0845 24.3177,8.1805 L34.7897,12.3965 C35.1687,12.5485 35.4167,12.9155 35.4167,13.3245 L35.4167,13.3245 Z" id="AWS-Amazon-VPC_Endpoints_Resource-Icon_light-bg" fill="#8C4FFF"></path>
</g></svg></g>
      <rect x="8" y="78" width="92" height="3"
            rx="1.5" ry="1.5" fill="#8C4FFF"/>
      <text x="54" y="74" text-anchor="middle"
            font-family="Inter, system-ui, sans-serif" font-size="11" font-weight="700"
            fill="#1E293B">S3 VPC Endpoint</text>
      <text x="54" y="100" text-anchor="middle" font-family="Inter, system-ui, sans-serif" font-size="10" fill="#64748B" font-weight="500">gateway</text>
    </g>
<g id="svc-rds-a" transform="translate(480, 585)">
      <rect x="0" y="0" width="108" height="82" rx="10" ry="10"
            fill="#ffffff" stroke="#CBD5E1" stroke-width="1"/>
      <defs><clipPath id="clip-rds-a"><rect x="36" y="6" width="36" height="36"/></clipPath></defs><g clip-path="url(#clip-rds-a)"><svg x="36" y="6" width="36" height="36" viewBox="0 0 80.0 80.0" preserveAspectRatio="xMidYMid meet" overflow="hidden"><title>Icon-Architecture/64/Arch_Amazon-RDS_64</title>
<g id="Icon-Architecture/64/Arch_Amazon-RDS_64" stroke="none" stroke-width="1" fill="none" fill-rule="evenodd">
    <g id="Icon-Architecture-BG/64/Database" fill="#C925D1">
        <rect id="Rectangle" x="0" y="0" width="80" height="80"></rect>
    </g>
    <path d="M15.414,14 L24.707,23.293 L23.293,24.707 L14,15.414 L14,23 L12,23 L12,13 C12,12.448 12.447,12 13,12 L23,12 L23,14 L15.414,14 Z M68,13 L68,23 L66,23 L66,15.414 L56.707,24.707 L55.293,23.293 L64.586,14 L57,14 L57,12 L67,12 C67.553,12 68,12.448 68,13 L68,13 Z M66,57 L68,57 L68,67 C68,67.552 67.553,68 67,68 L57,68 L57,66 L64.586,66 L55.293,56.707 L56.707,55.293 L66,64.586 L66,57 Z M65.5,39.213 C65.5,35.894 61.668,32.615 55.25,30.442 L55.891,28.548 C63.268,31.045 67.5,34.932 67.5,39.213 C67.5,43.495 63.268,47.383 55.89,49.879 L55.249,47.984 C61.668,45.812 65.5,42.534 65.5,39.213 L65.5,39.213 Z M14.556,39.213 C14.556,42.393 18.143,45.585 24.152,47.753 L23.473,49.634 C16.535,47.131 12.556,43.333 12.556,39.213 C12.556,35.094 16.535,31.296 23.473,28.792 L24.152,30.673 C18.143,32.842 14.556,36.034 14.556,39.213 L14.556,39.213 Z M24.707,56.707 L15.414,66 L23,66 L23,68 L13,68 C12.447,68 12,67.552 12,67 L12,57 L14,57 L14,64.586 L23.293,55.293 L24.707,56.707 Z M40,31.286 C32.854,31.286 29,29.44 29,28.686 C29,27.931 32.854,26.086 40,26.086 C47.145,26.086 51,27.931 51,28.686 C51,29.44 47.145,31.286 40,31.286 L40,31.286 Z M40.029,39.031 C33.187,39.031 29,37.162 29,36.145 L29,31.284 C31.463,32.643 35.832,33.286 40,33.286 C44.168,33.286 48.537,32.643 51,31.284 L51,36.145 C51,37.163 46.835,39.031 40.029,39.031 L40.029,39.031 Z M40.029,46.667 C33.187,46.667 29,44.798 29,43.781 L29,38.862 C31.431,40.291 35.742,41.031 40.029,41.031 C44.292,41.031 48.578,40.292 51,38.867 L51,43.781 C51,44.799 46.835,46.667 40.029,46.667 L40.029,46.667 Z M40,53.518 C32.883,53.518 29,51.605 29,50.622 L29,46.498 C31.431,47.927 35.742,48.667 40.029,48.667 C44.292,48.667 48.578,47.929 51,46.503 L51,50.622 C51,51.605 47.117,53.518 40,53.518 L40,53.518 Z M40,24.086 C33.739,24.086 27,25.525 27,28.686 L27,50.622 C27,53.836 33.54,55.518 40,55.518 C46.46,55.518 53,53.836 53,50.622 L53,28.686 C53,25.525 46.261,24.086 40,24.086 L40,24.086 Z" id="Amazon-RDS_Icon_64_Squid" fill="#FFFFFF"></path>
</g></svg></g>
      <rect x="8" y="78" width="92" height="3"
            rx="1.5" ry="1.5" fill="#C925D1"/>
      <text x="54" y="74" text-anchor="middle"
            font-family="Inter, system-ui, sans-serif" font-size="11" font-weight="700"
            fill="#1E293B">RDS MySQL</text>
      <text x="54" y="100" text-anchor="middle" font-family="Inter, system-ui, sans-serif" font-size="10" fill="#64748B" font-weight="500">Primary · KMS</text>
    </g>
<g id="svc-rds-c" transform="translate(980, 585)">
      <rect x="0" y="0" width="108" height="82" rx="10" ry="10"
            fill="#ffffff" stroke="#CBD5E1" stroke-width="1"/>
      <defs><clipPath id="clip-rds-c"><rect x="36" y="6" width="36" height="36"/></clipPath></defs><g clip-path="url(#clip-rds-c)"><svg x="36" y="6" width="36" height="36" viewBox="0 0 80.0 80.0" preserveAspectRatio="xMidYMid meet" overflow="hidden"><title>Icon-Architecture/64/Arch_Amazon-RDS_64</title>
<g id="Icon-Architecture/64/Arch_Amazon-RDS_64" stroke="none" stroke-width="1" fill="none" fill-rule="evenodd">
    <g id="Icon-Architecture-BG/64/Database" fill="#C925D1">
        <rect id="Rectangle" x="0" y="0" width="80" height="80"></rect>
    </g>
    <path d="M15.414,14 L24.707,23.293 L23.293,24.707 L14,15.414 L14,23 L12,23 L12,13 C12,12.448 12.447,12 13,12 L23,12 L23,14 L15.414,14 Z M68,13 L68,23 L66,23 L66,15.414 L56.707,24.707 L55.293,23.293 L64.586,14 L57,14 L57,12 L67,12 C67.553,12 68,12.448 68,13 L68,13 Z M66,57 L68,57 L68,67 C68,67.552 67.553,68 67,68 L57,68 L57,66 L64.586,66 L55.293,56.707 L56.707,55.293 L66,64.586 L66,57 Z M65.5,39.213 C65.5,35.894 61.668,32.615 55.25,30.442 L55.891,28.548 C63.268,31.045 67.5,34.932 67.5,39.213 C67.5,43.495 63.268,47.383 55.89,49.879 L55.249,47.984 C61.668,45.812 65.5,42.534 65.5,39.213 L65.5,39.213 Z M14.556,39.213 C14.556,42.393 18.143,45.585 24.152,47.753 L23.473,49.634 C16.535,47.131 12.556,43.333 12.556,39.213 C12.556,35.094 16.535,31.296 23.473,28.792 L24.152,30.673 C18.143,32.842 14.556,36.034 14.556,39.213 L14.556,39.213 Z M24.707,56.707 L15.414,66 L23,66 L23,68 L13,68 C12.447,68 12,67.552 12,67 L12,57 L14,57 L14,64.586 L23.293,55.293 L24.707,56.707 Z M40,31.286 C32.854,31.286 29,29.44 29,28.686 C29,27.931 32.854,26.086 40,26.086 C47.145,26.086 51,27.931 51,28.686 C51,29.44 47.145,31.286 40,31.286 L40,31.286 Z M40.029,39.031 C33.187,39.031 29,37.162 29,36.145 L29,31.284 C31.463,32.643 35.832,33.286 40,33.286 C44.168,33.286 48.537,32.643 51,31.284 L51,36.145 C51,37.163 46.835,39.031 40.029,39.031 L40.029,39.031 Z M40.029,46.667 C33.187,46.667 29,44.798 29,43.781 L29,38.862 C31.431,40.291 35.742,41.031 40.029,41.031 C44.292,41.031 48.578,40.292 51,38.867 L51,43.781 C51,44.799 46.835,46.667 40.029,46.667 L40.029,46.667 Z M40,53.518 C32.883,53.518 29,51.605 29,50.622 L29,46.498 C31.431,47.927 35.742,48.667 40.029,48.667 C44.292,48.667 48.578,47.929 51,46.503 L51,50.622 C51,51.605 47.117,53.518 40,53.518 L40,53.518 Z M40,24.086 C33.739,24.086 27,25.525 27,28.686 L27,50.622 C27,53.836 33.54,55.518 40,55.518 C46.46,55.518 53,53.836 53,50.622 L53,28.686 C53,25.525 46.261,24.086 40,24.086 L40,24.086 Z" id="Amazon-RDS_Icon_64_Squid" fill="#FFFFFF"></path>
</g></svg></g>
      <rect x="8" y="78" width="92" height="3"
            rx="1.5" ry="1.5" fill="#C925D1"/>
      <text x="54" y="74" text-anchor="middle"
            font-family="Inter, system-ui, sans-serif" font-size="11" font-weight="700"
            fill="#1E293B">RDS MySQL</text>
      <text x="54" y="100" text-anchor="middle" font-family="Inter, system-ui, sans-serif" font-size="10" fill="#64748B" font-weight="500">Standby · Multi-AZ</text>
    </g>
<g id="svc-s3" transform="translate(315, 760)">
      <rect x="0" y="0" width="100" height="82" rx="10" ry="10"
            fill="#ffffff" stroke="#CBD5E1" stroke-width="1"/>
      <defs><clipPath id="clip-s3"><rect x="32" y="6" width="36" height="36"/></clipPath></defs><g clip-path="url(#clip-s3)"><svg x="32" y="6" width="36" height="36" viewBox="0 0 80.0 80.0" preserveAspectRatio="xMidYMid meet" overflow="hidden"><title>Icon-Architecture/64/Arch_Amazon-Simple-Storage-Service_64</title>
<g id="Icon-Architecture/64/Arch_Amazon-Simple-Storage-Service_64" stroke="none" stroke-width="1" fill="none" fill-rule="evenodd">
    <g id="Icon-Architecture-BG/64/Storage" fill="#7AA116">
        <rect id="Rectangle" x="0" y="0" width="80" height="80"></rect>
    </g>
    <g id="Icon-Service/64/Amazon-Simple-Storage-Service_64" transform="translate(12.999900, 11.999600)" fill="#FFFFFF">
        <path d="M47.836,30.893 L48.22,28.189 C51.761,30.31 51.807,31.186 51.8060132,31.21 C51.8,31.215 51.196,31.719 47.836,30.893 L47.836,30.893 Z M45.893,30.353 C39.773,28.501 31.25,24.591 27.801,22.961 C27.801,22.947 27.805,22.934 27.805,22.92 C27.805,21.595 26.727,20.517 25.401,20.517 C24.077,20.517 22.999,21.595 22.999,22.92 C22.999,24.245 24.077,25.323 25.401,25.323 C25.983,25.323 26.511,25.106 26.928,24.761 C30.986,26.682 39.443,30.535 45.608,32.355 L43.17,49.561 C43.163,49.608 43.16,49.655 43.16,49.702 C43.16,51.217 36.453,54 25.494,54 C14.419,54 7.641,51.217 7.641,49.702 C7.641,49.656 7.638,49.611 7.632,49.566 L2.538,12.359 C6.947,15.394 16.43,17 25.5,17 C34.556,17 44.023,15.4 48.441,12.374 L45.893,30.353 Z M2,8.478 C2.072,7.162 9.634,2 25.5,2 C41.364,2 48.927,7.161 49,8.478 L49,8.927 C48.13,11.878 38.33,15 25.5,15 C12.648,15 2.843,11.868 2,8.913 L2,8.478 Z M51,8.5 C51,5.035 41.066,0 25.5,0 C9.934,0 0,5.035 0,8.5 L0.094,9.254 L5.642,49.778 C5.775,54.31 17.861,56 25.494,56 C34.966,56 45.029,53.822 45.159,49.781 L47.555,32.884 C48.888,33.203 49.985,33.366 50.866,33.366 C52.049,33.366 52.849,33.077 53.334,32.499 C53.732,32.025 53.884,31.451 53.77,30.84 C53.511,29.456 51.868,27.964 48.522,26.055 L50.898,9.293 L51,8.5 Z" id="Amazon-Simple-Storage-Service-Icon_64_Squid"></path>
    </g>
</g></svg></g>
      <rect x="8" y="78" width="84" height="3"
            rx="1.5" ry="1.5" fill="#7AA116"/>
      <text x="50" y="74" text-anchor="middle"
            font-family="Inter, system-ui, sans-serif" font-size="11" font-weight="700"
            fill="#1E293B">S3</text>
      <text x="50" y="100" text-anchor="middle" font-family="Inter, system-ui, sans-serif" font-size="10" fill="#64748B" font-weight="500">assets/logs</text>
    </g>
<g id="svc-cw" transform="translate(435, 760)">
      <rect x="0" y="0" width="100" height="82" rx="10" ry="10"
            fill="#ffffff" stroke="#CBD5E1" stroke-width="1"/>
      <defs><clipPath id="clip-cw"><rect x="32" y="6" width="36" height="36"/></clipPath></defs><g clip-path="url(#clip-cw)"><svg x="32" y="6" width="36" height="36" viewBox="0 0 80.0 80.0" preserveAspectRatio="xMidYMid meet" overflow="hidden"><title>Icon-Architecture/64/Arch_Amazon-CloudWatch_64</title>
<g id="Icon-Architecture/64/Arch_Amazon-CloudWatch_64" stroke="none" stroke-width="1" fill="none" fill-rule="evenodd">
    <g id="Icon-Architecture-BG/64/Management-Governance" fill="#E7157B">
        <rect id="Rectangle" x="0" y="0" width="80" height="80"></rect>
    </g>
    <path d="M55.0592315,46.7773707 C55.0592315,42.8680281 51.8575588,39.6876305 47.9220646,39.6876305 C43.9865705,39.6876305 40.785903,42.8680281 40.785903,46.7773707 C40.785903,50.6867133 43.9865705,53.8671108 47.9220646,53.8671108 C51.8575588,53.8671108 55.0592315,50.6867133 55.0592315,46.7773707 M57.0697011,46.7773707 C57.0697011,51.7881194 52.9663327,55.8642207 47.9220646,55.8642207 C42.8788018,55.8642207 38.7754334,51.7881194 38.7754334,46.7773707 C38.7754334,41.7666219 42.8788018,37.6905206 47.9220646,37.6905206 C52.9663327,37.6905206 57.0697011,41.7666219 57.0697011,46.7773707 M65.5096522,60.4735504 L58.5011554,54.2026253 C57.9352082,54.9944794 57.2808004,55.7174332 56.5540156,56.3634982 L63.5524601,62.6334248 C64.1495696,63.1686502 65.0784065,63.1187225 65.6182176,62.5255808 C66.155013,61.9324392 66.1067617,61.010773 65.5096522,60.4735504 M47.9220646,57.6616197 C53.9645309,57.6616197 58.8801289,52.7786859 58.8801289,46.7773707 C58.8801289,40.7750569 53.9645309,35.8931217 47.9220646,35.8931217 C41.8806036,35.8931217 36.9650056,40.7750569 36.9650056,46.7773707 C36.9650056,52.7786859 41.8806036,57.6616197 47.9220646,57.6616197 M67.1119965,63.8626459 C66.4264264,64.6165549 65.47849,65 64.5285431,65 C63.7002296,65 62.8699057,64.708422 62.207456,64.1172774 L54.9305615,57.5987107 C52.9070239,58.8968321 50.505518,59.6587296 47.9220646,59.6587296 C40.7718297,59.6587296 34.9545361,53.8800921 34.9545361,46.7773707 C34.9545361,39.6746493 40.7718297,33.8960118 47.9220646,33.8960118 C55.0733048,33.8960118 60.8905985,39.6746493 60.8905985,46.7773707 C60.8905985,48.8154213 60.3990387,50.7366411 59.5465996,52.4511599 L66.8556616,58.9906963 C68.2750531,60.265851 68.3896499,62.4496907 67.1119965,63.8626459 M21.2803274,29.392529 C21.2803274,29.9117776 21.3124949,30.429029 21.3738143,30.9293051 C21.4089975,31.2138932 21.3205368,31.4984814 21.1295422,31.7131707 C20.9777518,31.8839236 20.7736891,31.9967603 20.550527,32.0347054 C18.0786547,32.6687878 14.0104695,34.5880104 14.0104695,40.3456782 C14.0104695,44.6933865 16.4240382,47.0929141 18.4495863,48.3411077 C19.1411878,48.7744806 19.9594489,49.0051468 20.8229456,49.0141338 L32.9450717,49.0251179 L32.9430613,51.0222278 L20.811888,51.0112437 C19.5664021,50.9982625 18.384246,50.6607509 17.3840374,50.0346569 C15.3765836,48.7974474 12,45.8896553 12,40.3456782 C12,33.66235 16.5999543,31.191925 19.3000149,30.319188 C19.2799102,30.0116331 19.2698579,29.702081 19.2698579,29.392529 C19.2698579,23.9324305 22.9982737,18.2696254 27.9420183,16.2215892 C33.7241287,13.8150717 39.8500294,15.0083449 44.3263399,19.4109737 C45.7135638,20.7749998 46.8545053,22.4316024 47.7300648,24.3478294 C48.9061895,23.3802296 50.355738,22.8460027 51.8836949,22.8460027 C54.8863312,22.8460027 58.2659305,25.1097268 58.8680661,30.0605622 C61.6797078,30.7046302 67.6206453,32.9553731 67.6206453,40.422567 C67.6206453,43.4042521 66.6797455,45.8666886 64.8230769,47.7419748 L63.3896121,46.3410022 C64.8632863,44.8531553 65.6101757,42.8620367 65.6101757,40.422567 C65.6101757,33.891019 60.1055101,32.2663701 57.737177,31.8719409 C57.4677741,31.827006 57.2295334,31.6752256 57.0757325,31.4515493 C56.9259525,31.2358614 56.8686541,30.9712444 56.9138897,30.7146157 C56.5851779,26.6604826 54.1605516,24.8431126 51.8836949,24.8431126 C50.4472144,24.8431126 49.1001998,25.5381069 48.1874466,26.7503526 C47.9652897,27.0439277 47.6044105,27.193711 47.2344841,27.139789 C46.8695838,27.085867 46.5629872,26.8362283 46.4373329,26.4917268 C45.6140456,24.2260057 44.4278686,22.3207628 42.9119745,20.8309188 C39.0327735,17.0154404 33.7281496,15.9809374 28.7170543,18.0649216 C24.5463352,19.7924217 21.2803274,24.7672224 21.2803274,29.392529" id="Amazon-CloudWatch_Icon_64_Squid" fill="#FFFFFF"></path>
</g></svg></g>
      <rect x="8" y="78" width="84" height="3"
            rx="1.5" ry="1.5" fill="#E7157B"/>
      <text x="50" y="74" text-anchor="middle"
            font-family="Inter, system-ui, sans-serif" font-size="11" font-weight="700"
            fill="#1E293B">CloudWatch</text>
      <text x="50" y="100" text-anchor="middle" font-family="Inter, system-ui, sans-serif" font-size="10" fill="#64748B" font-weight="500">Logs/Alarm</text>
    </g>
<g id="svc-sns" transform="translate(555, 760)">
      <rect x="0" y="0" width="100" height="82" rx="10" ry="10"
            fill="#ffffff" stroke="#CBD5E1" stroke-width="1"/>
      <defs><clipPath id="clip-sns"><rect x="32" y="6" width="36" height="36"/></clipPath></defs><g clip-path="url(#clip-sns)"><svg x="32" y="6" width="36" height="36" viewBox="0 0 80.0 80.0" preserveAspectRatio="xMidYMid meet" overflow="hidden"><title>Icon-Architecture/64/Arch_Amazon-Simple-Notification-Service_64</title>
<g id="Icon-Architecture/64/Arch_Amazon-Simple-Notification-Service_64" stroke="none" stroke-width="1" fill="none" fill-rule="evenodd">
    <g id="Icon-Architecture-BG/64/Application-Integration" fill="#E7157B">
        <rect id="Rectangle" x="0" y="0" width="80" height="80"></rect>
    </g>
    <path d="M17,38 C18.103,38 19,38.897 19,40 C19,41.103 18.103,42 17,42 C15.897,42 15,41.103 15,40 C15,38.897 15.897,38 17,38 L17,38 Z M41,64 C29.314,64 19.289,55.466 17.194,43.98 C18.965,43.894 20.427,42.659 20.857,41 L27,41 L27,39 L20.857,39 C20.427,37.342 18.966,36.107 17.195,36.02 C19.285,24.71 29.511,16 41,16 C45.313,16 49.832,17.622 54.429,20.821 L55.571,19.179 C50.633,15.743 45.73,14 41,14 C28.27,14 16.949,23.865 15.063,36.521 C13.839,37.207 13,38.5 13,40 C13,41.5 13.839,42.793 15.063,43.478 C16.97,56.341 28.056,66 41,66 C46.407,66 51.942,64.157 56.585,60.811 L55.415,59.189 C51.11,62.292 45.991,64 41,64 L41,64 Z M30.101,36.442 C31.955,36.895 34.275,37 36,37 C37.642,37 39.823,36.905 41.629,36.506 L37.105,45.553 C37.036,45.691 37,45.845 37,46 L37,50.453 C36.199,50.964 34.833,51.812 34,51.986 L34,46 C34,45.868 33.974,45.737 33.923,45.615 L30.101,36.442 Z M36,33 C40.025,33 42.174,33.604 42.841,34 C42.174,34.396 40.025,35 36,35 C31.975,35 29.826,34.396 29.159,34 C29.826,33.604 31.975,33 36,33 L36,33 Z M33,54 L34,54 C34.043,54 34.086,53.997 34.128,53.992 C35.352,53.833 36.909,52.887 38.272,52.013 L38.535,51.845 C38.824,51.661 39,51.342 39,51 L39,46.236 L44.559,35.12 C44.833,34.801 45,34.434 45,34 C45,31.39 39.361,31 36,31 C32.639,31 27,31.39 27,34 C27,34.366 27.12,34.684 27.32,34.967 L32,46.2 L32,53 C32,53.552 32.447,54 33,54 L33,54 Z M62,53 C63.103,53 64,53.897 64,55 C64,56.103 63.103,57 62,57 C60.897,57 60,56.103 60,55 C60,53.897 60.897,53 62,53 L62,53 Z M62,23 C63.103,23 64,23.897 64,25 C64,26.103 63.103,27 62,27 C60.897,27 60,26.103 60,25 C60,23.897 60.897,23 62,23 L62,23 Z M64,38 C65.103,38 66,38.897 66,40 C66,41.103 65.103,42 64,42 C62.897,42 62,41.103 62,40 C62,38.897 62.897,38 64,38 L64,38 Z M54,41 L60.143,41 C60.589,42.72 62.142,44 64,44 C66.206,44 68,42.206 68,40 C68,37.794 66.206,36 64,36 C62.142,36 60.589,37.28 60.143,39 L54,39 L54,26 L58.143,26 C58.589,27.72 60.142,29 62,29 C64.206,29 66,27.206 66,25 C66,22.794 64.206,21 62,21 C60.142,21 58.589,22.28 58.143,24 L53,24 C52.447,24 52,24.448 52,25 L52,39 L45,39 L45,41 L52,41 L52,55 C52,55.552 52.447,56 53,56 L58.143,56 C58.589,57.72 60.142,59 62,59 C64.206,59 66,57.206 66,55 C66,52.794 64.206,51 62,51 C60.142,51 58.589,52.28 58.143,54 L54,54 L54,41 Z" id="AWS-Simple-Notification-Service_Icon_64_Squid" fill="#FFFFFF"></path>
</g></svg></g>
      <rect x="8" y="78" width="84" height="3"
            rx="1.5" ry="1.5" fill="#E7157B"/>
      <text x="50" y="74" text-anchor="middle"
            font-family="Inter, system-ui, sans-serif" font-size="11" font-weight="700"
            fill="#1E293B">SNS topic</text>
      <text x="50" y="100" text-anchor="middle" font-family="Inter, system-ui, sans-serif" font-size="10" fill="#64748B" font-weight="500">ops-alerts</text>
    </g>
<g id="svc-ssm-sess" transform="translate(675, 760)">
      <rect x="0" y="0" width="100" height="82" rx="10" ry="10"
            fill="#ffffff" stroke="#CBD5E1" stroke-width="1"/>
      <defs><clipPath id="clip-ssm-sess"><rect x="32" y="6" width="36" height="36"/></clipPath></defs><g clip-path="url(#clip-ssm-sess)"><svg x="32" y="6" width="36" height="36" viewBox="0 0 80.0 80.0" preserveAspectRatio="xMidYMid meet" overflow="hidden"><title>Icon-Architecture/64/Arch_AWS-Systems-Manager_64</title>
<g id="Icon-Architecture/64/Arch_AWS-Systems-Manager_64" stroke="none" stroke-width="1" fill="none" fill-rule="evenodd">
    <g id="Icon-Architecture-BG/64/Management-Governance" fill="#E7157B">
        <rect id="Rectangle" x="0" y="0" width="80" height="80"></rect>
    </g>
    <path d="M47,54.998059 L60,54.998059 L60,56.9983576 L47,56.9983576 L47,58.9986562 L45,58.9986562 L45,56.9983576 L41,56.9983576 L41,54.998059 L45,54.998059 L45,53.9979097 L47,53.9979097 L47,54.998059 Z M51,48.9971632 L60,48.9971632 L60,50.9974618 L51,50.9974618 L51,52.9977604 L49,52.9977604 L49,50.9974618 L41,50.9974618 L41,48.9971632 L49,48.9971632 L49,47.9970139 L51,47.9970139 L51,48.9971632 Z M56,42.9962674 L60,42.9962674 L60,44.996566 L56,44.996566 L56,46.9968646 L54,46.9968646 L54,44.996566 L41,44.996566 L41,42.9962674 L54,42.9962674 L54,41.9961181 L56,41.9961181 L56,42.9962674 Z M21,46.9968646 L30,46.9968646 L30,48.9971632 L21,48.9971632 C19.745,48.9971632 18.404,48.6201069 17.413,47.9890127 C15.393,46.7098217 12,43.7153747 12,38.0415277 C12,31.1605005 16.665,28.6351235 19.38,27.7499913 L19.326,26.8338546 C19.324,21.1660085 23.074,15.3541409 28.046,13.2568278 C33.869,10.7814582 40.036,12.0076413 44.545,16.5373175 C45.944,17.9385267 47.096,19.6477818 47.978,21.6310779 C49.749,20.1558577 52.16,19.6507823 54.4,20.385892 C57.247,21.3200315 59.019,23.9514243 59.227,27.4939531 C62.065,28.1730545 68,30.5084031 68,38.1315411 C68,38.4165837 67.989,38.6916247 67.978,38.954664 L65.979,38.9016561 C65.989,38.6346162 66,38.3885795 66,38.1315411 C66,31.3975359 60.443,29.7062834 58.054,29.2922216 C57.784,29.2452146 57.546,29.0911916 57.394,28.8641577 C57.243,28.6391241 57.19,28.3630829 57.246,28.0980433 C57.217,25.1165982 55.956,23.0012824 53.776,22.2861757 C51.823,21.6430797 49.677,22.3521855 48.434,24.0444382 C48.214,24.3414825 47.853,24.4965057 47.482,24.4404973 C47.116,24.3874894 46.81,24.1354518 46.686,23.7863996 C45.853,21.4430498 44.656,19.4797567 43.129,17.9505284 C39.216,14.0189415 33.867,12.9547827 28.826,15.0991028 C24.618,16.8733676 21.324,22.0021333 21.324,26.7748458 L21.423,28.4290927 C21.451,28.9071641 21.136,29.3382284 20.671,29.4562461 C18.18,30.0903407 14,32.0486331 14,38.0415277 C14,42.5211964 16.438,45.0045672 18.485,46.2997605 C19.16,46.7308249 20.123,46.9968646 21,46.9968646 L21,46.9968646 Z M66,52.3176589 L64.236,52.2166438 C63.763,52.1916401 63.312,52.5176887 63.204,52.9957601 C62.866,54.4939838 62.278,55.9141958 61.456,57.2163902 C61.195,57.630452 61.271,58.1715328 61.637,58.4975814 L62.954,59.6717567 L59.673,62.9542468 L58.502,61.6410507 C58.176,61.2739959 57.633,61.1999849 57.222,61.4610238 C55.92,62.2831466 54.499,62.8722345 52.997,63.2112851 C52.521,63.3193012 52.191,63.7563665 52.22,64.2444394 L52.32,65.9997014 L47.68,65.9997014 L47.78,64.2424391 C47.809,63.7543662 47.479,63.317301 47.003,63.2092848 C45.505,62.8712344 44.084,62.2811463 42.78,61.4580234 C42.367,61.1959843 41.825,61.2709955 41.5,61.6380503 L40.326,62.9532466 L37.046,59.6717567 L38.361,58.4995817 C38.726,58.1735331 38.802,57.6324523 38.541,57.2193906 C37.72,55.9171962 37.132,54.4969842 36.794,52.9957601 C36.687,52.5176887 36.209,52.1916401 35.762,52.2166438 L34,52.3176589 L34,47.6769661 L35.768,47.7779812 C36.233,47.8039851 36.691,47.4769362 36.8,46.999865 C37.139,45.5046418 37.728,44.0864301 38.55,42.7852359 C38.811,42.371174 38.734,41.8290931 38.37,41.5040446 L37.046,40.3228683 L40.327,37.0413784 L41.508,38.3645759 C41.834,38.7286303 42.376,38.8036415 42.787,38.5436027 C44.087,37.7244804 45.505,37.1373927 47.003,36.7993423 C47.479,36.6913261 47.809,36.2542609 47.78,35.766188 L47.68,33.9949236 L52.32,33.9949236 L52.22,35.7681883 C52.191,36.2562612 52.521,36.6923263 52.997,36.8003424 C54.492,37.139393 55.909,37.7264807 57.211,38.5466031 C57.622,38.8076421 58.165,38.7316307 58.49,38.3675764 L59.673,37.0413784 L62.954,40.3228683 L61.633,41.5010441 C61.269,41.8270928 61.192,42.3681736 61.453,42.7822354 C62.275,44.0834297 62.864,45.5026415 63.202,46.999865 C63.31,47.4759361 63.763,47.8039851 64.234,47.7779812 L66,47.6769661 L66,52.3176589 Z M66.943,45.619659 L64.942,45.733676 C64.617,44.5885051 64.16,43.4873407 63.579,42.4451851 L65.076,41.1099858 C65.281,40.9269584 65.402,40.6679198 65.41,40.3918786 C65.418,40.1178377 65.312,39.8507978 65.117,39.6567688 L60.339,34.8780554 C60.145,34.6830263 59.868,34.5710096 59.604,34.5860118 C59.328,34.594013 59.069,34.714031 58.886,34.9190616 L57.546,36.4212858 C56.505,35.8411992 55.406,35.3861313 54.263,35.0600826 L54.377,33.0517828 C54.393,32.7767418 54.295,32.5077016 54.105,32.3076717 C53.917,32.1076419 53.654,31.994625 53.379,31.994625 L46.621,31.994625 C46.346,31.994625 46.083,32.1076419 45.895,32.3076717 C45.705,32.5077016 45.607,32.7767418 45.623,33.0517828 L45.737,35.0580823 C44.592,35.3831308 43.492,35.8391989 42.452,36.4182854 L41.114,34.9190616 C40.931,34.714031 40.672,34.594013 40.396,34.5860118 C40.113,34.5730099 39.855,34.6830263 39.661,34.8780554 L34.883,39.6567688 C34.688,39.8507978 34.582,40.1178377 34.59,40.3918786 C34.598,40.6669196 34.719,40.9269584 34.924,41.1099858 L36.424,42.4481855 C35.843,43.4903411 35.386,44.5895052 35.06,45.733676 L33.057,45.619659 C32.789,45.6016563 32.513,45.7026714 32.313,45.8906994 C32.113,46.0797277 32,46.3427669 32,46.617808 L32,53.376817 C32,53.6518581 32.113,53.9148973 32.313,54.1039255 C32.513,54.2919536 32.79,54.3899682 33.057,54.374966 L35.053,54.260949 C35.378,55.4091204 35.834,56.5112849 36.415,57.5544407 L34.924,58.8836391 C34.719,59.0666664 34.598,59.3267052 34.59,59.6017463 C34.582,59.8767873 34.688,60.1438272 34.883,60.3378562 L39.661,65.1165696 C39.855,65.3115987 40.138,65.4186146 40.396,65.4096133 C40.672,65.4016121 40.932,65.280594 41.114,65.0755634 L42.444,63.5833407 C43.487,64.1664277 44.59,64.6244961 45.736,64.9505448 L45.623,66.9428422 C45.607,67.2168831 45.705,67.4859233 45.895,67.6869533 C46.083,67.8869831 46.346,68 46.621,68 L53.379,68 C53.654,68 53.917,67.8869831 54.106,67.6869533 C54.295,67.4859233 54.393,67.2168831 54.377,66.9428422 L54.264,64.9525451 C55.412,64.6254962 56.515,64.168428 57.558,63.5863411 L58.886,65.0755634 C59.068,65.280594 59.328,65.4016121 59.604,65.4096133 C59.871,65.4216151 60.145,65.3115987 60.339,65.1165696 L65.117,60.3378562 C65.312,60.1438272 65.418,59.8767873 65.41,59.6017463 C65.402,59.3267052 65.281,59.0666664 65.075,58.8836391 L63.582,57.5524404 C64.163,56.5092846 64.619,55.4071201 64.945,54.260949 L66.943,54.374966 C67.213,54.3899682 67.487,54.2919536 67.687,54.1039255 C67.887,53.9148973 68,53.6518581 68,53.376817 L68,46.617808 C68,46.3427669 67.887,46.0797277 67.687,45.8906994 C67.487,45.7026714 67.214,45.6026564 66.943,45.619659 L66.943,45.619659 Z" id="AWS-Systems-Manager_Icon_64_Squid" fill="#FFFFFF"></path>
</g></svg></g>
      <rect x="8" y="78" width="84" height="3"
            rx="1.5" ry="1.5" fill="#E7157B"/>
      <text x="50" y="74" text-anchor="middle"
            font-family="Inter, system-ui, sans-serif" font-size="11" font-weight="700"
            fill="#1E293B">SSM Session</text>
      <text x="50" y="100" text-anchor="middle" font-family="Inter, system-ui, sans-serif" font-size="10" fill="#64748B" font-weight="500">bastion-less</text>
    </g>
<g id="svc-ssm-param" transform="translate(795, 760)">
      <rect x="0" y="0" width="100" height="82" rx="10" ry="10"
            fill="#ffffff" stroke="#CBD5E1" stroke-width="1"/>
      <defs><clipPath id="clip-ssm-param"><rect x="32" y="6" width="36" height="36"/></clipPath></defs><g clip-path="url(#clip-ssm-param)"><svg x="32" y="6" width="36" height="36" viewBox="0 0 80.0 80.0" preserveAspectRatio="xMidYMid meet" overflow="hidden"><title>Icon-Architecture/64/Arch_AWS-Systems-Manager_64</title>
<g id="Icon-Architecture/64/Arch_AWS-Systems-Manager_64" stroke="none" stroke-width="1" fill="none" fill-rule="evenodd">
    <g id="Icon-Architecture-BG/64/Management-Governance" fill="#E7157B">
        <rect id="Rectangle" x="0" y="0" width="80" height="80"></rect>
    </g>
    <path d="M47,54.998059 L60,54.998059 L60,56.9983576 L47,56.9983576 L47,58.9986562 L45,58.9986562 L45,56.9983576 L41,56.9983576 L41,54.998059 L45,54.998059 L45,53.9979097 L47,53.9979097 L47,54.998059 Z M51,48.9971632 L60,48.9971632 L60,50.9974618 L51,50.9974618 L51,52.9977604 L49,52.9977604 L49,50.9974618 L41,50.9974618 L41,48.9971632 L49,48.9971632 L49,47.9970139 L51,47.9970139 L51,48.9971632 Z M56,42.9962674 L60,42.9962674 L60,44.996566 L56,44.996566 L56,46.9968646 L54,46.9968646 L54,44.996566 L41,44.996566 L41,42.9962674 L54,42.9962674 L54,41.9961181 L56,41.9961181 L56,42.9962674 Z M21,46.9968646 L30,46.9968646 L30,48.9971632 L21,48.9971632 C19.745,48.9971632 18.404,48.6201069 17.413,47.9890127 C15.393,46.7098217 12,43.7153747 12,38.0415277 C12,31.1605005 16.665,28.6351235 19.38,27.7499913 L19.326,26.8338546 C19.324,21.1660085 23.074,15.3541409 28.046,13.2568278 C33.869,10.7814582 40.036,12.0076413 44.545,16.5373175 C45.944,17.9385267 47.096,19.6477818 47.978,21.6310779 C49.749,20.1558577 52.16,19.6507823 54.4,20.385892 C57.247,21.3200315 59.019,23.9514243 59.227,27.4939531 C62.065,28.1730545 68,30.5084031 68,38.1315411 C68,38.4165837 67.989,38.6916247 67.978,38.954664 L65.979,38.9016561 C65.989,38.6346162 66,38.3885795 66,38.1315411 C66,31.3975359 60.443,29.7062834 58.054,29.2922216 C57.784,29.2452146 57.546,29.0911916 57.394,28.8641577 C57.243,28.6391241 57.19,28.3630829 57.246,28.0980433 C57.217,25.1165982 55.956,23.0012824 53.776,22.2861757 C51.823,21.6430797 49.677,22.3521855 48.434,24.0444382 C48.214,24.3414825 47.853,24.4965057 47.482,24.4404973 C47.116,24.3874894 46.81,24.1354518 46.686,23.7863996 C45.853,21.4430498 44.656,19.4797567 43.129,17.9505284 C39.216,14.0189415 33.867,12.9547827 28.826,15.0991028 C24.618,16.8733676 21.324,22.0021333 21.324,26.7748458 L21.423,28.4290927 C21.451,28.9071641 21.136,29.3382284 20.671,29.4562461 C18.18,30.0903407 14,32.0486331 14,38.0415277 C14,42.5211964 16.438,45.0045672 18.485,46.2997605 C19.16,46.7308249 20.123,46.9968646 21,46.9968646 L21,46.9968646 Z M66,52.3176589 L64.236,52.2166438 C63.763,52.1916401 63.312,52.5176887 63.204,52.9957601 C62.866,54.4939838 62.278,55.9141958 61.456,57.2163902 C61.195,57.630452 61.271,58.1715328 61.637,58.4975814 L62.954,59.6717567 L59.673,62.9542468 L58.502,61.6410507 C58.176,61.2739959 57.633,61.1999849 57.222,61.4610238 C55.92,62.2831466 54.499,62.8722345 52.997,63.2112851 C52.521,63.3193012 52.191,63.7563665 52.22,64.2444394 L52.32,65.9997014 L47.68,65.9997014 L47.78,64.2424391 C47.809,63.7543662 47.479,63.317301 47.003,63.2092848 C45.505,62.8712344 44.084,62.2811463 42.78,61.4580234 C42.367,61.1959843 41.825,61.2709955 41.5,61.6380503 L40.326,62.9532466 L37.046,59.6717567 L38.361,58.4995817 C38.726,58.1735331 38.802,57.6324523 38.541,57.2193906 C37.72,55.9171962 37.132,54.4969842 36.794,52.9957601 C36.687,52.5176887 36.209,52.1916401 35.762,52.2166438 L34,52.3176589 L34,47.6769661 L35.768,47.7779812 C36.233,47.8039851 36.691,47.4769362 36.8,46.999865 C37.139,45.5046418 37.728,44.0864301 38.55,42.7852359 C38.811,42.371174 38.734,41.8290931 38.37,41.5040446 L37.046,40.3228683 L40.327,37.0413784 L41.508,38.3645759 C41.834,38.7286303 42.376,38.8036415 42.787,38.5436027 C44.087,37.7244804 45.505,37.1373927 47.003,36.7993423 C47.479,36.6913261 47.809,36.2542609 47.78,35.766188 L47.68,33.9949236 L52.32,33.9949236 L52.22,35.7681883 C52.191,36.2562612 52.521,36.6923263 52.997,36.8003424 C54.492,37.139393 55.909,37.7264807 57.211,38.5466031 C57.622,38.8076421 58.165,38.7316307 58.49,38.3675764 L59.673,37.0413784 L62.954,40.3228683 L61.633,41.5010441 C61.269,41.8270928 61.192,42.3681736 61.453,42.7822354 C62.275,44.0834297 62.864,45.5026415 63.202,46.999865 C63.31,47.4759361 63.763,47.8039851 64.234,47.7779812 L66,47.6769661 L66,52.3176589 Z M66.943,45.619659 L64.942,45.733676 C64.617,44.5885051 64.16,43.4873407 63.579,42.4451851 L65.076,41.1099858 C65.281,40.9269584 65.402,40.6679198 65.41,40.3918786 C65.418,40.1178377 65.312,39.8507978 65.117,39.6567688 L60.339,34.8780554 C60.145,34.6830263 59.868,34.5710096 59.604,34.5860118 C59.328,34.594013 59.069,34.714031 58.886,34.9190616 L57.546,36.4212858 C56.505,35.8411992 55.406,35.3861313 54.263,35.0600826 L54.377,33.0517828 C54.393,32.7767418 54.295,32.5077016 54.105,32.3076717 C53.917,32.1076419 53.654,31.994625 53.379,31.994625 L46.621,31.994625 C46.346,31.994625 46.083,32.1076419 45.895,32.3076717 C45.705,32.5077016 45.607,32.7767418 45.623,33.0517828 L45.737,35.0580823 C44.592,35.3831308 43.492,35.8391989 42.452,36.4182854 L41.114,34.9190616 C40.931,34.714031 40.672,34.594013 40.396,34.5860118 C40.113,34.5730099 39.855,34.6830263 39.661,34.8780554 L34.883,39.6567688 C34.688,39.8507978 34.582,40.1178377 34.59,40.3918786 C34.598,40.6669196 34.719,40.9269584 34.924,41.1099858 L36.424,42.4481855 C35.843,43.4903411 35.386,44.5895052 35.06,45.733676 L33.057,45.619659 C32.789,45.6016563 32.513,45.7026714 32.313,45.8906994 C32.113,46.0797277 32,46.3427669 32,46.617808 L32,53.376817 C32,53.6518581 32.113,53.9148973 32.313,54.1039255 C32.513,54.2919536 32.79,54.3899682 33.057,54.374966 L35.053,54.260949 C35.378,55.4091204 35.834,56.5112849 36.415,57.5544407 L34.924,58.8836391 C34.719,59.0666664 34.598,59.3267052 34.59,59.6017463 C34.582,59.8767873 34.688,60.1438272 34.883,60.3378562 L39.661,65.1165696 C39.855,65.3115987 40.138,65.4186146 40.396,65.4096133 C40.672,65.4016121 40.932,65.280594 41.114,65.0755634 L42.444,63.5833407 C43.487,64.1664277 44.59,64.6244961 45.736,64.9505448 L45.623,66.9428422 C45.607,67.2168831 45.705,67.4859233 45.895,67.6869533 C46.083,67.8869831 46.346,68 46.621,68 L53.379,68 C53.654,68 53.917,67.8869831 54.106,67.6869533 C54.295,67.4859233 54.393,67.2168831 54.377,66.9428422 L54.264,64.9525451 C55.412,64.6254962 56.515,64.168428 57.558,63.5863411 L58.886,65.0755634 C59.068,65.280594 59.328,65.4016121 59.604,65.4096133 C59.871,65.4216151 60.145,65.3115987 60.339,65.1165696 L65.117,60.3378562 C65.312,60.1438272 65.418,59.8767873 65.41,59.6017463 C65.402,59.3267052 65.281,59.0666664 65.075,58.8836391 L63.582,57.5524404 C64.163,56.5092846 64.619,55.4071201 64.945,54.260949 L66.943,54.374966 C67.213,54.3899682 67.487,54.2919536 67.687,54.1039255 C67.887,53.9148973 68,53.6518581 68,53.376817 L68,46.617808 C68,46.3427669 67.887,46.0797277 67.687,45.8906994 C67.487,45.7026714 67.214,45.6026564 66.943,45.619659 L66.943,45.619659 Z" id="AWS-Systems-Manager_Icon_64_Squid" fill="#FFFFFF"></path>
</g></svg></g>
      <rect x="8" y="78" width="84" height="3"
            rx="1.5" ry="1.5" fill="#E7157B"/>
      <text x="50" y="74" text-anchor="middle"
            font-family="Inter, system-ui, sans-serif" font-size="11" font-weight="700"
            fill="#1E293B">SSM Param</text>
      <text x="50" y="100" text-anchor="middle" font-family="Inter, system-ui, sans-serif" font-size="10" fill="#64748B" font-weight="500">DB secrets</text>
    </g>
<g id="svc-iam" transform="translate(915, 760)">
      <rect x="0" y="0" width="100" height="82" rx="10" ry="10"
            fill="#ffffff" stroke="#CBD5E1" stroke-width="1"/>
      <defs><clipPath id="clip-iam"><rect x="32" y="6" width="36" height="36"/></clipPath></defs><g clip-path="url(#clip-iam)"><svg x="32" y="6" width="36" height="36" viewBox="0 0 80.0 80.0" preserveAspectRatio="xMidYMid meet" overflow="hidden"><title>Icon-Architecture/64/Arch_AWS-Identity-and-Access-Management_64</title>
<g id="Icon-Architecture/64/Arch_AWS-Identity-and-Access-Management_64" stroke="none" stroke-width="1" fill="none" fill-rule="evenodd">
    <g id="Icon-Architecture-BG/64/Security-Identity-Compliance" fill="#DD344C">
        <rect id="Rectangle" x="0" y="0" width="80" height="80"></rect>
    </g>
    <path d="M14,59 L66,59 L66,21 L14,21 L14,59 Z M68,20 L68,60 C68,60.552 67.553,61 67,61 L13,61 C12.447,61 12,60.552 12,60 L12,20 C12,19.448 12.447,19 13,19 L67,19 C67.553,19 68,19.448 68,20 L68,20 Z M44,48 L59,48 L59,46 L44,46 L44,48 Z M57,42 L62,42 L62,40 L57,40 L57,42 Z M44,42 L52,42 L52,40 L44,40 L44,42 Z M29,46 C29,45.449 28.552,45 28,45 C27.448,45 27,45.449 27,46 C27,46.551 27.448,47 28,47 C28.552,47 29,46.551 29,46 L29,46 Z M31,46 C31,47.302 30.161,48.401 29,48.816 L29,51 L27,51 L27,48.815 C25.839,48.401 25,47.302 25,46 C25,44.346 26.346,43 28,43 C29.654,43 31,44.346 31,46 L31,46 Z M19,53.993 L36.994,54 L36.996,50 L33,50 L33,48 L36.996,48 L36.998,45 L33,45 L33,43 L36.999,43 L37,40.007 L19.006,40 L19,53.993 Z M22,38.001 L34,38.006 L34,31 C34.001,28.697 31.197,26.677 28,26.675 L27.996,26.675 C24.804,26.675 22.004,28.696 22.002,31 L22,38.001 Z M17,54.992 L17.006,39 C17.006,38.734 17.111,38.48 17.299,38.292 C17.486,38.105 17.741,38 18.006,38 L20,38.001 L20.002,31 C20.004,27.512 23.59,24.675 27.996,24.675 L28,24.675 C32.412,24.677 36.001,27.515 36,31 L36,38.007 L38,38.008 C38.553,38.008 39,38.456 39,39.008 L38.994,55 C38.994,55.266 38.889,55.52 38.701,55.708 C38.514,55.895 38.259,56 37.994,56 L18,55.992 C17.447,55.992 17,55.544 17,54.992 L17,54.992 Z M60,36 L62,36 L62,34 L60,34 L60,36 Z M44,36 L55,36 L55,34 L44,34 L44,36 Z" id="AWS-Identity-and-Access-Management_Icon_64_Squid" fill="#FFFFFF"></path>
</g></svg></g>
      <rect x="8" y="78" width="84" height="3"
            rx="1.5" ry="1.5" fill="#DD344C"/>
      <text x="50" y="74" text-anchor="middle"
            font-family="Inter, system-ui, sans-serif" font-size="11" font-weight="700"
            fill="#1E293B">IAM Role</text>
      <text x="50" y="100" text-anchor="middle" font-family="Inter, system-ui, sans-serif" font-size="10" fill="#64748B" font-weight="500">least-priv</text>
    </g>
<g id="svc-cfn" transform="translate(1035, 760)">
      <rect x="0" y="0" width="100" height="82" rx="10" ry="10"
            fill="#ffffff" stroke="#CBD5E1" stroke-width="1"/>
      <defs><clipPath id="clip-cfn"><rect x="32" y="6" width="36" height="36"/></clipPath></defs><g clip-path="url(#clip-cfn)"><svg x="32" y="6" width="36" height="36" viewBox="0 0 80.0 80.0" preserveAspectRatio="xMidYMid meet" overflow="hidden"><title>Icon-Architecture/64/Arch_AWS-CloudFormation_64</title>
<g id="Icon-Architecture/64/Arch_AWS-CloudFormation_64" stroke="none" stroke-width="1" fill="none" fill-rule="evenodd">
    <g id="Icon-Architecture-BG/64/Management-Governance" fill="#E7157B">
        <rect id="Rectangle" x="0" y="0" width="80" height="80"></rect>
    </g>
    <path d="M53,39.9632039 L58,39.9632039 L58,37.9601375 L53,37.9601375 L53,39.9632039 Z M28,51.9816019 L33,51.9816019 L33,49.9785356 L28,49.9785356 L28,51.9816019 Z M18,51.9816019 L25,51.9816019 L25,49.9785356 L18,49.9785356 L18,51.9816019 Z M18,45.9724029 L30,45.9724029 L30,43.9693366 L18,43.9693366 L18,45.9724029 Z M18,33.9540048 L27,33.9540048 L27,31.9509385 L18,31.9509385 L18,33.9540048 Z M18,39.9632039 L51,39.9632039 L51,37.9601375 L18,37.9601375 L18,39.9632039 Z M37,61.9969337 L14,61.9969337 L14,27.9448058 L37,27.9448058 L37,35.9570712 L39,35.9570712 L39,26.9432726 C39,26.3904263 38.552,25.9417395 38,25.9417395 L13,25.9417395 C12.447,25.9417395 12,26.3904263 12,26.9432726 L12,62.9984668 C12,63.5513131 12.447,64 13,64 L38,64 C38.552,64 39,63.5513131 39,62.9984668 L39,42.9678034 L37,42.9678034 L37,61.9969337 Z M68,36.9586044 C68,43.4305117 62.173,45.6819583 59.092,45.9683968 L43,45.9724029 L43,43.9693366 L59,43.9693366 C59.195,43.9463013 66,43.2121775 66,36.9586044 C66,31.2638867 60.863,30.1081175 59.834,29.9338507 C59.321,29.8467173 58.96,29.3820059 59.004,28.8632117 C59.005,28.8441826 59.007,28.826155 59.009,28.8081274 C58.954,25.5902013 56.981,24.584662 56.126,24.3002266 C54.53,23.769414 52.751,24.2771913 51.81,25.5391231 C51.591,25.8355769 51.229,25.9868085 50.861,25.9307226 C50.497,25.8756383 50.192,25.625255 50.068,25.2767214 C49.447,23.5360568 48.546,22.4083304 47.293,21.1534094 C44.159,18.0386412 39.905,17.1783242 35.925,18.8528877 C33.837,19.7332353 32.012,21.7282894 30.922,24.327268 L29.078,23.5500782 C30.37,20.4743699 32.584,18.0887179 35.15,17.007062 C39.905,15.0049972 44.971,16.0255595 48.704,19.7342369 C49.774,20.8068789 50.66,21.851478 51.35,23.2035478 C52.843,22.0978551 54.857,21.7673492 56.757,22.3993166 C59.189,23.2085554 60.727,25.3207889 60.975,28.1290879 C64.381,28.9884034 68,31.7115721 68,36.9586044 L68,36.9586044 Z" id="AWS-CloudFormation_Icon_64_Squid" fill="#FFFFFF"></path>
</g></svg></g>
      <rect x="8" y="78" width="84" height="3"
            rx="1.5" ry="1.5" fill="#E7157B"/>
      <text x="50" y="74" text-anchor="middle"
            font-family="Inter, system-ui, sans-serif" font-size="11" font-weight="700"
            fill="#1E293B">CloudFormation</text>
      <text x="50" y="100" text-anchor="middle" font-family="Inter, system-ui, sans-serif" font-size="10" fill="#64748B" font-weight="500">IaC</text>
    </g>
<path d="M 114 212 L 114 280" fill="none" stroke="#334155" stroke-width="1.6" stroke-linecap="round" stroke-linejoin="round" marker-end="url(#arrowhead)"/><rect x="98" y="236" width="32" height="16" rx="4" fill="#ffffff" stroke="#E2E8F0" stroke-width="0.8"/><text x="114" y="248" text-anchor="middle" font-family="Inter, system-ui, sans-serif" font-size="10" fill="#334155" font-weight="600">DNS</text>
<path d="M 168 321 L 820 221" fill="none" stroke="#334155" stroke-width="1.6" stroke-linecap="round" stroke-linejoin="round" marker-end="url(#arrowhead)"/><rect x="458" y="261" width="72" height="16" rx="4" fill="#ffffff" stroke="#E2E8F0" stroke-width="0.8"/><text x="494" y="273" text-anchor="middle" font-family="Inter, system-ui, sans-serif" font-size="10" fill="#334155" font-weight="600">A record</text>
<path d="M 468 221 L 820 221" fill="none" stroke="#334155" stroke-width="1.6" stroke-linecap="round" stroke-linejoin="round" marker-end="url(#arrowhead)"/>
<path d="M 820 221 L 588 486" fill="none" stroke="#334155" stroke-width="1.6" stroke-linecap="round" stroke-linejoin="round" marker-end="url(#arrowhead)"/>
<path d="M 874 262 L 1034 445" fill="none" stroke="#334155" stroke-width="1.6" stroke-linecap="round" stroke-linejoin="round" marker-end="url(#arrowhead)"/>
<path d="M 534 527 L 534 585" fill="none" stroke="#334155" stroke-width="1.6" stroke-linecap="round" stroke-linejoin="round" marker-end="url(#arrowhead)"/><rect x="514" y="546" width="40" height="16" rx="4" fill="#ffffff" stroke="#E2E8F0" stroke-width="0.8"/><text x="534" y="558" text-anchor="middle" font-family="Inter, system-ui, sans-serif" font-size="10" fill="#334155" font-weight="600">3306</text>
<path d="M 1034 527 L 1034 585" fill="none" stroke="#334155" stroke-width="1.6" stroke-linecap="round" stroke-linejoin="round" marker-end="url(#arrowhead)"/><rect x="1014" y="546" width="40" height="16" rx="4" fill="#ffffff" stroke="#E2E8F0" stroke-width="0.8"/><text x="1034" y="558" text-anchor="middle" font-family="Inter, system-ui, sans-serif" font-size="10" fill="#334155" font-weight="600">3306</text>
<path d="M 588 626 L 980 626" fill="none" stroke="#334155" stroke-width="1.6" stroke-linecap="round" stroke-linejoin="round" stroke-dasharray="5 4" marker-end="url(#arrowhead)"/><rect x="752" y="616" width="64" height="16" rx="4" fill="#ffffff" stroke="#E2E8F0" stroke-width="0.8"/><text x="784" y="628" text-anchor="middle" font-family="Inter, system-ui, sans-serif" font-size="10" fill="#334155" font-weight="600">replica</text>
<path d="M 534 305 L 414 262" fill="none" stroke="#334155" stroke-width="1.6" stroke-linecap="round" stroke-linejoin="round" stroke-dasharray="5 4" marker-end="url(#arrowhead)"/>
<path d="M 588 486 L 1220 486" fill="none" stroke="#334155" stroke-width="1.6" stroke-linecap="round" stroke-linejoin="round" stroke-dasharray="5 4" marker-end="url(#arrowhead)"/>
<path d="M 1220 486 L 415 801" fill="none" stroke="#334155" stroke-width="1.6" stroke-linecap="round" stroke-linejoin="round" stroke-dasharray="5 4" marker-end="url(#arrowhead)"/>
<path d="M 534 527 L 485 760" fill="none" stroke="#334155" stroke-width="1.6" stroke-linecap="round" stroke-linejoin="round" stroke-dasharray="5 4" marker-end="url(#arrowhead)"/>
<path d="M 980 486 L 535 801" fill="none" stroke="#334155" stroke-width="1.6" stroke-linecap="round" stroke-linejoin="round" stroke-dasharray="5 4" marker-end="url(#arrowhead)"/>
<path d="M 535 801 L 555 801" fill="none" stroke="#334155" stroke-width="1.6" stroke-linecap="round" stroke-linejoin="round" marker-end="url(#arrowhead)"/><rect x="521" y="791" width="48" height="16" rx="4" fill="#ffffff" stroke="#E2E8F0" stroke-width="0.8"/><text x="545" y="803" text-anchor="middle" font-family="Inter, system-ui, sans-serif" font-size="10" fill="#334155" font-weight="600">alarm</text>
<path d="M 555 801 L 168 631" fill="none" stroke="#334155" stroke-width="1.6" stroke-linecap="round" stroke-linejoin="round" stroke-dasharray="5 4" marker-end="url(#arrowhead)"/><rect x="337" y="706" width="48" height="16" rx="4" fill="#ffffff" stroke="#E2E8F0" stroke-width="0.8"/><text x="361" y="718" text-anchor="middle" font-family="Inter, system-ui, sans-serif" font-size="10" fill="#334155" font-weight="600">email</text>
<path d="M 534 527 L 845 760" fill="none" stroke="#334155" stroke-width="1.6" stroke-linecap="round" stroke-linejoin="round" stroke-dasharray="5 4" marker-end="url(#arrowhead)"/><rect x="673" y="633" width="32" height="16" rx="4" fill="#ffffff" stroke="#E2E8F0" stroke-width="0.8"/><text x="689" y="645" text-anchor="middle" font-family="Inter, system-ui, sans-serif" font-size="10" fill="#334155" font-weight="600">get</text>
<path d="M 168 481 L 1035 801" fill="none" stroke="#334155" stroke-width="1.6" stroke-linecap="round" stroke-linejoin="round" stroke-dasharray="5 4" marker-end="url(#arrowhead)"/><rect x="573" y="631" width="56" height="16" rx="4" fill="#ffffff" stroke="#E2E8F0" stroke-width="0.8"/><text x="601" y="643" text-anchor="middle" font-family="Inter, system-ui, sans-serif" font-size="10" fill="#334155" font-weight="600">deploy</text>
<path d="M 168 481 L 675 801" fill="none" stroke="#334155" stroke-width="1.6" stroke-linecap="round" stroke-linejoin="round" stroke-dasharray="5 4" marker-end="url(#arrowhead)"/><rect x="389" y="631" width="64" height="16" rx="4" fill="#ffffff" stroke="#E2E8F0" stroke-width="0.8"/><text x="421" y="643" text-anchor="middle" font-family="Inter, system-ui, sans-serif" font-size="10" fill="#334155" font-weight="600">session</text>
<path d="M 1135 801 L 1340 700" fill="none" stroke="#334155" stroke-width="1.6" stroke-linecap="round" stroke-linejoin="round" stroke-dasharray="5 4" marker-end="url(#arrowhead)"/><rect x="1197" y="740" width="80" height="16" rx="4" fill="#ffffff" stroke="#E2E8F0" stroke-width="0.8"/><text x="1237" y="752" text-anchor="middle" font-family="Inter, system-ui, sans-serif" font-size="10" fill="#334155" font-weight="600">provision</text>
<text x="700" y="48" text-anchor="middle" font-family="Inter, system-ui, sans-serif" font-size="18" fill="#1E293B" font-weight="700">PJ1 — EC-site foundation (3-tier AWS)</text>
<text x="700" y="928" text-anchor="middle" font-family="Inter, system-ui, sans-serif" font-size="11" fill="#64748B" font-weight="500">Route 53 → ALB (multi-AZ) → EC2 → RDS primary/standby · S3 via VPC Endpoint · CW→SNS → Ops · CFN provisions · SSM for params &amp; session</text>
</svg>