<svg xmlns="http://www.w3.org/2000/svg" viewBox="0 0 1400 800" role="img" aria-labelledby="title desc" preserveAspectRatio="xMidYMid meet">

<defs>
  <marker id="arrowhead" markerWidth="10" markerHeight="10" refX="9" refY="5" orient="auto" markerUnits="strokeWidth">
    <path d="M0 0 L10 5 L0 10 z" fill="#334155"/>
  </marker>
</defs>

<title id="title">PJ3 — Container platform with GitHub Actions CI/CD</title>
<desc id="desc">GitHub Actions builds container images → pushes to ECR + uploads artifacts to S3 → registers new TaskDef revision → updates ECS service; traffic flows Route 53 → ALB → Fargate tasks, egress via NAT, monitored by CloudWatch.</desc>
<g id="dev">
  <rect x="20" y="60" width="320" height="680" rx="10" ry="10"
        fill="#F1F5F9" stroke="#0F172A" stroke-width="1.4"/>
  <g transform="translate(32, 78)">
    <text x="0" y="0" font-family="Inter, system-ui, sans-serif"
          font-size="11" font-weight="700" fill="#0F172A"
          letter-spacing="0.5">Developer / GitHub</text>
  </g>
</g>
<g id="cloud">
  <rect x="360" y="60" width="1020" height="680" rx="10" ry="10"
        fill="none" stroke="#232F3E" stroke-width="1.4"/>
  <g transform="translate(372, 78)">
    <text x="0" y="0" font-family="Inter, system-ui, sans-serif"
          font-size="11" font-weight="700" fill="#232F3E"
          letter-spacing="0.5">AWS Cloud — ap-northeast-1</text>
  </g>
</g>
<g id="region">
  <rect x="380" y="100" width="990" height="630" rx="10" ry="10"
        fill="none" stroke="#00A4A6" stroke-width="1.4" stroke-dasharray="6 4"/>
  <g transform="translate(392, 118)">
    <text x="0" y="0" font-family="Inter, system-ui, sans-serif"
          font-size="11" font-weight="700" fill="#00A4A6"
          letter-spacing="0.5">Region</text>
  </g>
</g>
<g id="vpc">
  <rect x="400" y="220" width="560" height="510" rx="10" ry="10"
        fill="none" stroke="#8C4FFF" stroke-width="1.4"/>
  <g transform="translate(412, 238)">
    <text x="0" y="0" font-family="Inter, system-ui, sans-serif"
          font-size="11" font-weight="700" fill="#8C4FFF"
          letter-spacing="0.5">VPC</text>
  </g>
</g>
<g id="pub">
  <rect x="420" y="260" width="520" height="110" rx="10" ry="10"
        fill="#F2F6E8" stroke="#7AA116" stroke-width="1.4"/>
  <g transform="translate(432, 278)">
    <text x="0" y="0" font-family="Inter, system-ui, sans-serif"
          font-size="11" font-weight="700" fill="#7AA116"
          letter-spacing="0.5">Public subnet  10.0.0.0/24</text>
  </g>
</g>
<g id="priv">
  <rect x="420" y="400" width="520" height="310" rx="10" ry="10"
        fill="#E6F2F8" stroke="#00A4A6" stroke-width="1.4"/>
  <g transform="translate(432, 418)">
    <text x="0" y="0" font-family="Inter, system-ui, sans-serif"
          font-size="11" font-weight="700" fill="#00A4A6"
          letter-spacing="0.5">Private subnet — Fargate tasks  10.0.10.0/24</text>
  </g>
</g>
<g id="registry">
  <rect x="980" y="220" width="380" height="240" rx="10" ry="10"
        fill="none" stroke="#00A4A6" stroke-width="1.4" stroke-dasharray="5 3"/>
  <g transform="translate(992, 238)">
    <text x="0" y="0" font-family="Inter, system-ui, sans-serif"
          font-size="11" font-weight="700" fill="#00A4A6"
          letter-spacing="0.5">Image + Config</text>
  </g>
</g>
<g id="obs">
  <rect x="980" y="480" width="380" height="250" rx="10" ry="10"
        fill="none" stroke="#00A4A6" stroke-width="1.4" stroke-dasharray="5 3"/>
  <g transform="translate(992, 498)">
    <text x="0" y="0" font-family="Inter, system-ui, sans-serif"
          font-size="11" font-weight="700" fill="#00A4A6"
          letter-spacing="0.5">Ops &amp; Notification</text>
  </g>
</g>
<g id="svc-dev" transform="translate(60, 180)">
      <rect x="0" y="0" width="108" height="82" rx="10" ry="10"
            fill="#ffffff" stroke="#CBD5E1" stroke-width="1"/>
      <defs><clipPath id="clip-dev"><rect x="36" y="6" width="36" height="36"/></clipPath></defs><g clip-path="url(#clip-dev)"><svg x="36" y="6" width="36" height="36" viewBox="0 0 48.0 48.0" preserveAspectRatio="xMidYMid meet" overflow="hidden"><title>Icon-Resource/General-Resource/Res_User_48_Light</title>
<g id="Icon-Resource/General-Resource/Res_User_48" stroke="none" stroke-width="1" fill="none" fill-rule="evenodd">
    <path d="M6.025,44 C6.524,34.085 14.395,26.178 24,26.178 C27.248,26.178 30.43,27.092 33.205,28.822 C38.354,32.033 41.653,37.783 41.974,44 L6.025,44 Z M14.192,13.878 C14.192,8.432 18.592,4 24.001,4 C29.408,4 33.807,8.432 33.807,13.878 C33.807,19.325 29.408,23.757 24.001,23.757 C18.592,23.757 14.192,19.325 14.192,13.878 L14.192,13.878 Z M34.263,27.125 C32.53,26.044 30.65,25.26 28.698,24.771 C32.877,22.939 35.807,18.749 35.807,13.878 C35.807,7.329 30.51,2 24.001,2 C17.489,2 12.192,7.329 12.192,13.878 C12.192,18.755 15.13,22.95 19.317,24.778 C10.545,26.981 4,35.2 4,45 C4,45.552 4.447,46 5,46 L43,46 C43.552,46 44,45.552 44,45 C44,37.719 40.269,30.87 34.263,27.125 L34.263,27.125 Z" id="Fill-1" fill="#242F3E"></path>
</g></svg></g>
      <rect x="8" y="78" width="92" height="3"
            rx="1.5" ry="1.5" fill="#232F3E"/>
      <text x="54" y="74" text-anchor="middle"
            font-family="Inter, system-ui, sans-serif" font-size="11" font-weight="700"
            fill="#1E293B">Developer</text>

    </g>
<g id="svc-repo" transform="translate(60, 320)">
      <rect x="0" y="0" width="108" height="82" rx="10" ry="10"
            fill="#ffffff" stroke="#CBD5E1" stroke-width="1"/>
      <defs><clipPath id="clip-repo"><rect x="36" y="6" width="36" height="36"/></clipPath></defs><g clip-path="url(#clip-repo)"><svg x="36" y="6" width="36" height="36" viewBox="0 0 48.0 48.0" preserveAspectRatio="xMidYMid meet" overflow="hidden"><title>Icon-Resource/General-Resource/Res_Git-Repository_48_Light</title>
<g id="Icon-Resource/General-Resource/Res_Git-Repository_48" stroke="none" stroke-width="1" fill="none" fill-rule="evenodd">
    <path d="M36.002,44 C34.348,44 33.002,42.654 33.002,41 C33.002,39.346 34.348,38 36.002,38 C37.656,38 39.002,39.346 39.002,41 C39.002,42.654 37.656,44 36.002,44 M12,10 C10.346,10 9,8.654 9,7 C9,5.346 10.346,4 12,4 C13.654,4 15,5.346 15,7 C15,8.654 13.654,10 12,10 M36.002,21.001 C37.656,21.001 39.002,22.347 39.002,24.001 C39.002,25.655 37.656,27.001 36.002,27.001 C34.348,27.001 33.002,25.655 33.002,24.001 C33.002,22.347 34.348,21.001 36.002,21.001 M36.002,36 C33.587,36 31.567,37.721 31.103,40.001 L26.001,40.001 C25.338,40.001 25.001,39.685 25.001,39.062 L25.001,25.001 L31.103,25.001 C31.568,27.28 33.588,29.001 36.002,29.001 C38.759,29.001 41.002,26.758 41.002,24.001 C41.002,21.244 38.759,19.001 36.002,19.001 C33.588,19.001 31.568,20.722 31.103,23.001 L25.001,23.001 L25.001,8.938 C25.001,7.208 23.768,5.999 22.001,5.999 L16.899,5.999 C16.434,3.72 14.414,2 12,2 C9.243,2 7,4.243 7,7 C7,9.757 9.243,12 12,12 C14.415,12 16.435,10.279 16.899,7.999 L22.001,7.999 C22.674,7.999 23.001,8.306 23.001,8.938 L23.001,39.062 C23.001,40.792 24.234,42.001 26.001,42.001 L31.103,42.001 C31.568,44.28 33.588,46 36.002,46 C38.759,46 41.002,43.757 41.002,41 C41.002,38.243 38.759,36 36.002,36" id="Fill-1" fill="#232F3D"></path>
</g></svg></g>
      <rect x="8" y="78" width="92" height="3"
            rx="1.5" ry="1.5" fill="#C925D1"/>
      <text x="54" y="74" text-anchor="middle"
            font-family="Inter, system-ui, sans-serif" font-size="11" font-weight="700"
            fill="#1E293B">GitHub Repo</text>

    </g>
<g id="svc-gha" transform="translate(210, 320)">
      <rect x="0" y="0" width="108" height="82" rx="10" ry="10"
            fill="#ffffff" stroke="#CBD5E1" stroke-width="1"/>
      <defs><clipPath id="clip-gha"><rect x="36" y="6" width="36" height="36"/></clipPath></defs><g clip-path="url(#clip-gha)"><svg x="36" y="6" width="36" height="36" viewBox="0 0 48.0 48.0" preserveAspectRatio="xMidYMid meet" overflow="hidden"><title>Icon-Resource/General-Resource/Res_Source-Code_48_Light</title>
<g id="Icon-Resource/General-Resource/Res_Source-Code_48" stroke="none" stroke-width="1" fill="none" fill-rule="evenodd">
    <path d="M25.0518,19.684 L26.9478,20.317 L22.9478,32.317 L21.0518,31.684 L25.0518,19.684 Z M34.6248,25.22 C34.8628,25.409 34.9998,25.697 34.9998,26 C34.9998,26.304 34.8628,26.592 34.6248,26.781 L29.6248,30.781 L28.3748,29.22 L32.3998,26 L28.3748,22.781 L29.6248,21.22 L34.6248,25.22 Z M19.6248,22.781 L15.6008,26 L19.6248,29.22 L18.3748,30.781 L13.3748,26.781 C13.1378,26.592 12.9998,26.304 12.9998,26 C12.9998,25.697 13.1378,25.409 13.3748,25.22 L18.3748,21.22 L19.6248,22.781 Z M9.9998,44 L10.0068,4 L27.9998,4 L27.9998,13 C27.9998,13.552 28.4478,14 28.9998,14 L37.9998,14 L37.9998,44 L9.9998,44 Z M29.9998,5.414 L36.5858,12 L29.9998,12 L29.9998,5.414 Z M39.7068,12.293 L29.7068,2.293 C29.5198,2.105 29.2658,2 28.9998,2 L9.9998,2 C8.8228,2 7.9998,2.822 7.9998,4 L7.9998,44 C7.9998,45.14 8.8598,46 9.9998,46 L37.9998,46 C39.1408,46 39.9998,45.14 39.9998,44 L39.9998,13 C39.9998,12.734 39.8948,12.48 39.7068,12.293 L39.7068,12.293 Z" id="Fill-1" fill="#232F3D"></path>
</g></svg></g>
      <rect x="8" y="78" width="92" height="3"
            rx="1.5" ry="1.5" fill="#C925D1"/>
      <text x="54" y="74" text-anchor="middle"
            font-family="Inter, system-ui, sans-serif" font-size="11" font-weight="700"
            fill="#1E293B">GHA Runner</text>
      <text x="54" y="100" text-anchor="middle" font-family="Inter, system-ui, sans-serif" font-size="10" fill="#64748B" font-weight="500">build / test / push</text>
    </g>
<g id="svc-oidc" transform="translate(60, 460)">
      <rect x="0" y="0" width="108" height="82" rx="10" ry="10"
            fill="#ffffff" stroke="#CBD5E1" stroke-width="1"/>
      <defs><clipPath id="clip-oidc"><rect x="36" y="6" width="36" height="36"/></clipPath></defs><g clip-path="url(#clip-oidc)"><svg x="36" y="6" width="36" height="36" viewBox="0 0 80.0 80.0" preserveAspectRatio="xMidYMid meet" overflow="hidden"><title>Icon-Architecture/64/Arch_AWS-Identity-and-Access-Management_64</title>
<g id="Icon-Architecture/64/Arch_AWS-Identity-and-Access-Management_64" stroke="none" stroke-width="1" fill="none" fill-rule="evenodd">
    <g id="Icon-Architecture-BG/64/Security-Identity-Compliance" fill="#DD344C">
        <rect id="Rectangle" x="0" y="0" width="80" height="80"></rect>
    </g>
    <path d="M14,59 L66,59 L66,21 L14,21 L14,59 Z M68,20 L68,60 C68,60.552 67.553,61 67,61 L13,61 C12.447,61 12,60.552 12,60 L12,20 C12,19.448 12.447,19 13,19 L67,19 C67.553,19 68,19.448 68,20 L68,20 Z M44,48 L59,48 L59,46 L44,46 L44,48 Z M57,42 L62,42 L62,40 L57,40 L57,42 Z M44,42 L52,42 L52,40 L44,40 L44,42 Z M29,46 C29,45.449 28.552,45 28,45 C27.448,45 27,45.449 27,46 C27,46.551 27.448,47 28,47 C28.552,47 29,46.551 29,46 L29,46 Z M31,46 C31,47.302 30.161,48.401 29,48.816 L29,51 L27,51 L27,48.815 C25.839,48.401 25,47.302 25,46 C25,44.346 26.346,43 28,43 C29.654,43 31,44.346 31,46 L31,46 Z M19,53.993 L36.994,54 L36.996,50 L33,50 L33,48 L36.996,48 L36.998,45 L33,45 L33,43 L36.999,43 L37,40.007 L19.006,40 L19,53.993 Z M22,38.001 L34,38.006 L34,31 C34.001,28.697 31.197,26.677 28,26.675 L27.996,26.675 C24.804,26.675 22.004,28.696 22.002,31 L22,38.001 Z M17,54.992 L17.006,39 C17.006,38.734 17.111,38.48 17.299,38.292 C17.486,38.105 17.741,38 18.006,38 L20,38.001 L20.002,31 C20.004,27.512 23.59,24.675 27.996,24.675 L28,24.675 C32.412,24.677 36.001,27.515 36,31 L36,38.007 L38,38.008 C38.553,38.008 39,38.456 39,39.008 L38.994,55 C38.994,55.266 38.889,55.52 38.701,55.708 C38.514,55.895 38.259,56 37.994,56 L18,55.992 C17.447,55.992 17,55.544 17,54.992 L17,54.992 Z M60,36 L62,36 L62,34 L60,34 L60,36 Z M44,36 L55,36 L55,34 L44,34 L44,36 Z" id="AWS-Identity-and-Access-Management_Icon_64_Squid" fill="#FFFFFF"></path>
</g></svg></g>
      <rect x="8" y="78" width="92" height="3"
            rx="1.5" ry="1.5" fill="#DD344C"/>
      <text x="54" y="74" text-anchor="middle"
            font-family="Inter, system-ui, sans-serif" font-size="11" font-weight="700"
            fill="#1E293B">GitHub OIDC</text>
      <text x="54" y="100" text-anchor="middle" font-family="Inter, system-ui, sans-serif" font-size="10" fill="#64748B" font-weight="500">token</text>
    </g>
<g id="svc-iam-role" transform="translate(210, 460)">
      <rect x="0" y="0" width="108" height="82" rx="10" ry="10"
            fill="#ffffff" stroke="#CBD5E1" stroke-width="1"/>
      <defs><clipPath id="clip-iam-role"><rect x="36" y="6" width="36" height="36"/></clipPath></defs><g clip-path="url(#clip-iam-role)"><svg x="36" y="6" width="36" height="36" viewBox="0 0 80.0 80.0" preserveAspectRatio="xMidYMid meet" overflow="hidden"><title>Icon-Architecture/64/Arch_AWS-Identity-and-Access-Management_64</title>
<g id="Icon-Architecture/64/Arch_AWS-Identity-and-Access-Management_64" stroke="none" stroke-width="1" fill="none" fill-rule="evenodd">
    <g id="Icon-Architecture-BG/64/Security-Identity-Compliance" fill="#DD344C">
        <rect id="Rectangle" x="0" y="0" width="80" height="80"></rect>
    </g>
    <path d="M14,59 L66,59 L66,21 L14,21 L14,59 Z M68,20 L68,60 C68,60.552 67.553,61 67,61 L13,61 C12.447,61 12,60.552 12,60 L12,20 C12,19.448 12.447,19 13,19 L67,19 C67.553,19 68,19.448 68,20 L68,20 Z M44,48 L59,48 L59,46 L44,46 L44,48 Z M57,42 L62,42 L62,40 L57,40 L57,42 Z M44,42 L52,42 L52,40 L44,40 L44,42 Z M29,46 C29,45.449 28.552,45 28,45 C27.448,45 27,45.449 27,46 C27,46.551 27.448,47 28,47 C28.552,47 29,46.551 29,46 L29,46 Z M31,46 C31,47.302 30.161,48.401 29,48.816 L29,51 L27,51 L27,48.815 C25.839,48.401 25,47.302 25,46 C25,44.346 26.346,43 28,43 C29.654,43 31,44.346 31,46 L31,46 Z M19,53.993 L36.994,54 L36.996,50 L33,50 L33,48 L36.996,48 L36.998,45 L33,45 L33,43 L36.999,43 L37,40.007 L19.006,40 L19,53.993 Z M22,38.001 L34,38.006 L34,31 C34.001,28.697 31.197,26.677 28,26.675 L27.996,26.675 C24.804,26.675 22.004,28.696 22.002,31 L22,38.001 Z M17,54.992 L17.006,39 C17.006,38.734 17.111,38.48 17.299,38.292 C17.486,38.105 17.741,38 18.006,38 L20,38.001 L20.002,31 C20.004,27.512 23.59,24.675 27.996,24.675 L28,24.675 C32.412,24.677 36.001,27.515 36,31 L36,38.007 L38,38.008 C38.553,38.008 39,38.456 39,39.008 L38.994,55 C38.994,55.266 38.889,55.52 38.701,55.708 C38.514,55.895 38.259,56 37.994,56 L18,55.992 C17.447,55.992 17,55.544 17,54.992 L17,54.992 Z M60,36 L62,36 L62,34 L60,34 L60,36 Z M44,36 L55,36 L55,34 L44,34 L44,36 Z" id="AWS-Identity-and-Access-Management_Icon_64_Squid" fill="#FFFFFF"></path>
</g></svg></g>
      <rect x="8" y="78" width="92" height="3"
            rx="1.5" ry="1.5" fill="#DD344C"/>
      <text x="54" y="74" text-anchor="middle"
            font-family="Inter, system-ui, sans-serif" font-size="11" font-weight="700"
            fill="#1E293B">IAM Role</text>
      <text x="54" y="100" text-anchor="middle" font-family="Inter, system-ui, sans-serif" font-size="10" fill="#64748B" font-weight="500">deploy</text>
    </g>
<g id="svc-r53" transform="translate(395, 135)">
      <rect x="0" y="0" width="108" height="82" rx="10" ry="10"
            fill="#ffffff" stroke="#CBD5E1" stroke-width="1"/>
      <defs><clipPath id="clip-r53"><rect x="36" y="6" width="36" height="36"/></clipPath></defs><g clip-path="url(#clip-r53)"><svg x="36" y="6" width="36" height="36" viewBox="0 0 80.0 80.0" preserveAspectRatio="xMidYMid meet" overflow="hidden"><title>Icon-Architecture/64/Arch_Amazon-Route-53_64</title>
<g id="Icon-Architecture/64/Arch_Amazon-Route-53_64" stroke="none" stroke-width="1" fill="none" fill-rule="evenodd">
    <g id="Icon-Architecture-BG/64/Networking-Content-Delivery" fill="#8C4FFF">
        <rect id="Rectangle" x="0" y="0" width="80" height="80"></rect>
    </g>
    <path d="M48.692,40.6795109 C49.431,41.3627732 49.801,42.2781246 49.801,43.4275659 C49.801,44.678046 49.351,45.6764293 48.452,46.4227159 C47.552,47.1700028 46.343,47.543146 44.826,47.543146 C43.627,47.543146 42.44,47.2870477 41.266,46.7768518 L41.266,45.2452638 C42.657,45.7054405 43.843,45.9345284 44.826,45.9345284 C45.796,45.9345284 46.542,45.7174451 47.065,45.2842788 C47.588,44.8501121 47.849,44.2308744 47.849,43.4275659 C47.849,41.8829729 46.874,41.1106764 44.921,41.1106764 C44.309,41.1106764 43.703,41.1426887 43.103,41.2057129 L43.103,39.9432282 L47.123,35.5585448 L41.458,35.5585448 L41.458,33.9889422 L49.247,33.9889422 L49.247,35.5015229 L45.304,39.6751253 C45.369,39.6621203 45.431,39.656118 45.496,39.656118 L45.687,39.656118 C46.951,39.656118 47.952,39.9972489 48.692,40.6795109 M37.574,40.3453826 C38.351,41.0726618 38.74,42.0740463 38.74,43.349536 C38.74,44.6010165 38.288,45.6124048 37.381,46.3847013 C36.475,47.1569978 35.283,47.543146 33.803,47.543146 C32.503,47.543146 31.284,47.2870477 30.148,46.7768518 L30.148,45.2452638 C31.564,45.7054405 32.776,45.9345284 33.784,45.9345284 C34.754,45.9345284 35.497,45.7154443 36.013,45.2742749 C36.53,44.834106 36.789,44.1998624 36.789,43.3695437 C36.789,42.4631957 36.546,41.8059434 36.061,41.3977867 C35.576,40.9896299 34.785,40.7845512 33.688,40.7845512 C32.897,40.7845512 31.909,40.8495762 30.722,40.976625 L30.722,39.7131399 L31.086,33.9889422 L38.071,33.9889422 L38.071,35.5585448 L32.693,35.5585448 L32.444,39.4450369 C33.146,39.3179882 33.777,39.2539636 34.338,39.2539636 C35.716,39.2539636 36.795,39.617103 37.574,40.3453826 M51.957,54.37777 C47.103,55.250105 42.852,57.2268639 40,58.8374822 C37.147,57.2268639 32.896,55.250105 28.043,54.37777 C26.677,54.1326759 19.869,52.7111302 19.869,48.7756192 C19.869,46.951919 20.522,45.7424547 21.776,43.5826255 C23.274,40.9996338 25.138,37.7843994 25.138,33.1556222 C25.138,29.8473521 24.271,26.6751342 22.559,23.7149977 C22.76,23.4669025 22.965,23.2158061 23.171,22.9627089 C25.707,24.2301955 28.347,24.8724421 31.031,24.8724421 C34.311,24.8724421 37.325,24.0111114 40,22.3114589 C42.674,24.0111114 45.688,24.8724421 48.968,24.8724421 C51.652,24.8724421 54.293,24.2301955 56.829,22.9627089 C57.034,23.2158061 57.239,23.4669025 57.44,23.7149977 C55.728,26.6751342 54.861,29.8473521 54.861,33.1556222 C54.861,37.7843994 56.725,40.9996338 58.226,43.586627 C59.477,45.7424547 60.13,46.951919 60.13,48.7756192 C60.13,52.7111302 53.322,54.1326759 51.957,54.37777 M56.861,33.1556222 C56.861,29.9974097 57.752,26.9702475 59.507,24.1581679 C59.735,23.7950284 59.706,23.3278491 59.434,22.9957216 C58.926,22.3734827 58.393,21.7182311 57.867,21.0669811 C57.562,20.6898363 57.032,20.5857963 56.606,20.8198862 C54.143,22.1814089 51.574,22.8716739 48.968,22.8716739 C45.824,22.8716739 43.077,22.0263494 40.569,20.2886823 C40.227,20.0515912 39.772,20.0515912 39.43,20.2886823 C36.922,22.0263494 34.175,22.8716739 31.031,22.8716739 C28.425,22.8716739 25.856,22.1814089 23.393,20.8198862 C22.968,20.5857963 22.437,20.6898363 22.132,21.0669811 C21.606,21.7182311 21.073,22.3734827 20.565,22.9957216 C20.294,23.3278491 20.264,23.7950284 20.492,24.1581679 C22.248,26.9702475 23.138,29.9974097 23.138,33.1556222 C23.138,37.2461927 21.423,40.2023277 20.045,42.581241 C18.695,44.9041328 17.869,46.4467251 17.869,48.7756192 C17.869,54.1646882 25.385,55.9343677 27.689,56.3475263 C32.549,57.2208616 36.793,59.2806524 39.497,60.8542565 C39.652,60.9452915 39.826,60.9903088 40,60.9903088 C40.173,60.9903088 40.347,60.9452915 40.503,60.8542565 C43.207,59.2806524 47.45,57.2208616 52.31,56.3475263 C54.614,55.9343677 62.13,54.1646882 62.13,48.7756192 C62.13,46.4467251 61.304,44.9041328 59.954,42.5782399 C58.576,40.2023277 56.861,37.2461927 56.861,33.1556222 M52.994,60.1569888 C46.863,61.2594121 41.723,64.556678 40,65.7641416 C38.276,64.556678 33.136,61.2594121 27.005,60.1569888 C14.937,57.9891566 14,50.8974338 14,48.7756192 C14,45.2852792 15.371,42.9233724 16.697,40.6374948 C17.961,38.4596586 19.268,36.2067937 19.268,33.1556222 C19.268,28.3357718 16.485,24.9314648 15.112,23.5459328 C16.556,21.7892584 20.204,17.3415508 22.003,15.0236609 C24.729,17.5966487 27.898,19.0001876 31.031,19.0001876 C34.509,19.0001876 37.385,17.5846441 40,14.5644846 C42.614,17.5846441 45.49,19.0001876 48.968,19.0001876 C52.101,19.0001876 55.27,17.5966487 57.997,15.0236609 C59.796,17.3415508 63.443,21.7892584 64.887,23.5459328 C63.514,24.9314648 60.731,28.3357718 60.731,33.1556222 C60.731,36.2067937 62.039,38.4596586 63.302,40.6374948 C64.629,42.9233724 66,45.2852792 66,48.7756192 C66,50.8974338 65.062,57.9891566 52.994,60.1569888 M65.032,39.6341095 C63.797,37.5052922 62.731,35.6675867 62.731,33.1556222 C62.731,27.867592 66.847,24.4472789 66.887,24.4152666 C67.094,24.2472021 67.226,24.0031083 67.254,23.7370062 C67.28,23.470904 67.2,23.2058022 67.03,22.9997231 C66.963,22.9196924 60.408,14.9726413 58.906,12.9138509 C58.73,12.6727583 58.457,12.5227007 58.159,12.5046938 C57.86,12.4826853 57.572,12.601731 57.368,12.8198148 C54.848,15.5148495 51.866,16.9994194 48.968,16.9994194 C45.764,16.9994194 43.244,15.5718713 40.794,12.3706423 C40.415,11.8764526 39.585,11.8764526 39.206,12.3706423 C36.755,15.5718713 34.235,16.9994194 31.031,16.9994194 C28.133,16.9994194 25.151,15.5148495 22.631,12.8198148 C22.427,12.601731 22.137,12.4776834 21.84,12.5046938 C21.543,12.5227007 21.269,12.6727583 21.093,12.9138509 C19.591,14.9726413 13.036,22.9196924 12.969,22.9997231 C12.8,23.2058022 12.72,23.470904 12.747,23.7360058 C12.773,24.0011076 12.904,24.2452013 13.11,24.4132658 C13.152,24.4472789 17.268,27.867592 17.268,33.1556222 C17.268,35.6675867 16.202,37.5052922 14.967,39.6341095 C13.576,42.0310298 12,44.7470725 12,48.7756192 C12,55.487196 17.477,60.4781121 26.652,62.1267451 C33.559,63.3682217 39.334,67.7489036 39.391,67.7939209 C39.57,67.9309735 39.785,68 40,68 C40.214,68 40.429,67.9309735 40.609,67.7929205 C40.667,67.7489036 46.422,63.3712229 53.347,62.1267451 C62.522,60.4781121 68,55.487196 68,48.7756192 C68,44.7470725 66.423,42.0310298 65.032,39.6341095" id="Amazon-Route-53-Icon_64_Squid" fill="#FFFFFF"></path>
</g></svg></g>
      <rect x="8" y="78" width="92" height="3"
            rx="1.5" ry="1.5" fill="#8C4FFF"/>
      <text x="54" y="74" text-anchor="middle"
            font-family="Inter, system-ui, sans-serif" font-size="11" font-weight="700"
            fill="#1E293B">Route 53</text>

    </g>
<g id="svc-alb" transform="translate(440, 280)">
      <rect x="0" y="0" width="108" height="82" rx="10" ry="10"
            fill="#ffffff" stroke="#CBD5E1" stroke-width="1"/>
      <defs><clipPath id="clip-alb"><rect x="36" y="6" width="36" height="36"/></clipPath></defs><g clip-path="url(#clip-alb)"><svg x="36" y="6" width="36" height="36" viewBox="0 0 80.0 80.0" preserveAspectRatio="xMidYMid meet" overflow="hidden"><title>Icon-Architecture/64/Arch_Elastic-Load-Balancing_64</title>
<g id="Icon-Architecture/64/Arch_Elastic-Load-Balancing_64" stroke="none" stroke-width="1" fill="none" fill-rule="evenodd">
    <g id="Icon-Architecture-BG/64/Networking-Content-Delivery" fill="#8C4FFF">
        <rect id="Rectangle" x="0" y="0" width="80" height="80"></rect>
    </g>
    <path d="M30,53 C22.832,53 17,47.168 17,40 C17,32.832 22.832,27 30,27 C37.168,27 43,32.832 43,40 C43,47.168 37.168,53 30,53 M60,59 C60,61.206 58.206,63 56,63 C53.794,63 52,61.206 52,59 C52,56.794 53.794,55 56,55 C58.206,55 60,56.794 60,59 M56,17 C58.206,17 60,18.794 60,21 C60,23.206 58.206,25 56,25 C53.794,25 52,23.206 52,21 C52,18.794 53.794,17 56,17 M59,36 C61.206,36 63,37.794 63,40 C63,42.206 61.206,44 59,44 C56.794,44 55,42.206 55,40 C55,37.794 56.794,36 59,36 M44.949,41 L53.09,41 C53.568,43.833 56.033,46 59,46 C62.309,46 65,43.309 65,40 C65,36.691 62.309,34 59,34 C56.033,34 53.568,36.167 53.09,39 L44.949,39 C44.823,37.099 44.344,35.297 43.572,33.654 L52.446,25.823 C53.442,26.559 54.669,27 56,27 C59.309,27 62,24.309 62,21 C62,17.691 59.309,15 56,15 C52.691,15 50,17.691 50,21 C50,22.256 50.389,23.421 51.051,24.386 L42.581,31.859 C39.904,27.738 35.271,25 30,25 C21.729,25 15,31.729 15,40 C15,48.271 21.729,55 30,55 C35.271,55 39.904,52.262 42.581,48.141 L51.051,55.614 C50.389,56.579 50,57.744 50,59 C50,62.309 52.691,65 56,65 C59.309,65 62,62.309 62,59 C62,55.691 59.309,53 56,53 C54.669,53 53.442,53.441 52.446,54.177 L43.572,46.346 C44.344,44.703 44.823,42.901 44.949,41" id="Elastic-Load-Balancing_Icon_64_Squid" fill="#FFFFFF"></path>
</g></svg></g>
      <rect x="8" y="78" width="92" height="3"
            rx="1.5" ry="1.5" fill="#8C4FFF"/>
      <text x="54" y="74" text-anchor="middle"
            font-family="Inter, system-ui, sans-serif" font-size="11" font-weight="700"
            fill="#1E293B">ALB + ACM</text>
      <text x="54" y="100" text-anchor="middle" font-family="Inter, system-ui, sans-serif" font-size="10" fill="#64748B" font-weight="500">:443 · multi-AZ</text>
    </g>
<g id="svc-nat" transform="translate(640, 280)">
      <rect x="0" y="0" width="108" height="82" rx="10" ry="10"
            fill="#ffffff" stroke="#CBD5E1" stroke-width="1"/>
      <defs><clipPath id="clip-nat"><rect x="36" y="6" width="36" height="36"/></clipPath></defs><g clip-path="url(#clip-nat)"><svg x="36" y="6" width="36" height="36" viewBox="0 0 48.0 48.0" preserveAspectRatio="xMidYMid meet" overflow="hidden"><title>Icon-Resource/Networking-and-Content-Delivery/Res_Amazon-VPC_NAT-Gateway_48</title>
<g id="Icon-Resource/Networking-and-Content-Delivery/Res_Amazon-VPC_NAT-Gateway_48" stroke="none" stroke-width="1" fill="none" fill-rule="evenodd">
    <path d="M13.6255,35.9209 L13.6255,33.0829 L15.3995,34.5019 L13.6255,35.9209 Z M13.2505,30.2209 C12.9495,29.9799 12.5365,29.9329 12.1915,30.1009 C11.8465,30.2679 11.6255,30.6169 11.6255,31.0019 L11.6255,38.0019 C11.6255,38.3869 11.8465,38.7359 12.1915,38.9029 C12.3305,38.9699 12.4785,39.0019 12.6255,39.0019 C12.8485,39.0019 13.0695,38.9279 13.2505,38.7829 L17.6255,35.2829 C17.8625,35.0929 18.0005,34.8059 18.0005,34.5019 C18.0005,34.1979 17.8625,33.9109 17.6255,33.7209 L13.2505,30.2209 Z M37.2515,26.8369 L37.2515,22.9149 L39.2125,24.8759 L37.2515,26.8369 Z M41.3335,24.1689 L36.9585,19.7939 C36.6725,19.5079 36.2445,19.4219 35.8685,19.5769 C35.4945,19.7319 35.2515,20.0969 35.2515,20.5009 L35.2515,23.8759 L27.6255,23.8759 L27.6255,14.3759 C27.6255,13.8229 27.1785,13.3759 26.6255,13.3759 L18.9315,13.3759 L18.9315,15.3759 L25.6255,15.3759 L25.6255,23.8759 L18.7505,23.8759 L18.7505,25.8759 L25.6255,25.8759 L25.6255,34.3769 L18.9315,34.3769 L18.9315,36.3769 L26.6255,36.3769 C27.1785,36.3769 27.6255,35.9299 27.6255,35.3769 L27.6255,25.8759 L35.2515,25.8759 L35.2515,29.2519 C35.2515,29.6559 35.4955,30.0219 35.8685,30.1759 C35.9925,30.2279 36.1225,30.2519 36.2515,30.2519 C36.5115,30.2519 36.7675,30.1499 36.9585,29.9589 L41.3335,25.5829 C41.7245,25.1919 41.7245,24.5599 41.3335,24.1689 L41.3335,24.1689 Z M13.6255,26.2959 L13.6255,23.4569 L15.3995,24.8759 L13.6255,26.2959 Z M13.2505,20.5949 C12.9495,20.3539 12.5365,20.3079 12.1915,20.4749 C11.8465,20.6419 11.6255,20.9909 11.6255,21.3759 L11.6255,28.3769 C11.6255,28.7619 11.8465,29.1109 12.1915,29.2779 C12.3305,29.3449 12.4785,29.3769 12.6255,29.3769 C12.8485,29.3769 13.0695,29.3029 13.2505,29.1579 L17.6255,25.6569 C17.8625,25.4669 18.0005,25.1799 18.0005,24.8759 C18.0005,24.5719 17.8625,24.2849 17.6255,24.0949 L13.2505,20.5949 Z M13.6255,15.7949 L13.6255,12.9569 L15.3995,14.3759 L13.6255,15.7949 Z M13.2505,10.0949 C12.9495,9.8539 12.5365,9.8069 12.1915,9.9749 C11.8465,10.1419 11.6255,10.4909 11.6255,10.8759 L11.6255,17.8759 C11.6255,18.2609 11.8465,18.6099 12.1915,18.7769 C12.3305,18.8439 12.4785,18.8759 12.6255,18.8759 C12.8485,18.8759 13.0695,18.8019 13.2505,18.6569 L17.6255,15.1569 C17.8625,14.9669 18.0005,14.6799 18.0005,14.3759 C18.0005,14.0719 17.8625,13.7849 17.6255,13.5949 L13.2505,10.0949 Z M24.0005,44.0029 C12.9725,44.0029 3.9995,35.0299 3.9995,24.0009 C3.9995,12.9729 12.9725,3.9999 24.0005,3.9999 C35.0295,3.9999 44.0025,12.9729 44.0025,24.0009 C44.0025,35.0299 35.0295,44.0029 24.0005,44.0029 L24.0005,44.0029 Z M24.0005,1.9999 C11.8685,1.9999 1.9995,11.8689 1.9995,24.0009 C1.9995,36.1329 11.8685,46.0029 24.0005,46.0029 C36.1325,46.0029 46.0025,36.1329 46.0025,24.0009 C46.0025,11.8689 36.1325,1.9999 24.0005,1.9999 L24.0005,1.9999 Z" id="AWS-Amazon-VPC_NAT-gateway_Resource-Icon_light-bg" fill="#8C4FFF"></path>
</g></svg></g>
      <rect x="8" y="78" width="92" height="3"
            rx="1.5" ry="1.5" fill="#8C4FFF"/>
      <text x="54" y="74" text-anchor="middle"
            font-family="Inter, system-ui, sans-serif" font-size="11" font-weight="700"
            fill="#1E293B">NAT GW</text>
      <text x="54" y="100" text-anchor="middle" font-family="Inter, system-ui, sans-serif" font-size="10" fill="#64748B" font-weight="500">egress only</text>
    </g>
<g id="svc-igw" transform="translate(820, 280)">
      <rect x="0" y="0" width="108" height="82" rx="10" ry="10"
            fill="#ffffff" stroke="#CBD5E1" stroke-width="1"/>
      <defs><clipPath id="clip-igw"><rect x="36" y="6" width="36" height="36"/></clipPath></defs><g clip-path="url(#clip-igw)"><svg x="36" y="6" width="36" height="36" viewBox="0 0 48.0 48.0" preserveAspectRatio="xMidYMid meet" overflow="hidden"><title>Icon-Resource/Networking-and-Content-Delivery/Res_Amazon-VPC_Internet-Gateway_48</title>
<g id="Icon-Resource/Networking-and-Content-Delivery/Res_Amazon-VPC_Internet-Gateway_48" stroke="none" stroke-width="1" fill="none" fill-rule="evenodd">
    <path d="M33.4312,35.1778 L31.9332,35.1778 L31.9332,17.5018 C31.9332,17.1088 31.7022,16.7518 31.3442,16.5908 L31.2522,16.5488 C29.2432,15.6418 27.1642,14.7028 24.1762,14.7028 C21.0532,14.7028 18.7612,15.7118 16.4952,16.8368 C16.1552,17.0058 15.9402,17.3528 15.9402,17.7328 L15.9402,35.1778 L14.4772,35.1778 L14.4772,16.3118 C16.9112,14.3328 20.4202,13.2048 24.1862,13.2048 C27.6872,13.2048 31.0252,14.2018 33.4312,15.9528 L33.4312,35.1778 Z M24.1862,11.2048 C19.7612,11.2048 15.6172,12.6238 12.8152,15.0998 C12.6002,15.2888 12.4772,15.5618 12.4772,15.8488 L12.4772,36.1778 C12.4772,36.7308 12.9242,37.1778 13.4772,37.1778 L16.9402,37.1778 C17.4932,37.1778 17.9402,36.7308 17.9402,36.1778 L17.9402,18.3558 C19.8592,17.4288 21.7192,16.7028 24.1762,16.7028 C26.5112,16.7028 28.2092,17.3778 29.9332,18.1488 L29.9332,36.1778 C29.9332,36.7308 30.3802,37.1778 30.9332,37.1778 L34.4312,37.1778 C34.9842,37.1778 35.4312,36.7308 35.4312,36.1778 L35.4312,15.4578 C35.4312,15.1538 35.2922,14.8658 35.0532,14.6748 C32.2792,12.4698 28.3182,11.2048 24.1862,11.2048 L24.1862,11.2048 Z M23.9542,43.9088 C12.9522,43.9088 3.9992,34.9568 3.9992,23.9538 C3.9992,12.9508 12.9522,3.9998 23.9542,3.9998 C34.9572,3.9998 43.9092,12.9508 43.9092,23.9538 C43.9092,34.9568 34.9572,43.9088 23.9542,43.9088 L23.9542,43.9088 Z M23.9542,1.9998 C11.8482,1.9998 1.9992,11.8488 1.9992,23.9538 C1.9992,36.0608 11.8482,45.9088 23.9542,45.9088 C36.0602,45.9088 45.9092,36.0608 45.9092,23.9538 C45.9092,11.8488 36.0602,1.9998 23.9542,1.9998 L23.9542,1.9998 Z" id="AWS-Amazon-VPC_Internet-gateway_Resource-Icon_light-bg" fill="#8C4FFF"></path>
</g></svg></g>
      <rect x="8" y="78" width="92" height="3"
            rx="1.5" ry="1.5" fill="#8C4FFF"/>
      <text x="54" y="74" text-anchor="middle"
            font-family="Inter, system-ui, sans-serif" font-size="11" font-weight="700"
            fill="#1E293B">Internet GW</text>

    </g>
<g id="svc-ecs-svc" transform="translate(440, 430)">
      <rect x="0" y="0" width="108" height="82" rx="10" ry="10"
            fill="#ffffff" stroke="#CBD5E1" stroke-width="1"/>
      <defs><clipPath id="clip-ecs-svc"><rect x="36" y="6" width="36" height="36"/></clipPath></defs><g clip-path="url(#clip-ecs-svc)"><svg x="36" y="6" width="36" height="36" viewBox="0 0 80.0 80.0" preserveAspectRatio="xMidYMid meet" overflow="hidden"><title>Icon-Architecture/64/Arch_Amazon-Elastic-Container-Service_64</title>
<g id="Icon-Architecture/64/Arch_Amazon-Elastic-Container-Service_64" stroke="none" stroke-width="1" fill="none" fill-rule="evenodd">
    <g id="Icon-Architecture-BG/64/Compute" fill="#ED7100">
        <rect id="Rectangle" x="0" y="0" width="80" height="80"></rect>
    </g>
    <path d="M64,48.2340095 L56,43.4330117 L56,32.0000169 C56,31.6440171 55.812,31.3150172 55.504,31.1360173 L44,24.4260204 L44,14.7520248 L64,26.5710194 L64,48.2340095 Z M65.509,25.13902 L43.509,12.139026 C43.199,11.9560261 42.818,11.9540261 42.504,12.131026 C42.193,12.3090259 42,12.6410257 42,13.0000256 L42,25.0000201 C42,25.3550199 42.189,25.6840198 42.496,25.8640197 L54,32.5740166 L54,44.0000114 C54,44.3510113 54.185,44.6770111 54.486,44.857011 L64.486,50.8570083 C64.644,50.9520082 64.822,51 65,51 C65.17,51 65.34,50.9570082 65.493,50.8700083 C65.807,50.6930084 66,50.3600085 66,50 L66,26.0000196 C66,25.6460198 65.814,25.31902 65.509,25.13902 L65.509,25.13902 Z M40.445,66.863001 L17,54.3990067 L17,26.5710194 L37,14.7520248 L37,24.4510204 L26.463,31.1560173 C26.175,31.3400172 26,31.6580171 26,32.0000169 L26,49.0000091 C26,49.373009 26.208,49.7150088 26.538,49.8870087 L39.991,56.8870055 C40.28,57.0370055 40.624,57.0380055 40.912,56.8880055 L53.964,50.1440086 L61.996,54.9640064 L40.445,66.863001 Z M64.515,54.1420068 L54.515,48.1420095 C54.217,47.9640096 53.849,47.9520096 53.541,48.1120095 L40.455,54.8730065 L28,48.3930094 L28,32.5490167 L38.537,25.8440197 C38.825,25.6600198 39,25.3420199 39,25.0000201 L39,13.0000256 C39,12.6410257 38.808,12.3090259 38.496,12.131026 C38.184,11.9540261 37.802,11.9560261 37.491,12.139026 L15.491,25.13902 C15.187,25.31902 15,25.6460198 15,26.0000196 L15,55 C15,55.3690062 15.204,55.7090061 15.53,55.883006 L39.984,68.8830001 C40.131,68.961 40.292,69 40.453,69 C40.62,69 40.786,68.958 40.937,68.8750001 L64.484,55.875006 C64.797,55.7020061 64.993,55.3750062 65.0001416,55.0180064 C65.006,54.6600066 64.821,54.3260067 64.515,54.1420068 L64.515,54.1420068 Z" id="Amazon-Elastic-Container-Service_Icon_64_Squid" fill="#FFFFFF"></path>
</g></svg></g>
      <rect x="8" y="78" width="92" height="3"
            rx="1.5" ry="1.5" fill="#ED7100"/>
      <text x="54" y="74" text-anchor="middle"
            font-family="Inter, system-ui, sans-serif" font-size="11" font-weight="700"
            fill="#1E293B">ECS Service</text>
      <text x="54" y="100" text-anchor="middle" font-family="Inter, system-ui, sans-serif" font-size="10" fill="#64748B" font-weight="500">desiredCount=2</text>
    </g>
<g id="svc-taskdef" transform="translate(440, 560)">
      <rect x="0" y="0" width="108" height="82" rx="10" ry="10"
            fill="#ffffff" stroke="#CBD5E1" stroke-width="1"/>
      <defs><clipPath id="clip-taskdef"><rect x="36" y="6" width="36" height="36"/></clipPath></defs><g clip-path="url(#clip-taskdef)"><svg x="36" y="6" width="36" height="36" viewBox="0 0 80.0 80.0" preserveAspectRatio="xMidYMid meet" overflow="hidden"><title>Icon-Architecture/64/Arch_AWS-Fargate_64</title>
<g id="Icon-Architecture/64/Arch_AWS-Fargate_64" stroke="none" stroke-width="1" fill="none" fill-rule="evenodd">
    <g id="Icon-Architecture-BG/64/Compute" fill="#ED7100">
        <rect id="Rectangle" x="0" y="0" width="80" height="80"></rect>
    </g>
    <path d="M52,56.523 L52,51.677 L55,50.477 L55,55.323 L52,56.523 Z M47,50.477 L50,51.677 L50,56.523 L47,55.323 L47,50.477 Z M41,63.523 L41,58.677 L44,57.477 L44,62.323 L41,63.523 Z M36,57.477 L39,58.677 L39,63.523 L36,62.323 L36,57.477 Z M30,56.523 L30,51.677 L33,50.477 L33,55.323 L30,56.523 Z M25,50.477 L28,51.677 L28,56.523 L25,55.323 L25,50.477 Z M29,48.077 L31.308,49 L29,49.923 L26.692,49 L29,48.077 Z M40,55.077 L42.308,56 L40,56.923 L37.692,56 L40,55.077 Z M51,48.077 L53.308,49 L51,49.923 L48.692,49 L51,48.077 Z M56.371,48.071 L51.371,46.071 C51.133,45.977 50.867,45.977 50.629,46.071 L45.629,48.071 C45.249,48.224 45,48.591 45,49 L45,54.923 L40.371,53.071 C40.133,52.977 39.867,52.977 39.629,53.071 L35,54.923 L35,49 C35,48.591 34.751,48.224 34.371,48.071 L29.371,46.071 C29.133,45.977 28.867,45.977 28.629,46.071 L23.629,48.071 C23.249,48.224 23,48.591 23,49 L23,56 C23,56.409 23.249,56.776 23.629,56.929 L28.629,58.929 C28.748,58.976 28.874,59 29,59 C29.126,59 29.252,58.976 29.371,58.929 L34,57.077 L34,63 C34,63.409 34.249,63.776 34.629,63.929 L39.629,65.929 C39.748,65.976 39.874,66 40,66 C40.126,66 40.252,65.976 40.371,65.929 L45.371,63.929 C45.751,63.776 46,63.409 46,63 L46,57.077 L50.629,58.929 C50.748,58.976 50.874,59 51,59 C51.126,59 51.252,58.976 51.371,58.929 L56.371,56.929 C56.751,56.776 57,56.409 57,56 L57,49 C57,48.591 56.751,48.224 56.371,48.071 L56.371,48.071 Z M65,35.938 C65,41.783 52.119,44.938 40,44.938 C27.881,44.938 15,41.783 15,35.938 C15,33.147 18.095,30.69 23.715,29.019 L24.285,30.936 C19.791,32.272 17,34.189 17,35.938 C17,39.249 26.445,42.938 40,42.938 C53.555,42.938 63,39.249 63,35.938 C63,34.189 60.209,32.272 55.715,30.936 L56.285,29.019 C61.905,30.69 65,33.147 65,35.938 L65,35.938 Z M40,17.071 L50.214,21 L40,24.929 L29.786,21 L40,17.071 Z M50.58,36.842 C48.694,37.686 45.528,38.669 41,38.801 L41,26.687 L52,22.457 L52,34.648 C52,35.599 51.444,36.46 50.58,36.842 L50.58,36.842 Z M28,34.648 L28,22.457 L39,26.687 L39,38.801 C34.472,38.669 31.306,37.686 29.416,36.84 C28.556,36.46 28,35.599 28,34.648 L28,34.648 Z M28.604,38.667 C30.805,39.652 34.569,40.827 40,40.827 C45.431,40.827 49.195,39.652 51.393,38.669 C52.977,37.968 54,36.39 54,34.648 L54,21 C54,20.586 53.745,20.215 53.359,20.066 L40.359,15.066 C40.127,14.978 39.873,14.978 39.641,15.066 L26.641,20.066 C26.255,20.215 26,20.586 26,21 L26,34.648 C26,36.39 27.023,37.968 28.604,38.667 L28.604,38.667 Z" id="AWS-Fargate_Icon_64_Squid" fill="#FFFFFF"></path>
</g></svg></g>
      <rect x="8" y="78" width="92" height="3"
            rx="1.5" ry="1.5" fill="#ED7100"/>
      <text x="54" y="74" text-anchor="middle"
            font-family="Inter, system-ui, sans-serif" font-size="11" font-weight="700"
            fill="#1E293B">TaskDef</text>
      <text x="54" y="100" text-anchor="middle" font-family="Inter, system-ui, sans-serif" font-size="10" fill="#64748B" font-weight="500">revision n</text>
    </g>
<g id="svc-task-1" transform="translate(600, 430)">
      <rect x="0" y="0" width="108" height="82" rx="10" ry="10"
            fill="#ffffff" stroke="#CBD5E1" stroke-width="1"/>
      <defs><clipPath id="clip-task-1"><rect x="36" y="6" width="36" height="36"/></clipPath></defs><g clip-path="url(#clip-task-1)"><svg x="36" y="6" width="36" height="36" viewBox="0 0 80.0 80.0" preserveAspectRatio="xMidYMid meet" overflow="hidden"><title>Icon-Architecture/64/Arch_AWS-Fargate_64</title>
<g id="Icon-Architecture/64/Arch_AWS-Fargate_64" stroke="none" stroke-width="1" fill="none" fill-rule="evenodd">
    <g id="Icon-Architecture-BG/64/Compute" fill="#ED7100">
        <rect id="Rectangle" x="0" y="0" width="80" height="80"></rect>
    </g>
    <path d="M52,56.523 L52,51.677 L55,50.477 L55,55.323 L52,56.523 Z M47,50.477 L50,51.677 L50,56.523 L47,55.323 L47,50.477 Z M41,63.523 L41,58.677 L44,57.477 L44,62.323 L41,63.523 Z M36,57.477 L39,58.677 L39,63.523 L36,62.323 L36,57.477 Z M30,56.523 L30,51.677 L33,50.477 L33,55.323 L30,56.523 Z M25,50.477 L28,51.677 L28,56.523 L25,55.323 L25,50.477 Z M29,48.077 L31.308,49 L29,49.923 L26.692,49 L29,48.077 Z M40,55.077 L42.308,56 L40,56.923 L37.692,56 L40,55.077 Z M51,48.077 L53.308,49 L51,49.923 L48.692,49 L51,48.077 Z M56.371,48.071 L51.371,46.071 C51.133,45.977 50.867,45.977 50.629,46.071 L45.629,48.071 C45.249,48.224 45,48.591 45,49 L45,54.923 L40.371,53.071 C40.133,52.977 39.867,52.977 39.629,53.071 L35,54.923 L35,49 C35,48.591 34.751,48.224 34.371,48.071 L29.371,46.071 C29.133,45.977 28.867,45.977 28.629,46.071 L23.629,48.071 C23.249,48.224 23,48.591 23,49 L23,56 C23,56.409 23.249,56.776 23.629,56.929 L28.629,58.929 C28.748,58.976 28.874,59 29,59 C29.126,59 29.252,58.976 29.371,58.929 L34,57.077 L34,63 C34,63.409 34.249,63.776 34.629,63.929 L39.629,65.929 C39.748,65.976 39.874,66 40,66 C40.126,66 40.252,65.976 40.371,65.929 L45.371,63.929 C45.751,63.776 46,63.409 46,63 L46,57.077 L50.629,58.929 C50.748,58.976 50.874,59 51,59 C51.126,59 51.252,58.976 51.371,58.929 L56.371,56.929 C56.751,56.776 57,56.409 57,56 L57,49 C57,48.591 56.751,48.224 56.371,48.071 L56.371,48.071 Z M65,35.938 C65,41.783 52.119,44.938 40,44.938 C27.881,44.938 15,41.783 15,35.938 C15,33.147 18.095,30.69 23.715,29.019 L24.285,30.936 C19.791,32.272 17,34.189 17,35.938 C17,39.249 26.445,42.938 40,42.938 C53.555,42.938 63,39.249 63,35.938 C63,34.189 60.209,32.272 55.715,30.936 L56.285,29.019 C61.905,30.69 65,33.147 65,35.938 L65,35.938 Z M40,17.071 L50.214,21 L40,24.929 L29.786,21 L40,17.071 Z M50.58,36.842 C48.694,37.686 45.528,38.669 41,38.801 L41,26.687 L52,22.457 L52,34.648 C52,35.599 51.444,36.46 50.58,36.842 L50.58,36.842 Z M28,34.648 L28,22.457 L39,26.687 L39,38.801 C34.472,38.669 31.306,37.686 29.416,36.84 C28.556,36.46 28,35.599 28,34.648 L28,34.648 Z M28.604,38.667 C30.805,39.652 34.569,40.827 40,40.827 C45.431,40.827 49.195,39.652 51.393,38.669 C52.977,37.968 54,36.39 54,34.648 L54,21 C54,20.586 53.745,20.215 53.359,20.066 L40.359,15.066 C40.127,14.978 39.873,14.978 39.641,15.066 L26.641,20.066 C26.255,20.215 26,20.586 26,21 L26,34.648 C26,36.39 27.023,37.968 28.604,38.667 L28.604,38.667 Z" id="AWS-Fargate_Icon_64_Squid" fill="#FFFFFF"></path>
</g></svg></g>
      <rect x="8" y="78" width="92" height="3"
            rx="1.5" ry="1.5" fill="#ED7100"/>
      <text x="54" y="74" text-anchor="middle"
            font-family="Inter, system-ui, sans-serif" font-size="11" font-weight="700"
            fill="#1E293B">Fargate Task</text>
      <text x="54" y="100" text-anchor="middle" font-family="Inter, system-ui, sans-serif" font-size="10" fill="#64748B" font-weight="500">AZ 1a</text>
    </g>
<g id="svc-task-2" transform="translate(740, 430)">
      <rect x="0" y="0" width="108" height="82" rx="10" ry="10"
            fill="#ffffff" stroke="#CBD5E1" stroke-width="1"/>
      <defs><clipPath id="clip-task-2"><rect x="36" y="6" width="36" height="36"/></clipPath></defs><g clip-path="url(#clip-task-2)"><svg x="36" y="6" width="36" height="36" viewBox="0 0 80.0 80.0" preserveAspectRatio="xMidYMid meet" overflow="hidden"><title>Icon-Architecture/64/Arch_AWS-Fargate_64</title>
<g id="Icon-Architecture/64/Arch_AWS-Fargate_64" stroke="none" stroke-width="1" fill="none" fill-rule="evenodd">
    <g id="Icon-Architecture-BG/64/Compute" fill="#ED7100">
        <rect id="Rectangle" x="0" y="0" width="80" height="80"></rect>
    </g>
    <path d="M52,56.523 L52,51.677 L55,50.477 L55,55.323 L52,56.523 Z M47,50.477 L50,51.677 L50,56.523 L47,55.323 L47,50.477 Z M41,63.523 L41,58.677 L44,57.477 L44,62.323 L41,63.523 Z M36,57.477 L39,58.677 L39,63.523 L36,62.323 L36,57.477 Z M30,56.523 L30,51.677 L33,50.477 L33,55.323 L30,56.523 Z M25,50.477 L28,51.677 L28,56.523 L25,55.323 L25,50.477 Z M29,48.077 L31.308,49 L29,49.923 L26.692,49 L29,48.077 Z M40,55.077 L42.308,56 L40,56.923 L37.692,56 L40,55.077 Z M51,48.077 L53.308,49 L51,49.923 L48.692,49 L51,48.077 Z M56.371,48.071 L51.371,46.071 C51.133,45.977 50.867,45.977 50.629,46.071 L45.629,48.071 C45.249,48.224 45,48.591 45,49 L45,54.923 L40.371,53.071 C40.133,52.977 39.867,52.977 39.629,53.071 L35,54.923 L35,49 C35,48.591 34.751,48.224 34.371,48.071 L29.371,46.071 C29.133,45.977 28.867,45.977 28.629,46.071 L23.629,48.071 C23.249,48.224 23,48.591 23,49 L23,56 C23,56.409 23.249,56.776 23.629,56.929 L28.629,58.929 C28.748,58.976 28.874,59 29,59 C29.126,59 29.252,58.976 29.371,58.929 L34,57.077 L34,63 C34,63.409 34.249,63.776 34.629,63.929 L39.629,65.929 C39.748,65.976 39.874,66 40,66 C40.126,66 40.252,65.976 40.371,65.929 L45.371,63.929 C45.751,63.776 46,63.409 46,63 L46,57.077 L50.629,58.929 C50.748,58.976 50.874,59 51,59 C51.126,59 51.252,58.976 51.371,58.929 L56.371,56.929 C56.751,56.776 57,56.409 57,56 L57,49 C57,48.591 56.751,48.224 56.371,48.071 L56.371,48.071 Z M65,35.938 C65,41.783 52.119,44.938 40,44.938 C27.881,44.938 15,41.783 15,35.938 C15,33.147 18.095,30.69 23.715,29.019 L24.285,30.936 C19.791,32.272 17,34.189 17,35.938 C17,39.249 26.445,42.938 40,42.938 C53.555,42.938 63,39.249 63,35.938 C63,34.189 60.209,32.272 55.715,30.936 L56.285,29.019 C61.905,30.69 65,33.147 65,35.938 L65,35.938 Z M40,17.071 L50.214,21 L40,24.929 L29.786,21 L40,17.071 Z M50.58,36.842 C48.694,37.686 45.528,38.669 41,38.801 L41,26.687 L52,22.457 L52,34.648 C52,35.599 51.444,36.46 50.58,36.842 L50.58,36.842 Z M28,34.648 L28,22.457 L39,26.687 L39,38.801 C34.472,38.669 31.306,37.686 29.416,36.84 C28.556,36.46 28,35.599 28,34.648 L28,34.648 Z M28.604,38.667 C30.805,39.652 34.569,40.827 40,40.827 C45.431,40.827 49.195,39.652 51.393,38.669 C52.977,37.968 54,36.39 54,34.648 L54,21 C54,20.586 53.745,20.215 53.359,20.066 L40.359,15.066 C40.127,14.978 39.873,14.978 39.641,15.066 L26.641,20.066 C26.255,20.215 26,20.586 26,21 L26,34.648 C26,36.39 27.023,37.968 28.604,38.667 L28.604,38.667 Z" id="AWS-Fargate_Icon_64_Squid" fill="#FFFFFF"></path>
</g></svg></g>
      <rect x="8" y="78" width="92" height="3"
            rx="1.5" ry="1.5" fill="#ED7100"/>
      <text x="54" y="74" text-anchor="middle"
            font-family="Inter, system-ui, sans-serif" font-size="11" font-weight="700"
            fill="#1E293B">Fargate Task</text>
      <text x="54" y="100" text-anchor="middle" font-family="Inter, system-ui, sans-serif" font-size="10" fill="#64748B" font-weight="500">AZ 1c</text>
    </g>
<g id="svc-nginx" transform="translate(600, 560)">
      <rect x="0" y="0" width="108" height="82" rx="10" ry="10"
            fill="#ffffff" stroke="#CBD5E1" stroke-width="1"/>
      <defs><clipPath id="clip-nginx"><rect x="36" y="6" width="36" height="36"/></clipPath></defs><g clip-path="url(#clip-nginx)"><svg x="36" y="6" width="36" height="36" viewBox="0 0 48.0 48.0" preserveAspectRatio="xMidYMid meet" overflow="hidden"><title>Icon-Resource/General-Resource/Res_Traditional-server_48_Light</title>
<g id="Icon-Resource/General-Resource/Res_Traditional-server_48" stroke="none" stroke-width="1" fill="none" fill-rule="evenodd">
    <path d="M15.437,21.52 L32.064,21.52 L32.064,19.52 L15.437,19.52 L15.437,21.52 Z M15.437,17.196 L32.064,17.196 L32.064,15.196 L15.437,15.196 L15.437,17.196 Z M15.437,12.762 L32.064,12.762 L32.064,10.762 L15.437,10.762 L15.437,12.762 Z M15.437,8.494 L32.064,8.494 L32.064,6.494 L15.437,6.494 L15.437,8.494 Z M13,44.013 L34.499,44.013 L34.499,4 L13,4 L13,44.013 Z M35.032,2 L12.468,2 C11.659,2 11,2.659 11,3.469 L11,44.545 C11,45.355 11.659,46.013 12.468,46.013 L35.032,46.013 C35.841,46.013 36.499,45.355 36.499,44.545 L36.499,3.469 C36.499,2.659 35.841,2 35.032,2 L35.032,2 Z" id="Fill-18" fill="#232F3D"></path>
</g></svg></g>
      <rect x="8" y="78" width="92" height="3"
            rx="1.5" ry="1.5" fill="#ED7100"/>
      <text x="54" y="74" text-anchor="middle"
            font-family="Inter, system-ui, sans-serif" font-size="11" font-weight="700"
            fill="#1E293B">Nginx</text>
      <text x="54" y="100" text-anchor="middle" font-family="Inter, system-ui, sans-serif" font-size="10" fill="#64748B" font-weight="500">sidecar</text>
    </g>
<g id="svc-app" transform="translate(740, 560)">
      <rect x="0" y="0" width="108" height="82" rx="10" ry="10"
            fill="#ffffff" stroke="#CBD5E1" stroke-width="1"/>
      <defs><clipPath id="clip-app"><rect x="36" y="6" width="36" height="36"/></clipPath></defs><g clip-path="url(#clip-app)"><svg x="36" y="6" width="36" height="36" viewBox="0 0 80.0 80.0" preserveAspectRatio="xMidYMid meet" overflow="hidden"><title>Icon-Architecture/64/Arch_Amazon-EC2_64</title>
<g id="Icon-Architecture/64/Arch_Amazon-EC2_64" stroke="none" stroke-width="1" fill="none" fill-rule="evenodd">
    <g id="Icon-Architecture-BG/64/Compute" fill="#ED7100">
        <rect id="Rectangle" x="0" y="0" width="80" height="80"></rect>
    </g>
    <path d="M27,53 L52,53 L52,28 L27,28 L27,53 Z M54,28 L58,28 L58,30 L54,30 L54,34 L58,34 L58,36 L54,36 L54,39 L58,39 L58,41 L54,41 L54,45 L58,45 L58,47 L54,47 L54,51 L58,51 L58,53 L54,53 L54,53.136 C54,54.164 53.164,55 52.136,55 L52,55 L52,59 L50,59 L50,55 L46,55 L46,59 L44,59 L44,55 L41,55 L41,59 L39,59 L39,55 L35,55 L35,59 L33,59 L33,55 L29,55 L29,59 L27,59 L27,55 L26.864,55 C25.836,55 25,54.164 25,53.136 L25,53 L22,53 L22,51 L25,51 L25,47 L22,47 L22,45 L25,45 L25,41 L22,41 L22,39 L25,39 L25,36 L22,36 L22,34 L25,34 L25,30 L22,30 L22,28 L25,28 L25,27.864 C25,26.836 25.836,26 26.864,26 L27,26 L27,22 L29,22 L29,26 L33,26 L33,22 L35,22 L35,26 L39,26 L39,22 L41,22 L41,26 L44,26 L44,22 L46,22 L46,26 L50,26 L50,22 L52,22 L52,26 L52.136,26 C53.164,26 54,26.836 54,27.864 L54,28 Z M41,65.876 C41,65.944 40.944,66 40.876,66 L14.124,66 C14.056,66 14,65.944 14,65.876 L14,39.124 C14,39.056 14.056,39 14.124,39 L20,39 L20,37 L14.124,37 C12.953,37 12,37.953 12,39.124 L12,65.876 C12,67.047 12.953,68 14.124,68 L40.876,68 C42.047,68 43,67.047 43,65.876 L43,61 L41,61 L41,65.876 Z M68,14.124 L68,40.876 C68,42.047 67.047,43 65.876,43 L60,43 L60,41 L65.876,41 C65.944,41 66,40.944 66,40.876 L66,14.124 C66,14.056 65.944,14 65.876,14 L39.124,14 C39.056,14 39,14.056 39,14.124 L39,20 L37,20 L37,14.124 C37,12.953 37.953,12 39.124,12 L65.876,12 C67.047,12 68,12.953 68,14.124 L68,14.124 Z" id="Amazon-EC2_Icon_64_Squid" fill="#FFFFFF"></path>
</g></svg></g>
      <rect x="8" y="78" width="92" height="3"
            rx="1.5" ry="1.5" fill="#ED7100"/>
      <text x="54" y="74" text-anchor="middle"
            font-family="Inter, system-ui, sans-serif" font-size="11" font-weight="700"
            fill="#1E293B">App</text>
      <text x="54" y="100" text-anchor="middle" font-family="Inter, system-ui, sans-serif" font-size="10" fill="#64748B" font-weight="500">container</text>
    </g>
<g id="svc-ecr" transform="translate(1000, 265)">
      <rect x="0" y="0" width="108" height="82" rx="10" ry="10"
            fill="#ffffff" stroke="#CBD5E1" stroke-width="1"/>
      <defs><clipPath id="clip-ecr"><rect x="36" y="6" width="36" height="36"/></clipPath></defs><g clip-path="url(#clip-ecr)"><svg x="36" y="6" width="36" height="36" viewBox="0 0 80.0 80.0" preserveAspectRatio="xMidYMid meet" overflow="hidden"><title>Icon-Architecture/64/Arch_Amazon-Elastic-Container-Registry_64</title>
<g id="Icon-Architecture/64/Arch_Amazon-Elastic-Container-Registry_64" stroke="none" stroke-width="1" fill="none" fill-rule="evenodd">
    <g id="Icon-Architecture-BG/64/Compute" fill="#ED7100">
        <rect id="Rectangle" x="0" y="0" width="80" height="80"></rect>
    </g>
    <path d="M38.7880741,37.5776945 C38.2933845,37.8655125 37.9855777,38.4000317 37.9855777,38.973662 L37.9855777,66.7195186 L16.9987459,54.9841655 L16.9987459,27.7076428 L40.5569643,14.0588515 L61.484833,24.4283226 L38.7880741,37.5776945 Z M63.9203049,24.4022485 C63.9203049,23.8276153 63.6134974,23.2920933 63.0598448,22.9751927 L41.3464689,12.2146099 C40.8507799,11.9287976 40.2351662,11.9277948 39.7404766,12.2156128 L15.8024965,26.0840283 C15.3078069,26.3718463 15,26.9063655 15,27.4799958 L15,55.2158239 C15,55.7894542 15.3078069,56.3239734 15.8174871,56.6198142 L37.573836,68.7853901 C37.8216805,68.9287976 38.1005056,69 38.3783312,69 C38.6551575,69 38.9339826,68.9287976 39.1808277,68.7853901 C39.6765167,68.4985749 39.9843236,67.9640557 39.9843236,67.3894226 L39.9843236,39.201309 L63.1178084,25.798216 C63.6134974,25.5114008 63.9203049,24.9768817 63.9203049,24.4022485 L63.9203049,24.4022485 Z M63.9692742,55.0473451 L44.9811883,66.6613533 L44.9811883,56.2617967 L54.881976,49.872638 L54.9499334,49.424364 C54.9679221,49.3070305 54.9749177,49.3070305 54.9749177,48.7664942 L55.0058983,36.3602344 L64.0002547,31.1484218 L63.9692742,55.0473451 Z M65.1965042,29.0715191 C64.6998158,28.7816953 64.0842021,28.7826982 63.5885131,29.0715191 L54.0135209,34.6182835 C53.713709,34.7817481 53.0081517,35.1658398 53.0081517,35.9580914 L52.9761718,48.7173546 L43.8508975,54.606091 C43.3062392,54.9310145 42.9824424,55.4454766 42.9824424,55.9890214 L42.9824424,67.3081917 C42.9824424,67.8748021 43.2872511,68.3912699 43.7979307,68.6871107 C44.0647633,68.8405468 44.361577,68.9187691 44.6573914,68.9187691 C44.948209,68.9187691 45.2390265,68.8445582 45.5018616,68.692125 L65.1675223,56.6639396 C65.6622119,56.3761216 65.9680201,55.8416024 65.9680201,55.2709807 L66,30.4664837 C66,29.8928534 65.6921931,29.3583342 65.1965042,29.0715191 L65.1965042,29.0715191 Z" id="Amazon-Elastic-Container-Registry_Icon_64_Squid" fill="#FFFFFF"></path>
</g></svg></g>
      <rect x="8" y="78" width="92" height="3"
            rx="1.5" ry="1.5" fill="#ED7100"/>
      <text x="54" y="74" text-anchor="middle"
            font-family="Inter, system-ui, sans-serif" font-size="11" font-weight="700"
            fill="#1E293B">ECR</text>
      <text x="54" y="100" text-anchor="middle" font-family="Inter, system-ui, sans-serif" font-size="10" fill="#64748B" font-weight="500">image repo</text>
    </g>
<g id="svc-artifact" transform="translate(1140, 265)">
      <rect x="0" y="0" width="108" height="82" rx="10" ry="10"
            fill="#ffffff" stroke="#CBD5E1" stroke-width="1"/>
      <defs><clipPath id="clip-artifact"><rect x="36" y="6" width="36" height="36"/></clipPath></defs><g clip-path="url(#clip-artifact)"><svg x="36" y="6" width="36" height="36" viewBox="0 0 80.0 80.0" preserveAspectRatio="xMidYMid meet" overflow="hidden"><title>Icon-Architecture/64/Arch_Amazon-Simple-Storage-Service_64</title>
<g id="Icon-Architecture/64/Arch_Amazon-Simple-Storage-Service_64" stroke="none" stroke-width="1" fill="none" fill-rule="evenodd">
    <g id="Icon-Architecture-BG/64/Storage" fill="#7AA116">
        <rect id="Rectangle" x="0" y="0" width="80" height="80"></rect>
    </g>
    <g id="Icon-Service/64/Amazon-Simple-Storage-Service_64" transform="translate(12.999900, 11.999600)" fill="#FFFFFF">
        <path d="M47.836,30.893 L48.22,28.189 C51.761,30.31 51.807,31.186 51.8060132,31.21 C51.8,31.215 51.196,31.719 47.836,30.893 L47.836,30.893 Z M45.893,30.353 C39.773,28.501 31.25,24.591 27.801,22.961 C27.801,22.947 27.805,22.934 27.805,22.92 C27.805,21.595 26.727,20.517 25.401,20.517 C24.077,20.517 22.999,21.595 22.999,22.92 C22.999,24.245 24.077,25.323 25.401,25.323 C25.983,25.323 26.511,25.106 26.928,24.761 C30.986,26.682 39.443,30.535 45.608,32.355 L43.17,49.561 C43.163,49.608 43.16,49.655 43.16,49.702 C43.16,51.217 36.453,54 25.494,54 C14.419,54 7.641,51.217 7.641,49.702 C7.641,49.656 7.638,49.611 7.632,49.566 L2.538,12.359 C6.947,15.394 16.43,17 25.5,17 C34.556,17 44.023,15.4 48.441,12.374 L45.893,30.353 Z M2,8.478 C2.072,7.162 9.634,2 25.5,2 C41.364,2 48.927,7.161 49,8.478 L49,8.927 C48.13,11.878 38.33,15 25.5,15 C12.648,15 2.843,11.868 2,8.913 L2,8.478 Z M51,8.5 C51,5.035 41.066,0 25.5,0 C9.934,0 0,5.035 0,8.5 L0.094,9.254 L5.642,49.778 C5.775,54.31 17.861,56 25.494,56 C34.966,56 45.029,53.822 45.159,49.781 L47.555,32.884 C48.888,33.203 49.985,33.366 50.866,33.366 C52.049,33.366 52.849,33.077 53.334,32.499 C53.732,32.025 53.884,31.451 53.77,30.84 C53.511,29.456 51.868,27.964 48.522,26.055 L50.898,9.293 L51,8.5 Z" id="Amazon-Simple-Storage-Service-Icon_64_Squid"></path>
    </g>
</g></svg></g>
      <rect x="8" y="78" width="92" height="3"
            rx="1.5" ry="1.5" fill="#7AA116"/>
      <text x="54" y="74" text-anchor="middle"
            font-family="Inter, system-ui, sans-serif" font-size="11" font-weight="700"
            fill="#1E293B">S3 Artifact</text>
      <text x="54" y="100" text-anchor="middle" font-family="Inter, system-ui, sans-serif" font-size="10" fill="#64748B" font-weight="500">build output</text>
    </g>
<g id="svc-ssm" transform="translate(1000, 380)">
      <rect x="0" y="0" width="108" height="82" rx="10" ry="10"
            fill="#ffffff" stroke="#CBD5E1" stroke-width="1"/>
      <defs><clipPath id="clip-ssm"><rect x="36" y="6" width="36" height="36"/></clipPath></defs><g clip-path="url(#clip-ssm)"><svg x="36" y="6" width="36" height="36" viewBox="0 0 80.0 80.0" preserveAspectRatio="xMidYMid meet" overflow="hidden"><title>Icon-Architecture/64/Arch_AWS-Systems-Manager_64</title>
<g id="Icon-Architecture/64/Arch_AWS-Systems-Manager_64" stroke="none" stroke-width="1" fill="none" fill-rule="evenodd">
    <g id="Icon-Architecture-BG/64/Management-Governance" fill="#E7157B">
        <rect id="Rectangle" x="0" y="0" width="80" height="80"></rect>
    </g>
    <path d="M47,54.998059 L60,54.998059 L60,56.9983576 L47,56.9983576 L47,58.9986562 L45,58.9986562 L45,56.9983576 L41,56.9983576 L41,54.998059 L45,54.998059 L45,53.9979097 L47,53.9979097 L47,54.998059 Z M51,48.9971632 L60,48.9971632 L60,50.9974618 L51,50.9974618 L51,52.9977604 L49,52.9977604 L49,50.9974618 L41,50.9974618 L41,48.9971632 L49,48.9971632 L49,47.9970139 L51,47.9970139 L51,48.9971632 Z M56,42.9962674 L60,42.9962674 L60,44.996566 L56,44.996566 L56,46.9968646 L54,46.9968646 L54,44.996566 L41,44.996566 L41,42.9962674 L54,42.9962674 L54,41.9961181 L56,41.9961181 L56,42.9962674 Z M21,46.9968646 L30,46.9968646 L30,48.9971632 L21,48.9971632 C19.745,48.9971632 18.404,48.6201069 17.413,47.9890127 C15.393,46.7098217 12,43.7153747 12,38.0415277 C12,31.1605005 16.665,28.6351235 19.38,27.7499913 L19.326,26.8338546 C19.324,21.1660085 23.074,15.3541409 28.046,13.2568278 C33.869,10.7814582 40.036,12.0076413 44.545,16.5373175 C45.944,17.9385267 47.096,19.6477818 47.978,21.6310779 C49.749,20.1558577 52.16,19.6507823 54.4,20.385892 C57.247,21.3200315 59.019,23.9514243 59.227,27.4939531 C62.065,28.1730545 68,30.5084031 68,38.1315411 C68,38.4165837 67.989,38.6916247 67.978,38.954664 L65.979,38.9016561 C65.989,38.6346162 66,38.3885795 66,38.1315411 C66,31.3975359 60.443,29.7062834 58.054,29.2922216 C57.784,29.2452146 57.546,29.0911916 57.394,28.8641577 C57.243,28.6391241 57.19,28.3630829 57.246,28.0980433 C57.217,25.1165982 55.956,23.0012824 53.776,22.2861757 C51.823,21.6430797 49.677,22.3521855 48.434,24.0444382 C48.214,24.3414825 47.853,24.4965057 47.482,24.4404973 C47.116,24.3874894 46.81,24.1354518 46.686,23.7863996 C45.853,21.4430498 44.656,19.4797567 43.129,17.9505284 C39.216,14.0189415 33.867,12.9547827 28.826,15.0991028 C24.618,16.8733676 21.324,22.0021333 21.324,26.7748458 L21.423,28.4290927 C21.451,28.9071641 21.136,29.3382284 20.671,29.4562461 C18.18,30.0903407 14,32.0486331 14,38.0415277 C14,42.5211964 16.438,45.0045672 18.485,46.2997605 C19.16,46.7308249 20.123,46.9968646 21,46.9968646 L21,46.9968646 Z M66,52.3176589 L64.236,52.2166438 C63.763,52.1916401 63.312,52.5176887 63.204,52.9957601 C62.866,54.4939838 62.278,55.9141958 61.456,57.2163902 C61.195,57.630452 61.271,58.1715328 61.637,58.4975814 L62.954,59.6717567 L59.673,62.9542468 L58.502,61.6410507 C58.176,61.2739959 57.633,61.1999849 57.222,61.4610238 C55.92,62.2831466 54.499,62.8722345 52.997,63.2112851 C52.521,63.3193012 52.191,63.7563665 52.22,64.2444394 L52.32,65.9997014 L47.68,65.9997014 L47.78,64.2424391 C47.809,63.7543662 47.479,63.317301 47.003,63.2092848 C45.505,62.8712344 44.084,62.2811463 42.78,61.4580234 C42.367,61.1959843 41.825,61.2709955 41.5,61.6380503 L40.326,62.9532466 L37.046,59.6717567 L38.361,58.4995817 C38.726,58.1735331 38.802,57.6324523 38.541,57.2193906 C37.72,55.9171962 37.132,54.4969842 36.794,52.9957601 C36.687,52.5176887 36.209,52.1916401 35.762,52.2166438 L34,52.3176589 L34,47.6769661 L35.768,47.7779812 C36.233,47.8039851 36.691,47.4769362 36.8,46.999865 C37.139,45.5046418 37.728,44.0864301 38.55,42.7852359 C38.811,42.371174 38.734,41.8290931 38.37,41.5040446 L37.046,40.3228683 L40.327,37.0413784 L41.508,38.3645759 C41.834,38.7286303 42.376,38.8036415 42.787,38.5436027 C44.087,37.7244804 45.505,37.1373927 47.003,36.7993423 C47.479,36.6913261 47.809,36.2542609 47.78,35.766188 L47.68,33.9949236 L52.32,33.9949236 L52.22,35.7681883 C52.191,36.2562612 52.521,36.6923263 52.997,36.8003424 C54.492,37.139393 55.909,37.7264807 57.211,38.5466031 C57.622,38.8076421 58.165,38.7316307 58.49,38.3675764 L59.673,37.0413784 L62.954,40.3228683 L61.633,41.5010441 C61.269,41.8270928 61.192,42.3681736 61.453,42.7822354 C62.275,44.0834297 62.864,45.5026415 63.202,46.999865 C63.31,47.4759361 63.763,47.8039851 64.234,47.7779812 L66,47.6769661 L66,52.3176589 Z M66.943,45.619659 L64.942,45.733676 C64.617,44.5885051 64.16,43.4873407 63.579,42.4451851 L65.076,41.1099858 C65.281,40.9269584 65.402,40.6679198 65.41,40.3918786 C65.418,40.1178377 65.312,39.8507978 65.117,39.6567688 L60.339,34.8780554 C60.145,34.6830263 59.868,34.5710096 59.604,34.5860118 C59.328,34.594013 59.069,34.714031 58.886,34.9190616 L57.546,36.4212858 C56.505,35.8411992 55.406,35.3861313 54.263,35.0600826 L54.377,33.0517828 C54.393,32.7767418 54.295,32.5077016 54.105,32.3076717 C53.917,32.1076419 53.654,31.994625 53.379,31.994625 L46.621,31.994625 C46.346,31.994625 46.083,32.1076419 45.895,32.3076717 C45.705,32.5077016 45.607,32.7767418 45.623,33.0517828 L45.737,35.0580823 C44.592,35.3831308 43.492,35.8391989 42.452,36.4182854 L41.114,34.9190616 C40.931,34.714031 40.672,34.594013 40.396,34.5860118 C40.113,34.5730099 39.855,34.6830263 39.661,34.8780554 L34.883,39.6567688 C34.688,39.8507978 34.582,40.1178377 34.59,40.3918786 C34.598,40.6669196 34.719,40.9269584 34.924,41.1099858 L36.424,42.4481855 C35.843,43.4903411 35.386,44.5895052 35.06,45.733676 L33.057,45.619659 C32.789,45.6016563 32.513,45.7026714 32.313,45.8906994 C32.113,46.0797277 32,46.3427669 32,46.617808 L32,53.376817 C32,53.6518581 32.113,53.9148973 32.313,54.1039255 C32.513,54.2919536 32.79,54.3899682 33.057,54.374966 L35.053,54.260949 C35.378,55.4091204 35.834,56.5112849 36.415,57.5544407 L34.924,58.8836391 C34.719,59.0666664 34.598,59.3267052 34.59,59.6017463 C34.582,59.8767873 34.688,60.1438272 34.883,60.3378562 L39.661,65.1165696 C39.855,65.3115987 40.138,65.4186146 40.396,65.4096133 C40.672,65.4016121 40.932,65.280594 41.114,65.0755634 L42.444,63.5833407 C43.487,64.1664277 44.59,64.6244961 45.736,64.9505448 L45.623,66.9428422 C45.607,67.2168831 45.705,67.4859233 45.895,67.6869533 C46.083,67.8869831 46.346,68 46.621,68 L53.379,68 C53.654,68 53.917,67.8869831 54.106,67.6869533 C54.295,67.4859233 54.393,67.2168831 54.377,66.9428422 L54.264,64.9525451 C55.412,64.6254962 56.515,64.168428 57.558,63.5863411 L58.886,65.0755634 C59.068,65.280594 59.328,65.4016121 59.604,65.4096133 C59.871,65.4216151 60.145,65.3115987 60.339,65.1165696 L65.117,60.3378562 C65.312,60.1438272 65.418,59.8767873 65.41,59.6017463 C65.402,59.3267052 65.281,59.0666664 65.075,58.8836391 L63.582,57.5524404 C64.163,56.5092846 64.619,55.4071201 64.945,54.260949 L66.943,54.374966 C67.213,54.3899682 67.487,54.2919536 67.687,54.1039255 C67.887,53.9148973 68,53.6518581 68,53.376817 L68,46.617808 C68,46.3427669 67.887,46.0797277 67.687,45.8906994 C67.487,45.7026714 67.214,45.6026564 66.943,45.619659 L66.943,45.619659 Z" id="AWS-Systems-Manager_Icon_64_Squid" fill="#FFFFFF"></path>
</g></svg></g>
      <rect x="8" y="78" width="92" height="3"
            rx="1.5" ry="1.5" fill="#E7157B"/>
      <text x="54" y="74" text-anchor="middle"
            font-family="Inter, system-ui, sans-serif" font-size="11" font-weight="700"
            fill="#1E293B">SSM Parameter</text>
      <text x="54" y="100" text-anchor="middle" font-family="Inter, system-ui, sans-serif" font-size="10" fill="#64748B" font-weight="500">config / secret</text>
    </g>
<g id="svc-cw-logs" transform="translate(1000, 520)">
      <rect x="0" y="0" width="108" height="82" rx="10" ry="10"
            fill="#ffffff" stroke="#CBD5E1" stroke-width="1"/>
      <defs><clipPath id="clip-cw-logs"><rect x="36" y="6" width="36" height="36"/></clipPath></defs><g clip-path="url(#clip-cw-logs)"><svg x="36" y="6" width="36" height="36" viewBox="0 0 80.0 80.0" preserveAspectRatio="xMidYMid meet" overflow="hidden"><title>Icon-Architecture/64/Arch_Amazon-CloudWatch_64</title>
<g id="Icon-Architecture/64/Arch_Amazon-CloudWatch_64" stroke="none" stroke-width="1" fill="none" fill-rule="evenodd">
    <g id="Icon-Architecture-BG/64/Management-Governance" fill="#E7157B">
        <rect id="Rectangle" x="0" y="0" width="80" height="80"></rect>
    </g>
    <path d="M55.0592315,46.7773707 C55.0592315,42.8680281 51.8575588,39.6876305 47.9220646,39.6876305 C43.9865705,39.6876305 40.785903,42.8680281 40.785903,46.7773707 C40.785903,50.6867133 43.9865705,53.8671108 47.9220646,53.8671108 C51.8575588,53.8671108 55.0592315,50.6867133 55.0592315,46.7773707 M57.0697011,46.7773707 C57.0697011,51.7881194 52.9663327,55.8642207 47.9220646,55.8642207 C42.8788018,55.8642207 38.7754334,51.7881194 38.7754334,46.7773707 C38.7754334,41.7666219 42.8788018,37.6905206 47.9220646,37.6905206 C52.9663327,37.6905206 57.0697011,41.7666219 57.0697011,46.7773707 M65.5096522,60.4735504 L58.5011554,54.2026253 C57.9352082,54.9944794 57.2808004,55.7174332 56.5540156,56.3634982 L63.5524601,62.6334248 C64.1495696,63.1686502 65.0784065,63.1187225 65.6182176,62.5255808 C66.155013,61.9324392 66.1067617,61.010773 65.5096522,60.4735504 M47.9220646,57.6616197 C53.9645309,57.6616197 58.8801289,52.7786859 58.8801289,46.7773707 C58.8801289,40.7750569 53.9645309,35.8931217 47.9220646,35.8931217 C41.8806036,35.8931217 36.9650056,40.7750569 36.9650056,46.7773707 C36.9650056,52.7786859 41.8806036,57.6616197 47.9220646,57.6616197 M67.1119965,63.8626459 C66.4264264,64.6165549 65.47849,65 64.5285431,65 C63.7002296,65 62.8699057,64.708422 62.207456,64.1172774 L54.9305615,57.5987107 C52.9070239,58.8968321 50.505518,59.6587296 47.9220646,59.6587296 C40.7718297,59.6587296 34.9545361,53.8800921 34.9545361,46.7773707 C34.9545361,39.6746493 40.7718297,33.8960118 47.9220646,33.8960118 C55.0733048,33.8960118 60.8905985,39.6746493 60.8905985,46.7773707 C60.8905985,48.8154213 60.3990387,50.7366411 59.5465996,52.4511599 L66.8556616,58.9906963 C68.2750531,60.265851 68.3896499,62.4496907 67.1119965,63.8626459 M21.2803274,29.392529 C21.2803274,29.9117776 21.3124949,30.429029 21.3738143,30.9293051 C21.4089975,31.2138932 21.3205368,31.4984814 21.1295422,31.7131707 C20.9777518,31.8839236 20.7736891,31.9967603 20.550527,32.0347054 C18.0786547,32.6687878 14.0104695,34.5880104 14.0104695,40.3456782 C14.0104695,44.6933865 16.4240382,47.0929141 18.4495863,48.3411077 C19.1411878,48.7744806 19.9594489,49.0051468 20.8229456,49.0141338 L32.9450717,49.0251179 L32.9430613,51.0222278 L20.811888,51.0112437 C19.5664021,50.9982625 18.384246,50.6607509 17.3840374,50.0346569 C15.3765836,48.7974474 12,45.8896553 12,40.3456782 C12,33.66235 16.5999543,31.191925 19.3000149,30.319188 C19.2799102,30.0116331 19.2698579,29.702081 19.2698579,29.392529 C19.2698579,23.9324305 22.9982737,18.2696254 27.9420183,16.2215892 C33.7241287,13.8150717 39.8500294,15.0083449 44.3263399,19.4109737 C45.7135638,20.7749998 46.8545053,22.4316024 47.7300648,24.3478294 C48.9061895,23.3802296 50.355738,22.8460027 51.8836949,22.8460027 C54.8863312,22.8460027 58.2659305,25.1097268 58.8680661,30.0605622 C61.6797078,30.7046302 67.6206453,32.9553731 67.6206453,40.422567 C67.6206453,43.4042521 66.6797455,45.8666886 64.8230769,47.7419748 L63.3896121,46.3410022 C64.8632863,44.8531553 65.6101757,42.8620367 65.6101757,40.422567 C65.6101757,33.891019 60.1055101,32.2663701 57.737177,31.8719409 C57.4677741,31.827006 57.2295334,31.6752256 57.0757325,31.4515493 C56.9259525,31.2358614 56.8686541,30.9712444 56.9138897,30.7146157 C56.5851779,26.6604826 54.1605516,24.8431126 51.8836949,24.8431126 C50.4472144,24.8431126 49.1001998,25.5381069 48.1874466,26.7503526 C47.9652897,27.0439277 47.6044105,27.193711 47.2344841,27.139789 C46.8695838,27.085867 46.5629872,26.8362283 46.4373329,26.4917268 C45.6140456,24.2260057 44.4278686,22.3207628 42.9119745,20.8309188 C39.0327735,17.0154404 33.7281496,15.9809374 28.7170543,18.0649216 C24.5463352,19.7924217 21.2803274,24.7672224 21.2803274,29.392529" id="Amazon-CloudWatch_Icon_64_Squid" fill="#FFFFFF"></path>
</g></svg></g>
      <rect x="8" y="78" width="92" height="3"
            rx="1.5" ry="1.5" fill="#E7157B"/>
      <text x="54" y="74" text-anchor="middle"
            font-family="Inter, system-ui, sans-serif" font-size="11" font-weight="700"
            fill="#1E293B">CW Logs</text>
      <text x="54" y="100" text-anchor="middle" font-family="Inter, system-ui, sans-serif" font-size="10" fill="#64748B" font-weight="500">/ecs/app</text>
    </g>
<g id="svc-cw-alarm" transform="translate(1140, 520)">
      <rect x="0" y="0" width="108" height="82" rx="10" ry="10"
            fill="#ffffff" stroke="#CBD5E1" stroke-width="1"/>
      <defs><clipPath id="clip-cw-alarm"><rect x="36" y="6" width="36" height="36"/></clipPath></defs><g clip-path="url(#clip-cw-alarm)"><svg x="36" y="6" width="36" height="36" viewBox="0 0 80.0 80.0" preserveAspectRatio="xMidYMid meet" overflow="hidden"><title>Icon-Architecture/64/Arch_Amazon-CloudWatch_64</title>
<g id="Icon-Architecture/64/Arch_Amazon-CloudWatch_64" stroke="none" stroke-width="1" fill="none" fill-rule="evenodd">
    <g id="Icon-Architecture-BG/64/Management-Governance" fill="#E7157B">
        <rect id="Rectangle" x="0" y="0" width="80" height="80"></rect>
    </g>
    <path d="M55.0592315,46.7773707 C55.0592315,42.8680281 51.8575588,39.6876305 47.9220646,39.6876305 C43.9865705,39.6876305 40.785903,42.8680281 40.785903,46.7773707 C40.785903,50.6867133 43.9865705,53.8671108 47.9220646,53.8671108 C51.8575588,53.8671108 55.0592315,50.6867133 55.0592315,46.7773707 M57.0697011,46.7773707 C57.0697011,51.7881194 52.9663327,55.8642207 47.9220646,55.8642207 C42.8788018,55.8642207 38.7754334,51.7881194 38.7754334,46.7773707 C38.7754334,41.7666219 42.8788018,37.6905206 47.9220646,37.6905206 C52.9663327,37.6905206 57.0697011,41.7666219 57.0697011,46.7773707 M65.5096522,60.4735504 L58.5011554,54.2026253 C57.9352082,54.9944794 57.2808004,55.7174332 56.5540156,56.3634982 L63.5524601,62.6334248 C64.1495696,63.1686502 65.0784065,63.1187225 65.6182176,62.5255808 C66.155013,61.9324392 66.1067617,61.010773 65.5096522,60.4735504 M47.9220646,57.6616197 C53.9645309,57.6616197 58.8801289,52.7786859 58.8801289,46.7773707 C58.8801289,40.7750569 53.9645309,35.8931217 47.9220646,35.8931217 C41.8806036,35.8931217 36.9650056,40.7750569 36.9650056,46.7773707 C36.9650056,52.7786859 41.8806036,57.6616197 47.9220646,57.6616197 M67.1119965,63.8626459 C66.4264264,64.6165549 65.47849,65 64.5285431,65 C63.7002296,65 62.8699057,64.708422 62.207456,64.1172774 L54.9305615,57.5987107 C52.9070239,58.8968321 50.505518,59.6587296 47.9220646,59.6587296 C40.7718297,59.6587296 34.9545361,53.8800921 34.9545361,46.7773707 C34.9545361,39.6746493 40.7718297,33.8960118 47.9220646,33.8960118 C55.0733048,33.8960118 60.8905985,39.6746493 60.8905985,46.7773707 C60.8905985,48.8154213 60.3990387,50.7366411 59.5465996,52.4511599 L66.8556616,58.9906963 C68.2750531,60.265851 68.3896499,62.4496907 67.1119965,63.8626459 M21.2803274,29.392529 C21.2803274,29.9117776 21.3124949,30.429029 21.3738143,30.9293051 C21.4089975,31.2138932 21.3205368,31.4984814 21.1295422,31.7131707 C20.9777518,31.8839236 20.7736891,31.9967603 20.550527,32.0347054 C18.0786547,32.6687878 14.0104695,34.5880104 14.0104695,40.3456782 C14.0104695,44.6933865 16.4240382,47.0929141 18.4495863,48.3411077 C19.1411878,48.7744806 19.9594489,49.0051468 20.8229456,49.0141338 L32.9450717,49.0251179 L32.9430613,51.0222278 L20.811888,51.0112437 C19.5664021,50.9982625 18.384246,50.6607509 17.3840374,50.0346569 C15.3765836,48.7974474 12,45.8896553 12,40.3456782 C12,33.66235 16.5999543,31.191925 19.3000149,30.319188 C19.2799102,30.0116331 19.2698579,29.702081 19.2698579,29.392529 C19.2698579,23.9324305 22.9982737,18.2696254 27.9420183,16.2215892 C33.7241287,13.8150717 39.8500294,15.0083449 44.3263399,19.4109737 C45.7135638,20.7749998 46.8545053,22.4316024 47.7300648,24.3478294 C48.9061895,23.3802296 50.355738,22.8460027 51.8836949,22.8460027 C54.8863312,22.8460027 58.2659305,25.1097268 58.8680661,30.0605622 C61.6797078,30.7046302 67.6206453,32.9553731 67.6206453,40.422567 C67.6206453,43.4042521 66.6797455,45.8666886 64.8230769,47.7419748 L63.3896121,46.3410022 C64.8632863,44.8531553 65.6101757,42.8620367 65.6101757,40.422567 C65.6101757,33.891019 60.1055101,32.2663701 57.737177,31.8719409 C57.4677741,31.827006 57.2295334,31.6752256 57.0757325,31.4515493 C56.9259525,31.2358614 56.8686541,30.9712444 56.9138897,30.7146157 C56.5851779,26.6604826 54.1605516,24.8431126 51.8836949,24.8431126 C50.4472144,24.8431126 49.1001998,25.5381069 48.1874466,26.7503526 C47.9652897,27.0439277 47.6044105,27.193711 47.2344841,27.139789 C46.8695838,27.085867 46.5629872,26.8362283 46.4373329,26.4917268 C45.6140456,24.2260057 44.4278686,22.3207628 42.9119745,20.8309188 C39.0327735,17.0154404 33.7281496,15.9809374 28.7170543,18.0649216 C24.5463352,19.7924217 21.2803274,24.7672224 21.2803274,29.392529" id="Amazon-CloudWatch_Icon_64_Squid" fill="#FFFFFF"></path>
</g></svg></g>
      <rect x="8" y="78" width="92" height="3"
            rx="1.5" ry="1.5" fill="#E7157B"/>
      <text x="54" y="74" text-anchor="middle"
            font-family="Inter, system-ui, sans-serif" font-size="11" font-weight="700"
            fill="#1E293B">CW Alarm</text>
      <text x="54" y="100" text-anchor="middle" font-family="Inter, system-ui, sans-serif" font-size="10" fill="#64748B" font-weight="500">5xx / CPU</text>
    </g>
<g id="svc-sns" transform="translate(1000, 640)">
      <rect x="0" y="0" width="108" height="82" rx="10" ry="10"
            fill="#ffffff" stroke="#CBD5E1" stroke-width="1"/>
      <defs><clipPath id="clip-sns"><rect x="36" y="6" width="36" height="36"/></clipPath></defs><g clip-path="url(#clip-sns)"><svg x="36" y="6" width="36" height="36" viewBox="0 0 80.0 80.0" preserveAspectRatio="xMidYMid meet" overflow="hidden"><title>Icon-Architecture/64/Arch_Amazon-Simple-Notification-Service_64</title>
<g id="Icon-Architecture/64/Arch_Amazon-Simple-Notification-Service_64" stroke="none" stroke-width="1" fill="none" fill-rule="evenodd">
    <g id="Icon-Architecture-BG/64/Application-Integration" fill="#E7157B">
        <rect id="Rectangle" x="0" y="0" width="80" height="80"></rect>
    </g>
    <path d="M17,38 C18.103,38 19,38.897 19,40 C19,41.103 18.103,42 17,42 C15.897,42 15,41.103 15,40 C15,38.897 15.897,38 17,38 L17,38 Z M41,64 C29.314,64 19.289,55.466 17.194,43.98 C18.965,43.894 20.427,42.659 20.857,41 L27,41 L27,39 L20.857,39 C20.427,37.342 18.966,36.107 17.195,36.02 C19.285,24.71 29.511,16 41,16 C45.313,16 49.832,17.622 54.429,20.821 L55.571,19.179 C50.633,15.743 45.73,14 41,14 C28.27,14 16.949,23.865 15.063,36.521 C13.839,37.207 13,38.5 13,40 C13,41.5 13.839,42.793 15.063,43.478 C16.97,56.341 28.056,66 41,66 C46.407,66 51.942,64.157 56.585,60.811 L55.415,59.189 C51.11,62.292 45.991,64 41,64 L41,64 Z M30.101,36.442 C31.955,36.895 34.275,37 36,37 C37.642,37 39.823,36.905 41.629,36.506 L37.105,45.553 C37.036,45.691 37,45.845 37,46 L37,50.453 C36.199,50.964 34.833,51.812 34,51.986 L34,46 C34,45.868 33.974,45.737 33.923,45.615 L30.101,36.442 Z M36,33 C40.025,33 42.174,33.604 42.841,34 C42.174,34.396 40.025,35 36,35 C31.975,35 29.826,34.396 29.159,34 C29.826,33.604 31.975,33 36,33 L36,33 Z M33,54 L34,54 C34.043,54 34.086,53.997 34.128,53.992 C35.352,53.833 36.909,52.887 38.272,52.013 L38.535,51.845 C38.824,51.661 39,51.342 39,51 L39,46.236 L44.559,35.12 C44.833,34.801 45,34.434 45,34 C45,31.39 39.361,31 36,31 C32.639,31 27,31.39 27,34 C27,34.366 27.12,34.684 27.32,34.967 L32,46.2 L32,53 C32,53.552 32.447,54 33,54 L33,54 Z M62,53 C63.103,53 64,53.897 64,55 C64,56.103 63.103,57 62,57 C60.897,57 60,56.103 60,55 C60,53.897 60.897,53 62,53 L62,53 Z M62,23 C63.103,23 64,23.897 64,25 C64,26.103 63.103,27 62,27 C60.897,27 60,26.103 60,25 C60,23.897 60.897,23 62,23 L62,23 Z M64,38 C65.103,38 66,38.897 66,40 C66,41.103 65.103,42 64,42 C62.897,42 62,41.103 62,40 C62,38.897 62.897,38 64,38 L64,38 Z M54,41 L60.143,41 C60.589,42.72 62.142,44 64,44 C66.206,44 68,42.206 68,40 C68,37.794 66.206,36 64,36 C62.142,36 60.589,37.28 60.143,39 L54,39 L54,26 L58.143,26 C58.589,27.72 60.142,29 62,29 C64.206,29 66,27.206 66,25 C66,22.794 64.206,21 62,21 C60.142,21 58.589,22.28 58.143,24 L53,24 C52.447,24 52,24.448 52,25 L52,39 L45,39 L45,41 L52,41 L52,55 C52,55.552 52.447,56 53,56 L58.143,56 C58.589,57.72 60.142,59 62,59 C64.206,59 66,57.206 66,55 C66,52.794 64.206,51 62,51 C60.142,51 58.589,52.28 58.143,54 L54,54 L54,41 Z" id="AWS-Simple-Notification-Service_Icon_64_Squid" fill="#FFFFFF"></path>
</g></svg></g>
      <rect x="8" y="78" width="92" height="3"
            rx="1.5" ry="1.5" fill="#E7157B"/>
      <text x="54" y="74" text-anchor="middle"
            font-family="Inter, system-ui, sans-serif" font-size="11" font-weight="700"
            fill="#1E293B">SNS Topic</text>
      <text x="54" y="100" text-anchor="middle" font-family="Inter, system-ui, sans-serif" font-size="10" fill="#64748B" font-weight="500">ops-alerts</text>
    </g>
<g id="svc-cfn" transform="translate(1140, 640)">
      <rect x="0" y="0" width="108" height="82" rx="10" ry="10"
            fill="#ffffff" stroke="#CBD5E1" stroke-width="1"/>
      <defs><clipPath id="clip-cfn"><rect x="36" y="6" width="36" height="36"/></clipPath></defs><g clip-path="url(#clip-cfn)"><svg x="36" y="6" width="36" height="36" viewBox="0 0 80.0 80.0" preserveAspectRatio="xMidYMid meet" overflow="hidden"><title>Icon-Architecture/64/Arch_AWS-CloudFormation_64</title>
<g id="Icon-Architecture/64/Arch_AWS-CloudFormation_64" stroke="none" stroke-width="1" fill="none" fill-rule="evenodd">
    <g id="Icon-Architecture-BG/64/Management-Governance" fill="#E7157B">
        <rect id="Rectangle" x="0" y="0" width="80" height="80"></rect>
    </g>
    <path d="M53,39.9632039 L58,39.9632039 L58,37.9601375 L53,37.9601375 L53,39.9632039 Z M28,51.9816019 L33,51.9816019 L33,49.9785356 L28,49.9785356 L28,51.9816019 Z M18,51.9816019 L25,51.9816019 L25,49.9785356 L18,49.9785356 L18,51.9816019 Z M18,45.9724029 L30,45.9724029 L30,43.9693366 L18,43.9693366 L18,45.9724029 Z M18,33.9540048 L27,33.9540048 L27,31.9509385 L18,31.9509385 L18,33.9540048 Z M18,39.9632039 L51,39.9632039 L51,37.9601375 L18,37.9601375 L18,39.9632039 Z M37,61.9969337 L14,61.9969337 L14,27.9448058 L37,27.9448058 L37,35.9570712 L39,35.9570712 L39,26.9432726 C39,26.3904263 38.552,25.9417395 38,25.9417395 L13,25.9417395 C12.447,25.9417395 12,26.3904263 12,26.9432726 L12,62.9984668 C12,63.5513131 12.447,64 13,64 L38,64 C38.552,64 39,63.5513131 39,62.9984668 L39,42.9678034 L37,42.9678034 L37,61.9969337 Z M68,36.9586044 C68,43.4305117 62.173,45.6819583 59.092,45.9683968 L43,45.9724029 L43,43.9693366 L59,43.9693366 C59.195,43.9463013 66,43.2121775 66,36.9586044 C66,31.2638867 60.863,30.1081175 59.834,29.9338507 C59.321,29.8467173 58.96,29.3820059 59.004,28.8632117 C59.005,28.8441826 59.007,28.826155 59.009,28.8081274 C58.954,25.5902013 56.981,24.584662 56.126,24.3002266 C54.53,23.769414 52.751,24.2771913 51.81,25.5391231 C51.591,25.8355769 51.229,25.9868085 50.861,25.9307226 C50.497,25.8756383 50.192,25.625255 50.068,25.2767214 C49.447,23.5360568 48.546,22.4083304 47.293,21.1534094 C44.159,18.0386412 39.905,17.1783242 35.925,18.8528877 C33.837,19.7332353 32.012,21.7282894 30.922,24.327268 L29.078,23.5500782 C30.37,20.4743699 32.584,18.0887179 35.15,17.007062 C39.905,15.0049972 44.971,16.0255595 48.704,19.7342369 C49.774,20.8068789 50.66,21.851478 51.35,23.2035478 C52.843,22.0978551 54.857,21.7673492 56.757,22.3993166 C59.189,23.2085554 60.727,25.3207889 60.975,28.1290879 C64.381,28.9884034 68,31.7115721 68,36.9586044 L68,36.9586044 Z" id="AWS-CloudFormation_Icon_64_Squid" fill="#FFFFFF"></path>
</g></svg></g>
      <rect x="8" y="78" width="92" height="3"
            rx="1.5" ry="1.5" fill="#E7157B"/>
      <text x="54" y="74" text-anchor="middle"
            font-family="Inter, system-ui, sans-serif" font-size="11" font-weight="700"
            fill="#1E293B">CloudFormation</text>

    </g>
<path d="M 114 262 L 114 320" fill="none" stroke="#334155" stroke-width="1.6" stroke-linecap="round" stroke-linejoin="round" marker-end="url(#arrowhead)"/><rect x="94" y="281" width="40" height="16" rx="4" fill="#ffffff" stroke="#E2E8F0" stroke-width="0.8"/><text x="114" y="293" text-anchor="middle" font-family="Inter, system-ui, sans-serif" font-size="10" fill="#334155" font-weight="600">push</text>
<path d="M 168 361 L 210 361" fill="none" stroke="#334155" stroke-width="1.6" stroke-linecap="round" stroke-linejoin="round" marker-end="url(#arrowhead)"/><rect x="157" y="351" width="64" height="16" rx="4" fill="#ffffff" stroke="#E2E8F0" stroke-width="0.8"/><text x="189" y="363" text-anchor="middle" font-family="Inter, system-ui, sans-serif" font-size="10" fill="#334155" font-weight="600">trigger</text>
<path d="M 210 361 L 168 501" fill="none" stroke="#334155" stroke-width="1.6" stroke-linecap="round" stroke-linejoin="round" stroke-dasharray="5 4" marker-end="url(#arrowhead)"/><rect x="153" y="421" width="72" height="16" rx="4" fill="#ffffff" stroke="#E2E8F0" stroke-width="0.8"/><text x="189" y="433" text-anchor="middle" font-family="Inter, system-ui, sans-serif" font-size="10" fill="#334155" font-weight="600">exchange</text>
<path d="M 168 501 L 210 501" fill="none" stroke="#334155" stroke-width="1.6" stroke-linecap="round" stroke-linejoin="round" stroke-dasharray="5 4" marker-end="url(#arrowhead)"/><rect x="161" y="491" width="56" height="16" rx="4" fill="#ffffff" stroke="#E2E8F0" stroke-width="0.8"/><text x="189" y="503" text-anchor="middle" font-family="Inter, system-ui, sans-serif" font-size="10" fill="#334155" font-weight="600">assume</text>
<path d="M 318 361 L 1000 306" fill="none" stroke="#334155" stroke-width="1.6" stroke-linecap="round" stroke-linejoin="round" marker-end="url(#arrowhead)"/><rect x="611" y="323" width="96" height="16" rx="4" fill="#ffffff" stroke="#E2E8F0" stroke-width="0.8"/><text x="659" y="335" text-anchor="middle" font-family="Inter, system-ui, sans-serif" font-size="10" fill="#334155" font-weight="600">docker push</text>
<path d="M 318 361 L 1140 306" fill="none" stroke="#334155" stroke-width="1.6" stroke-linecap="round" stroke-linejoin="round" stroke-dasharray="5 4" marker-end="url(#arrowhead)"/><rect x="701" y="323" width="56" height="16" rx="4" fill="#ffffff" stroke="#E2E8F0" stroke-width="0.8"/><text x="729" y="335" text-anchor="middle" font-family="Inter, system-ui, sans-serif" font-size="10" fill="#334155" font-weight="600">upload</text>
<path d="M 264 402 L 494 560" fill="none" stroke="#334155" stroke-width="1.6" stroke-linecap="round" stroke-linejoin="round" stroke-dasharray="5 4" marker-end="url(#arrowhead)"/><rect x="343" y="471" width="72" height="16" rx="4" fill="#ffffff" stroke="#E2E8F0" stroke-width="0.8"/><text x="379" y="483" text-anchor="middle" font-family="Inter, system-ui, sans-serif" font-size="10" fill="#334155" font-weight="600">register</text>
<path d="M 318 361 L 440 471" fill="none" stroke="#334155" stroke-width="1.6" stroke-linecap="round" stroke-linejoin="round" marker-end="url(#arrowhead)"/><rect x="319" y="406" width="120" height="16" rx="4" fill="#ffffff" stroke="#E2E8F0" stroke-width="0.8"/><text x="379" y="418" text-anchor="middle" font-family="Inter, system-ui, sans-serif" font-size="10" fill="#334155" font-weight="600">update-service</text>
<path d="M 494 560 L 494 512" fill="none" stroke="#334155" stroke-width="1.6" stroke-linecap="round" stroke-linejoin="round" stroke-dasharray="5 4" marker-end="url(#arrowhead)"/><rect x="478" y="526" width="32" height="16" rx="4" fill="#ffffff" stroke="#E2E8F0" stroke-width="0.8"/><text x="494" y="538" text-anchor="middle" font-family="Inter, system-ui, sans-serif" font-size="10" fill="#334155" font-weight="600">ref</text>
<path d="M 449 217 L 494 280" fill="none" stroke="#334155" stroke-width="1.6" stroke-linecap="round" stroke-linejoin="round" marker-end="url(#arrowhead)"/><rect x="455" y="238" width="32" height="16" rx="4" fill="#ffffff" stroke="#E2E8F0" stroke-width="0.8"/><text x="471" y="250" text-anchor="middle" font-family="Inter, system-ui, sans-serif" font-size="10" fill="#334155" font-weight="600">DNS</text>
<path d="M 820 321 L 548 321" fill="none" stroke="#334155" stroke-width="1.6" stroke-linecap="round" stroke-linejoin="round" marker-end="url(#arrowhead)"/>
<path d="M 548 321 L 600 471" fill="none" stroke="#334155" stroke-width="1.6" stroke-linecap="round" stroke-linejoin="round" marker-end="url(#arrowhead)"/><rect x="550" y="386" width="48" height="16" rx="4" fill="#ffffff" stroke="#E2E8F0" stroke-width="0.8"/><text x="574" y="398" text-anchor="middle" font-family="Inter, system-ui, sans-serif" font-size="10" fill="#334155" font-weight="600">HTTPS</text>
<path d="M 548 321 L 740 471" fill="none" stroke="#334155" stroke-width="1.6" stroke-linecap="round" stroke-linejoin="round" marker-end="url(#arrowhead)"/><rect x="620" y="386" width="48" height="16" rx="4" fill="#ffffff" stroke="#E2E8F0" stroke-width="0.8"/><text x="644" y="398" text-anchor="middle" font-family="Inter, system-ui, sans-serif" font-size="10" fill="#334155" font-weight="600">HTTPS</text>
<path d="M 708 471 L 1000 306" fill="none" stroke="#334155" stroke-width="1.6" stroke-linecap="round" stroke-linejoin="round" stroke-dasharray="5 4" marker-end="url(#arrowhead)"/><rect x="834" y="378" width="40" height="16" rx="4" fill="#ffffff" stroke="#E2E8F0" stroke-width="0.8"/><text x="854" y="390" text-anchor="middle" font-family="Inter, system-ui, sans-serif" font-size="10" fill="#334155" font-weight="600">pull</text>
<path d="M 848 471 L 1000 306" fill="none" stroke="#334155" stroke-width="1.6" stroke-linecap="round" stroke-linejoin="round" stroke-dasharray="5 4" marker-end="url(#arrowhead)"/><rect x="904" y="378" width="40" height="16" rx="4" fill="#ffffff" stroke="#E2E8F0" stroke-width="0.8"/><text x="924" y="390" text-anchor="middle" font-family="Inter, system-ui, sans-serif" font-size="10" fill="#334155" font-weight="600">pull</text>
<path d="M 708 471 L 1000 421" fill="none" stroke="#334155" stroke-width="1.6" stroke-linecap="round" stroke-linejoin="round" stroke-dasharray="5 4" marker-end="url(#arrowhead)"/><rect x="826" y="436" width="56" height="16" rx="4" fill="#ffffff" stroke="#E2E8F0" stroke-width="0.8"/><text x="854" y="448" text-anchor="middle" font-family="Inter, system-ui, sans-serif" font-size="10" fill="#334155" font-weight="600">config</text>
<path d="M 654 430 L 694 362" fill="none" stroke="#334155" stroke-width="1.6" stroke-linecap="round" stroke-linejoin="round" stroke-dasharray="5 4" marker-end="url(#arrowhead)"/>
<path d="M 748 321 L 820 321" fill="none" stroke="#334155" stroke-width="1.6" stroke-linecap="round" stroke-linejoin="round" stroke-dasharray="5 4" marker-end="url(#arrowhead)"/>
<path d="M 708 471 L 1000 561" fill="none" stroke="#334155" stroke-width="1.6" stroke-linecap="round" stroke-linejoin="round" stroke-dasharray="5 4" marker-end="url(#arrowhead)"/><rect x="834" y="506" width="40" height="16" rx="4" fill="#ffffff" stroke="#E2E8F0" stroke-width="0.8"/><text x="854" y="518" text-anchor="middle" font-family="Inter, system-ui, sans-serif" font-size="10" fill="#334155" font-weight="600">logs</text>
<path d="M 848 471 L 1000 561" fill="none" stroke="#334155" stroke-width="1.6" stroke-linecap="round" stroke-linejoin="round" stroke-dasharray="5 4" marker-end="url(#arrowhead)"/><rect x="904" y="506" width="40" height="16" rx="4" fill="#ffffff" stroke="#E2E8F0" stroke-width="0.8"/><text x="924" y="518" text-anchor="middle" font-family="Inter, system-ui, sans-serif" font-size="10" fill="#334155" font-weight="600">logs</text>
<path d="M 1108 561 L 1140 561" fill="none" stroke="#334155" stroke-width="1.6" stroke-linecap="round" stroke-linejoin="round" marker-end="url(#arrowhead)"/>
<path d="M 1140 561 L 1108 681" fill="none" stroke="#334155" stroke-width="1.6" stroke-linecap="round" stroke-linejoin="round" marker-end="url(#arrowhead)"/><rect x="1100" y="611" width="48" height="16" rx="4" fill="#ffffff" stroke="#E2E8F0" stroke-width="0.8"/><text x="1124" y="623" text-anchor="middle" font-family="Inter, system-ui, sans-serif" font-size="10" fill="#334155" font-weight="600">alert</text>
<path d="M 1140 681 L 548 471" fill="none" stroke="#334155" stroke-width="1.6" stroke-linecap="round" stroke-linejoin="round" stroke-dasharray="5 4" marker-end="url(#arrowhead)"/><rect x="804" y="566" width="80" height="16" rx="4" fill="#ffffff" stroke="#E2E8F0" stroke-width="0.8"/><text x="844" y="578" text-anchor="middle" font-family="Inter, system-ui, sans-serif" font-size="10" fill="#334155" font-weight="600">provision</text>
<text x="720" y="45" text-anchor="middle" font-family="Inter, system-ui, sans-serif" font-size="18" fill="#1E293B" font-weight="700">PJ3 — Container platform · GitHub Actions CI/CD</text>
<text x="720" y="770" text-anchor="middle" font-family="Inter, system-ui, sans-serif" font-size="11" fill="#64748B" font-weight="500">OIDC federation · GHA → ECR + S3 Artifact · RegisterTaskDef → UpdateService · Route 53 → ALB → Fargate (NAT for egress) · CW Alarm → SNS</text>
</svg>